{
.appVersion = "1036";
classes = (
{
code = " A - Z Odieresis Adieresis Udieresis";
name = UC_ROMAN;
notes = " AE AEacute Aacute Abreve Acircumflex Adieresis Agrave Alpha Alphatonos Amacron Aogonek Aogonek.NAV Aring Aringacute Atilde Beta Cacute Ccaron Ccedilla Ccircumflex Chi Dcaron Dcroat Delta Eacute Ebreve Ecaron Ecircumflex Edieresis Edotaccent Egrave Emacron Eng Eogonek Eogonek.NAV Epsilon Epsilontonos Eta Etatonos Eth Gamma Gbreve Gcircumflex Gcommaaccent Germandbls Hbar Hcircumflex IJ Iacute Ibreve Icircumflex Idieresis Igrave Imacron Iogonek Iota Iotadieresis Iotatonos Itilde Jcircumflex Kappa Kcommaaccent Lacute Lambda Lcaron Lcommaaccent Ldot Lslash Nacute Ncaron Ncommaaccent Ntilde Nu OE Oacute Obreve Ocircumflex Odieresis Ograve Ohungarumlaut Omacron Omega Omegatonos Omicron Omicrontonos Oogonek Oogonek.NAV Oslash Oslashacute Otilde Phi Pi Psi Racute Rcaron Rcommaaccent Rho Sacute Scaron Scedilla Scircumflex Sigma Tau Tbar Tcaron Theta Thorn Uacute Ubreve Ucircumflex Udieresis Ugrave Uhungarumlaut Umacron Uogonek Upsilon Upsilondieresis Upsilontonos Uring Utilde Wacute Wcircumflex Wdieresis Wgrave Xi Yacute Ycircumflex Ydieresis Ygrave Zacute Zcaron Zdotaccent Zeta ampersand uni010A uni0120 uni0162 uni0218 uni021A uni037F ";
},
{
code = " zero one two three four five six seven eight nine";
name = UC_SET1;
notes = " Euro Idotaccent Mu dollar lira sterling uni0401 uni0402 uni0403 uni0404 uni0405 uni0406 uni0407 uni0408 uni0409 uni040A uni040B uni040C uni040E uni040F uni0410 uni0411 uni0412 uni0413 uni0414 uni0415 uni0416 uni0417 uni0418 uni0419 uni041A uni041B uni041C uni041D uni041E uni041F uni0420 uni0421 uni0422 uni0423 uni0424 uni0425 uni0426 uni0427 uni0428 uni0429 uni042A uni042B uni042C uni042D uni042E uni042F uni0490 uni0492 uni0496 uni0498 uni049A uni049C uni04A0 uni04A2 uni04A8 uni04AA uni04AE uni04B0 uni04B2 uni04B4 uni04B8 uni04BA uni04BC uni04BE uni04D8 uni04E0 uni04E2 uni04E8 uni04EE uni20B4 uni20B8 uni20BD uni2116 yen ";
},
{

glyphs = (
{
glyphname = exclam;
layers = (
{
components = (
{
name = period;
}
);
layerId = "9EC1037D-1518-4D1A-8B06-2AA570753711";
paths = (
{
closed = 1;
nodes = (
"221 1456 LINE",
"167 1456 LINE",
"167 401 LINE",
"221 401 LINE"
);
}
);
width = 397;
}
);
unicode = 0021;
userData = {
com.typemytype.robofont.guides = (
{
angle = 0;
isGlobal = 0;
magnetic = 5;
x = 0;
y = 901;
},
{
angle = 0;
isGlobal = 0;
magnetic = 5;
x = 0;
y = 555;
}
);
};
},
{
glyphname = quotedbl;
layers = (
{
layerId = "9EC1037D-1518-4D1A-8B06-2AA570753711";
paths = (
{
closed = 1;
nodes = (
"210 1536 LINE",
"155 1536 LINE",
"155 1390 LINE",
"150 1122 LINE",
"200 1122 LINE",
"210 1393 LINE"
);
},
{
closed = 1;
nodes = (
"411 1536 LINE",
"357 1536 LINE",
"357 1390 LINE",
"351 1122 LINE",
"401 1122 LINE",
"411 1393 LINE"
);
}
);
width = 521;
}
);
unicode = 0022;
},
{
glyphname = numbersign;
layers = (
{
layerId = "9EC1037D-1518-4D1A-8B06-2AA570753711";
paths = (
{
closed = 1;
nodes = (
"248 0 LINE",
"304 0 LINE",
"568 1456 LINE",
"512 1456 LINE"
);
},
{
closed = 1;
nodes = (
"667 0 LINE",
"723 0 LINE",
"989 1456 LINE",
"933 1456 LINE"
);
},
{
closed = 1;
nodes = (
"1167 986 LINE",
"1167 1040 LINE",
"127 1040 LINE",
"127 986 LINE"
);
},
{
closed = 1;
nodes = (
"1092 410 LINE",
"1092 462 LINE",
"51 462 LINE",
"51 410 LINE"
);
}
);
width = 1121;
}
);
unicode = 0023;
userData = {
com.typemytype.robofont.mark = (
0.7980,
1,
0.6000,
1
);
};
},
{
glyphname = dollar;
layers = (
{
layerId = "9EC1037D-1518-4D1A-8B06-2AA570753711";
paths = (
{
closed = 1;
nodes = (
"609 1663 LINE",
"554 1663 LINE",
"554 1437 LINE",
"609 1437 LINE"
);
},
{
closed = 1;
nodes = (
"620 19 LINE",
"565 19 LINE",
"565 -208 LINE",
"620 -208 LINE"
);
},
{
closed = 1;
nodes = (
"947 344 CURVE",
"947 183 OFFCURVE",
"813 32 OFFCURVE",
"586 32 CURVE SMOOTH",
"396 32 OFFCURVE",
"175 120 OFFCURVE",
"175 409 CURVE",
"121 409 LINE",
"121 86 OFFCURVE",
"358 -21 OFFCURVE",
"586 -21 CURVE SMOOTH",
"834 -21 OFFCURVE",
"1001 120 OFFCURVE",
"1001 346 CURVE",
"1001 586 OFFCURVE",
"838 670 OFFCURVE",
"593 754 CURVE SMOOTH",
"282 857 OFFCURVE",
"222 948 OFFCURVE",
"222 1112 CURVE",
"222 1270 OFFCURVE",
"334 1424 OFFCURVE",
"579 1424 CURVE SMOOTH",
"813 1424 OFFCURVE",
"939 1262 OFFCURVE",
"939 1047 CURVE",
"993 1047 LINE",
"993 1324 OFFCURVE",
"837 1477 OFFCURVE",
"579 1477 CURVE SMOOTH",
"329 1477 OFFCURVE",
"168 1331 OFFCURVE",
"168 1110 CURVE",
"168 870 OFFCURVE",
"323 787 OFFCURVE",
"576 702 CURVE SMOOTH",
"860 600 OFFCURVE",
"947 518 OFFCURVE"
);
}
);
width = 1121;
}
);
unicode = 0024;
userData = {
com.typemytype.robofont.guides = (
{
angle = 0;
isGlobal = 0;
magnetic = 5;
x = 0;
y = 1658;
},
{
angle = 0;
isGlobal = 0;
magnetic = 5;
x = 0;
y = 555;
}
);
};
},
{
glyphname = percent;
layers = (
{
layerId = "9EC1037D-1518-4D1A-8B06-2AA570753711";
paths = (
{
closed = 1;
nodes = (
"114 1099 LINE",
"114 936 OFFCURVE",
"223 800 OFFCURVE",
"388 800 CURVE SMOOTH",
"549 800 OFFCURVE",
"657 936 OFFCURVE",
"657 1099 CURVE SMOOTH",
"657 1176 LINE SMOOTH",
"657 1341 OFFCURVE",
"548 1477 OFFCURVE",
"386 1477 CURVE SMOOTH",
"223 1477 OFFCURVE",
"114 1341 OFFCURVE",
"114 1176 CURVE SMOOTH"
);
},
{
closed = 1;
nodes = (
"169 1176 LINE",
"169 1299 OFFCURVE",
"242 1422 OFFCURVE",
"386 1422 CURVE SMOOTH",
"532 1422 OFFCURVE",
"602 1299 OFFCURVE",
"602 1176 CURVE SMOOTH",
"602 1099 LINE SMOOTH",
"602 977 OFFCURVE",
"533 855 OFFCURVE",
"388 855 CURVE SMOOTH",
"239 855 OFFCURVE",
"169 978 OFFCURVE",
"169 1099 CURVE SMOOTH"
);
},
{
closed = 1;
nodes = (
"870 279 LINE",
"870 115 OFFCURVE",
"979 -21 OFFCURVE",
"1143 -21 CURVE SMOOTH",
"1305 -21 OFFCURVE",
"1413 115 OFFCURVE",
"1413 279 CURVE SMOOTH",
"1413 357 LINE SMOOTH",
"1413 521 OFFCURVE",
"1305 657 OFFCURVE",
"1141 657 CURVE SMOOTH",
"979 657 OFFCURVE",
"870 521 OFFCURVE",
"870 357 CURVE SMOOTH"
);
},
{
closed = 1;
nodes = (
"925 357 LINE",
"925 491 OFFCURVE",
"998 602 OFFCURVE",
"1141 602 CURVE SMOOTH",
"1288 602 OFFCURVE",
"1358 491 OFFCURVE",
"1358 357 CURVE SMOOTH",
"1358 279 LINE SMOOTH",
"1358 156 OFFCURVE",
"1289 34 OFFCURVE",
"1143 34 CURVE SMOOTH",
"994 34 OFFCURVE",
"925 157 OFFCURVE",
"925 279 CURVE SMOOTH"
);
},
{
closed = 1;
nodes = (
"1133 1269 LINE",
"1088 1300 LINE",
"377 162 LINE",
"422 131 LINE"
);
}
);
width = 1527;
}
);
unicode = 0025;
},
{
glyphname = ampersand;
layers = (
{
layerId = "9EC1037D-1518-4D1A-8B06-2AA570753711";
paths = (
{
closed = 1;
nodes = (
"371 762 LINE",
"233 646 OFFCURVE",
"115 518 OFFCURVE",
"115 352 CURVE",
"115 124 OFFCURVE",
"280 -20 OFFCURVE",
"549 -20 CURVE",
"725 -20 OFFCURVE",
"865 65 OFFCURVE",
"977 181 CURVE SMOOTH",
"988 192 OFFCURVE",
"983 186 OFFCURVE",
"993 199 CURVE SMOOTH",
"1082 311 OFFCURVE",
"1139 450 OFFCURVE",
"1139 632 CURVE",
"1084 632 LINE",
"1084 274 OFFCURVE",
"827 34 OFFCURVE",
"549 34 CURVE SMOOTH",
"290 34 OFFCURVE",
"169 187 OFFCURVE",
"169 352 CURVE",
"169 440 OFFCURVE",
"203 551 OFFCURVE",
"402 723 CURVE SMOOTH",
"646 918 LINE SMOOTH",
"721 979 OFFCURVE",
"838 1090 OFFCURVE",
"838 1213 CURVE SMOOTH",
"838 1358 OFFCURVE",
"740 1477 OFFCURVE",
"562 1477 CURVE SMOOTH",
"374 1477 OFFCURVE",
"257 1349 OFFCURVE",
"257 1167 CURVE SMOOTH",
"257 1018 OFFCURVE",
"341 893 OFFCURVE",
"488 725 CURVE SMOOTH",
"1129 0 LINE",
"1196 0 LINE",
"469 826 LINE SMOOTH",
"361 951 OFFCURVE",
"312 1066 OFFCURVE",
"312 1169 CURVE SMOOTH",
"312 1307 OFFCURVE",
"399 1423 OFFCURVE",
"562 1423 CURVE SMOOTH",
"706 1423 OFFCURVE",
"782 1323 OFFCURVE",
"782 1213 CURVE SMOOTH",
"782 1115 OFFCURVE",
"706 1027 OFFCURVE",
"621 960 CURVE SMOOTH"
);
}
);
width = 1247;
}
);
unicode = 0026;
},
{
glyphname = quotesingle;
layers = (
{
layerId = "9EC1037D-1518-4D1A-8B06-2AA570753711";
paths = (
{
closed = 1;
nodes = (
"200 1536 LINE",
"145 1536 LINE",
"145 1365 LINE",
"136 1122 LINE",
"186 1122 LINE",
"200 1367 LINE"
);
}
);
width = 340;
}
);
unicode = 0027;
userData = {
com.typemytype.robofont.guides = (
{
angle = 0;
isGlobal = 0;
magnetic = 5;
x = 0;
y = 901;
},
{
angle = 0;
isGlobal = 0;
magnetic = 5;
x = 0;
y = 555;
}
);
};
},
{
glyphname = parenleft;
layers = (
{
layerId = "9EC1037D-1518-4D1A-8B06-2AA570753711";
paths = (
{
closed = 1;
nodes = (
"148 566 LINE",
"148 80 OFFCURVE",
"339 -329 OFFCURVE",
"562 -470 CURVE",
"581 -427 LINE",
"383 -296 OFFCURVE",
"202 132 OFFCURVE",
"202 564 CURVE",
"202 590 LINE SMOOTH",
"202 1022 OFFCURVE",
"383 1450 OFFCURVE",
"581 1580 CURVE",
"562 1623 LINE",
"339 1482 OFFCURVE",
"148 1047 OFFCURVE",
"148 586 CURVE"
);
}
);
width = 607;
}
);
unicode = 0028;
userData = {
com.typemytype.robofont.guides = (
{
angle = 0;
isGlobal = 0;
magnetic = 5;
x = 0;
y = 901;
},
{
angle = 0;
isGlobal = 0;
magnetic = 5;
x = 0;
y = 555;
}
);
};
},
{
glyphname = parenright;
layers = (
{
layerId = "9EC1037D-1518-4D1A-8B06-2AA570753711";
paths = (
{
closed = 1;
nodes = (
"461 586 LINE",
"461 1047 OFFCURVE",
"270 1482 OFFCURVE",
"47 1623 CURVE",
"28 1580 LINE",
"226 1450 OFFCURVE",
"407 1022 OFFCURVE",
"407 590 CURVE SMOOTH",
"407 564 LINE SMOOTH",
"407 132 OFFCURVE",
"226 -296 OFFCURVE",
"28 -427 CURVE",
"47 -470 LINE",
"270 -329 OFFCURVE",
"461 80 OFFCURVE",
"461 566 CURVE SMOOTH"
);
}
);
width = 623;
}
);
unicode = 0029;
userData = {
com.typemytype.robofont.guides = (
{
angle = 0;
isGlobal = 0;
magnetic = 5;
x = 0;
y = 901;
},
{
angle = 0;
isGlobal = 0;
magnetic = 5;
x = 0;
y = 555;
}
);
};
},
{
glyphname = asterisk;
layers = (
{
layerId = "9EC1037D-1518-4D1A-8B06-2AA570753711";
paths = (
{
closed = 1;
nodes = (
"159 693 LINE",
"204 661 LINE",
"432 986 LINE",
"674 664 LINE",
"721 697 LINE",
"472 1014 LINE",
"832 1151 LINE",
"812 1204 LINE",
"460 1061 LINE",
"467 1456 LINE",
"411 1456 LINE",
"410 1062 LINE",
"48 1195 LINE",
"30 1141 LINE",
"393 1017 LINE"
);
}
);
width = 856;
}
);
unicode = 002A;
userData = {
com.typemytype.robofont.guides = (
{
angle = 0;
isGlobal = 0;
magnetic = 5;
x = 0;
y = 901;
},
{
angle = 0;
isGlobal = 0;
magnetic = 5;
x = 0;
y = 555;
}
);
};
},
{
glyphname = plus;
layers = (
{
layerId = "9EC1037D-1518-4D1A-8B06-2AA570753711";
paths = (
{
closed = 1;
nodes = (
"1071 702 LINE",
"73 702 LINE",
"73 649 LINE",
"1071 649 LINE"
);
},
{
closed = 1;
nodes = (
"590 1206 LINE",
"535 1206 LINE",
"535 146 LINE",
"590 146 LINE"
);
}
);
width = 1151;
}
);
unicode = 002B;
},
{
glyphname = comma;
layers = (
{
anchors = (
{
name = _bottom;
position = "{209, 214}";
},
{
name = _right;
position = "{182, 25}";
}
);
layerId = "9EC1037D-1518-4D1A-8B06-2AA570753711";
paths = (
{
closed = 1;
nodes = (
"235 159 LINE",
"181 159 LINE",
"181 25 LINE",
"181 -78 OFFCURVE",
"152 -145 OFFCURVE",
"92 -223 CURVE",
"129 -255 LINE",
"192 -188 OFFCURVE",
"235 -96 OFFCURVE",
"235 27 CURVE"
);
}
);
width = 383;
}
);
rightKerningGroup = comma;
unicode = 002C;
userData = {
com.typemytype.robofont.guides = (
{
angle = 0;
isGlobal = 0;
magnetic = 5;
x = 0;
y = 901;
},
{
angle = 0;
isGlobal = 0;
magnetic = 5;
x = 0;
y = 555;
}
);
};
},
{
glyphname = hyphen;
layers = (
{
layerId = "9EC1037D-1518-4D1A-8B06-2AA570753711";
paths = (
{
closed = 1;
nodes = (
"531 693 LINE",
"61 693 LINE",
"61 639 LINE",
"531 639 LINE"
);
}
);
width = 607;
}
);
unicode = 002D;
},
{
glyphname = period;
layers = (
{
layerId = "9EC1037D-1518-4D1A-8B06-2AA570753711";
paths = (
{
closed = 1;
nodes = (
"147 49 CURVE SMOOTH",
"147 18 OFFCURVE",
"171 -6 OFFCURVE",
"202 -6 CURVE SMOOTH",
"233 -6 OFFCURVE",
"258 18 OFFCURVE",
"258 49 CURVE SMOOTH",
"258 80 OFFCURVE",
"233 105 OFFCURVE",
"202 105 CURVE SMOOTH",
"171 105 OFFCURVE",
"147 80 OFFCURVE"
);
}
);
width = 439;
}
);
unicode = 002E;
userData = {
com.typemytype.robofont.guides = (
{
angle = 0;
isGlobal = 0;
magnetic = 5;
x = 0;
y = 901;
},
{
angle = 0;
isGlobal = 0;
magnetic = 5;
x = 0;
y = 555;
}
);
};
},
{
glyphname = slash;
layers = (
{
layerId = "9EC1037D-1518-4D1A-8B06-2AA570753711";
paths = (
{
closed = 1;
nodes = (
"709 1456 LINE",
"650 1456 LINE",
"42 -125 LINE",
"101 -125 LINE"
);
}
);
width = 782;
}
);
unicode = 002F;
userData = {
com.typemytype.robofont.guides = (
{
angle = 0;
isGlobal = 0;
magnetic = 5;
x = 0;
y = 901;
},
{
angle = 0;
isGlobal = 0;
magnetic = 5;
x = 0;
y = 555;
}
);
};
},
{
glyphname = zero;
layers = (
{
layerId = "9EC1037D-1518-4D1A-8B06-2AA570753711";
paths = (
{
closed = 1;
nodes = (
"1050 862 LINE",
"1050 1242 OFFCURVE",
"895 1477 OFFCURVE",
"614 1477 CURVE SMOOTH",
"334 1477 OFFCURVE",
"179 1242 OFFCURVE",
"179 862 CURVE",
"179 594 LINE",
"179 214 OFFCURVE",
"337 -20 OFFCURVE",
"616 -20 CURVE SMOOTH",
"898 -20 OFFCURVE",
"1050 214 OFFCURVE",
"1050 594 CURVE"
);
},
{
closed = 1;
nodes = (
"996 596 LINE",
"996 268 OFFCURVE",
"874 34 OFFCURVE",
"616 34 CURVE SMOOTH",
"359 34 OFFCURVE",
"233 268 OFFCURVE",
"233 596 CURVE SMOOTH",
"233 862 LINE SMOOTH",
"233 1196 OFFCURVE",
"357 1423 OFFCURVE",
"614 1423 CURVE SMOOTH",
"872 1423 OFFCURVE",
"996 1196 OFFCURVE",
"996 862 CURVE"
);
}
);
width = 1229;
}
);
unicode = 0030;
userData = {
com.typemytype.robofont.guides = (
{
angle = 0;
isGlobal = 0;
magnetic = 5;
x = 0;
y = 901;
},
{
angle = 0;
isGlobal = 0;
magnetic = 5;
x = 0;
y = 555;
}
);
};
},
{
glyphname = one;
layers = (
{
layerId = "9EC1037D-1518-4D1A-8B06-2AA570753711";
paths = (
{
closed = 1;
nodes = (
"713 1460 LINE",
"702 1460 LINE",
"241 1290 LINE",
"241 1231 LINE",
"659 1388 LINE",
"659 0 LINE",
"713 0 LINE"
);
}
);
width = 1229;
}
);
unicode = 0031;
userData = {
com.typemytype.robofont.guides = (
{
angle = 0;
isGlobal = 0;
magnetic = 5;
x = 0;
y = 901;
},
{
angle = 0;
isGlobal = 0;
magnetic = 5;
x = 0;
y = 555;
}
);
};
},
{
glyphname = two;
layers = (
{
layerId = "9EC1037D-1518-4D1A-8B06-2AA570753711";
paths = (
{
closed = 1;
nodes = (
"1078 54 LINE",
"278 54 LINE",
"700 546 LINE SMOOTH",
"848 719 OFFCURVE",
"1000 905 OFFCURVE",
"1000 1085 CURVE SMOOTH",
"1000 1340 OFFCURVE",
"840 1476 OFFCURVE",
"590 1476 CURVE SMOOTH",
"342 1476 OFFCURVE",
"171 1281 OFFCURVE",
"171 1045 CURVE",
"225 1045 LINE",
"225 1261 OFFCURVE",
"381 1422 OFFCURVE",
"590 1422 CURVE SMOOTH",
"823 1422 OFFCURVE",
"945 1291 OFFCURVE",
"945 1085 CURVE SMOOTH",
"945 956 OFFCURVE",
"865 813 OFFCURVE",
"684 604 CURVE SMOOTH",
"207 54 LINE",
"207 0 LINE",
"1078 0 LINE"
);
}
);
width = 1229;
}
);
unicode = 0032;
userData = {
com.typemytype.robofont.guides = (
{
angle = 0;
isGlobal = 0;
magnetic = 5;
x = 0;
y = 1658;
},
{
angle = 0;
isGlobal = 0;
magnetic = 5;
x = 0;
y = 555;
}
);
};
},
{
glyphname = three;
layers = (
{
layerId = "9EC1037D-1518-4D1A-8B06-2AA570753711";
paths = (
{
closed = 1;
nodes = (
"471 770 LINE",
"471 720 LINE",
"586 720 LINE",
"853 720 OFFCURVE",
"1029 881 OFFCURVE",
"1029 1081 CURVE",
"1029 1326 OFFCURVE",
"868 1476 OFFCURVE",
"618 1476 CURVE SMOOTH",
"384 1476 OFFCURVE",
"188 1323 OFFCURVE",
"188 1074 CURVE",
"242 1074 LINE",
"242 1290 OFFCURVE",
"408 1422 OFFCURVE",
"618 1422 CURVE SMOOTH",
"866 1422 OFFCURVE",
"975 1268 OFFCURVE",
"975 1085 CURVE",
"975 917 OFFCURVE",
"837 770 OFFCURVE",
"582 770 CURVE SMOOTH"
);
},
{
closed = 1;
nodes = (
"471 714 LINE",
"582 714 LINE SMOOTH",
"830 714 OFFCURVE",
"1007 620 OFFCURVE",
"1007 382 CURVE SMOOTH",
"1007 165 OFFCURVE",
"869 34 OFFCURVE",
"627 34 CURVE SMOOTH",
"390 34 OFFCURVE",
"211 189 OFFCURVE",
"211 405 CURVE",
"157 405 LINE",
"157 111 OFFCURVE",
"408 -20 OFFCURVE",
"627 -20 CURVE SMOOTH",
"878 -20 OFFCURVE",
"1061 128 OFFCURVE",
"1061 386 CURVE SMOOTH",
"1061 629 OFFCURVE",
"878 763 OFFCURVE",
"586 763 CURVE SMOOTH",
"471 763 LINE"
);
}
);
width = 1229;
}
);
unicode = 0033;
userData = {
com.typemytype.robofont.guides = (
{
angle = 0;
isGlobal = 0;
magnetic = 5;
x = 0;
y = 1658;
},
{
angle = 0;
isGlobal = 0;
magnetic = 5;
x = 0;
y = 555;
}
);
};
},
{
glyphname = four;
layers = (
{
layerId = "9EC1037D-1518-4D1A-8B06-2AA570753711";
paths = (
{
closed = 1;
nodes = (
"1148 451 LINE",
"220 451 LINE",
"758 1253 LINE",
"881 1456 LINE",
"831 1456 LINE",
"136 427 LINE",
"136 397 LINE",
"1148 397 LINE"
);
},
{
closed = 1;
nodes = (
"896 1456 LINE",
"842 1456 LINE",
"842 0 LINE",
"896 0 LINE"
);
}
);
width = 1229;
}
);
unicode = 0034;
userData = {
com.typemytype.robofont.guides = (
{
angle = 0;
isGlobal = 0;
magnetic = 5;
x = 0;
y = 901;
},
{
angle = 0;
isGlobal = 0;
magnetic = 5;
x = 0;
y = 651;
}
);
};
},
{
glyphname = five;
layers = (
{
layerId = "9EC1037D-1518-4D1A-8B06-2AA570753711";
paths = (
{
closed = 1;
nodes = (
"326 746 LINE",
"402 817 OFFCURVE",
"495 862 OFFCURVE",
"649 862 CURVE",
"890 862 OFFCURVE",
"1023 690 OFFCURVE",
"1023 462 CURVE SMOOTH",
"1023 182 OFFCURVE",
"907 34 OFFCURVE",
"668 34 CURVE SMOOTH",
"444 34 OFFCURVE",
"312 157 OFFCURVE",
"291 383 CURVE",
"236 383 LINE",
"258 110 OFFCURVE",
"440 -20 OFFCURVE",
"668 -20 CURVE SMOOTH",
"962 -20 OFFCURVE",
"1078 185 OFFCURVE",
"1078 464 CURVE SMOOTH",
"1078 748 OFFCURVE",
"899 916 OFFCURVE",
"648 916 CURVE SMOOTH",
"512 916 OFFCURVE",
"391 860 OFFCURVE",
"343 819 CURVE",
"402 1403 LINE",
"1063 1403 LINE",
"1063 1456 LINE",
"353 1456 LINE",
"285 762 LINE"
);
}
);
width = 1229;
}
);
unicode = 0035;
userData = {
com.typemytype.robofont.guides = (
{
angle = 0;
isGlobal = 0;
magnetic = 5;
x = 0;
y = 1658;
},
{
angle = 0;
isGlobal = 0;
magnetic = 5;
x = 0;
y = 1743;
}
);
};
},
{
glyphname = six;
layers = (
{
layerId = "9EC1037D-1518-4D1A-8B06-2AA570753711";
paths = (
{
closed = 1;
nodes = (
"875 1476 LINE",
"497 1476 OFFCURVE",
"182 1241 OFFCURVE",
"182 660 CURVE",
"182 492 LINE",
"182 177 OFFCURVE",
"386 -20 OFFCURVE",
"656 -20 CURVE SMOOTH",
"898 -20 OFFCURVE",
"1067 197 OFFCURVE",
"1067 480 CURVE",
"1067 754 OFFCURVE",
"914 957 OFFCURVE",
"646 957 CURVE",
"380 957 OFFCURVE",
"189 762 OFFCURVE",
"189 558 CURVE",
"228 556 LINE",
"228 748 OFFCURVE",
"428 903 OFFCURVE",
"639 903 CURVE",
"890 903 OFFCURVE",
"1013 716 OFFCURVE",
"1013 480 CURVE SMOOTH",
"1013 244 OFFCURVE",
"875 33 OFFCURVE",
"656 33 CURVE SMOOTH",
"410 33 OFFCURVE",
"236 215 OFFCURVE",
"236 493 CURVE SMOOTH",
"236 681 LINE SMOOTH",
"236 1204 OFFCURVE",
"529 1422 OFFCURVE",
"875 1422 CURVE",
"894 1422 LINE",
"894 1476 LINE"
);
}
);
width = 1229;
}
);
unicode = 0036;
},
{
glyphname = seven;
layers = (
{
layerId = "9EC1037D-1518-4D1A-8B06-2AA570753711";
paths = (
{
closed = 1;
nodes = (
"1061 1456 LINE",
"131 1456 LINE",
"131 1402 LINE",
"999 1402 LINE",
"365 0 LINE",
"420 0 LINE",
"1061 1422 LINE"
);
}
);
width = 1229;
}
);
unicode = 0037;
},
{
glyphname = eight;
layers = (
{
layerId = "9EC1037D-1518-4D1A-8B06-2AA570753711";
paths = (
{
closed = 1;
nodes = (
"1082 379 CURVE SMOOTH",
"1082 608 OFFCURVE",
"874 765 OFFCURVE",
"617 765 CURVE SMOOTH",
"356 765 OFFCURVE",
"154 608 OFFCURVE",
"154 379 CURVE SMOOTH",
"154 114 OFFCURVE",
"356 -20 OFFCURVE",
"619 -20 CURVE SMOOTH",
"876 -20 OFFCURVE",
"1082 114 OFFCURVE"
);
},
{
closed = 1;
nodes = (
"1027 374 CURVE SMOOTH",
"1027 154 OFFCURVE",
"846 34 OFFCURVE",
"619 34 CURVE SMOOTH",
"386 34 OFFCURVE",
"208 154 OFFCURVE",
"208 374 CURVE SMOOTH",
"208 584 OFFCURVE",
"386 718 OFFCURVE",
"617 718 CURVE SMOOTH",
"844 718 OFFCURVE",
"1027 584 OFFCURVE"
);
},
{
closed = 1;
nodes = (
"1040 1086 CURVE SMOOTH",
"1040 1339 OFFCURVE",
"850 1476 OFFCURVE",
"615 1476 CURVE SMOOTH",
"377 1476 OFFCURVE",
"195 1339 OFFCURVE",
"195 1086 CURVE SMOOTH",
"195 871 OFFCURVE",
"377 723 OFFCURVE",
"617 723 CURVE SMOOTH",
"852 723 OFFCURVE",
"1040 871 OFFCURVE"
);
},
{
closed = 1;
nodes = (
"986 1091 CURVE SMOOTH",
"986 894 OFFCURVE",
"822 772 OFFCURVE",
"617 772 CURVE SMOOTH",
"406 772 OFFCURVE",
"249 894 OFFCURVE",
"249 1091 CURVE SMOOTH",
"249 1297 OFFCURVE",
"406 1422 OFFCURVE",
"615 1422 CURVE SMOOTH",
"820 1422 OFFCURVE",
"986 1285 OFFCURVE"
);
}
);
width = 1229;
}
);
unicode = 0038;
userData = {
com.typemytype.robofont.guides = (
{
angle = 0;
isGlobal = 0;
magnetic = 5;
x = 0;
y = 901;
},
{
angle = 0;
isGlobal = 0;
magnetic = 5;
x = 0;
y = 555;
}
);
};
},
{
glyphname = nine;
layers = (
{
layerId = "9EC1037D-1518-4D1A-8B06-2AA570753711";
paths = (
{
closed = 1;
nodes = (
"354 34 LINE",
"352 -20 LINE",
"386 -20 LINE",
"833 -20 OFFCURVE",
"1047 256 OFFCURVE",
"1047 740 CURVE",
"1047 903 LINE",
"1047 1286 OFFCURVE",
"876 1476 OFFCURVE",
"585 1476 CURVE SMOOTH",
"328 1476 OFFCURVE",
"157 1240 OFFCURVE",
"157 958 CURVE",
"157 695 OFFCURVE",
"321 468 OFFCURVE",
"577 468 CURVE",
"835 468 OFFCURVE",
"1037 660 OFFCURVE",
"1037 927 CURVE",
"1005 925 LINE",
"1005 774 OFFCURVE",
"869 522 OFFCURVE",
"577 522 CURVE",
"346 522 OFFCURVE",
"211 734 OFFCURVE",
"211 958 CURVE",
"211 1194 OFFCURVE",
"357 1422 OFFCURVE",
"589 1422 CURVE SMOOTH",
"843 1422 OFFCURVE",
"993 1248 OFFCURVE",
"993 902 CURVE SMOOTH",
"993 718 LINE SMOOTH",
"993 297 OFFCURVE",
"804 34 OFFCURVE",
"386 34 CURVE"
);
}
);
width = 1229;
}
);
unicode = 0039;
userData = {
com.typemytype.robofont.guides = (
{
angle = 0;
isGlobal = 0;
magnetic = 5;
x = 0;
y = 555;
},
{
angle = 0;
isGlobal = 0;
magnetic = 5;
x = 0;
y = 901;
}
);
};
},
{
glyphname = less;
layers = (
{
layerId = "9EC1037D-1518-4D1A-8B06-2AA570753711";
paths = (
{
closed = 1;
nodes = (
"117 683 LINE",
"82 683 LINE",
"82 641 LINE",
"919 262 LINE",
"919 321 LINE"
);
},
{
closed = 1;
nodes = (
"919 1011 LINE",
"919 1069 LINE",
"82 691 LINE",
"82 649 LINE",
"118 649 LINE"
);
}
);
width = 1053;
}
);
unicode = 003C;
userData = {
com.typemytype.robofont.guides = (
{
angle = 0;
isGlobal = 0;
magnetic = 5;
x = 0;
y = 901;
},
{
angle = 0;
isGlobal = 0;
magnetic = 5;
x = 0;
y = 555;
}
);
};
},
{
glyphname = equal;
layers = (
{
layerId = "9EC1037D-1518-4D1A-8B06-2AA570753711";
paths = (
{
closed = 1;
nodes = (
"981 897 LINE",
"147 897 LINE",
"147 843 LINE",
"981 843 LINE"
);
},
{
closed = 1;
nodes = (
"981 490 LINE",
"147 490 LINE",
"147 436 LINE",
"981 436 LINE"
);
}
);
width = 1142;
}
);
unicode = 003D;
},
{
glyphname = greater;
layers = (
{
layerId = "9EC1037D-1518-4D1A-8B06-2AA570753711";
paths = (
{
closed = 1;
nodes = (
"913 650 LINE",
"950 651 LINE",
"950 694 LINE",
"114 1072 LINE",
"114 1013 LINE"
);
},
{
closed = 1;
nodes = (
"114 324 LINE",
"114 265 LINE",
"950 644 LINE",
"950 688 LINE",
"916 688 LINE"
);
}
);
width = 1053;
}
);
unicode = 003E;
userData = {
com.typemytype.robofont.guides = (
{
angle = 0;
isGlobal = 0;
magnetic = 5;
x = 0;
y = 181;
},
{
angle = 0;
isGlobal = 0;
magnetic = 5;
x = 0;
y = 526;
}
);
};
},
{
glyphname = question;
layers = (
{
components = (
{
name = period;
transform = "{1, 0, 0, 1, 224, 0}";
}
);
layerId = "9EC1037D-1518-4D1A-8B06-2AA570753711";
paths = (
{
closed = 1;
nodes = (
"449 400 LINE",
"449 515 OFFCURVE",
"482 621 OFFCURVE",
"581 698 CURVE SMOOTH",
"731 833 OFFCURVE",
"801 934 OFFCURVE",
"801 1110 CURVE SMOOTH",
"801 1318 OFFCURVE",
"681 1476 OFFCURVE",
"458 1476 CURVE SMOOTH",
"262 1476 OFFCURVE",
"96 1346 OFFCURVE",
"93 1116 CURVE",
"147 1116 LINE",
"151 1296 OFFCURVE",
"265 1423 OFFCURVE",
"458 1423 CURVE SMOOTH",
"651 1423 OFFCURVE",
"747 1291 OFFCURVE",
"747 1112 CURVE SMOOTH",
"747 929 OFFCURVE",
"675 857 OFFCURVE",
"553 740 CURVE SMOOTH",
"435 632 OFFCURVE",
"397 548 OFFCURVE",
"395 400 CURVE"
);
}
);
width = 893;
}
);
unicode = 003F;
userData = {
com.typemytype.robofont.guides = (
{
angle = 0;
isGlobal = 0;
magnetic = 5;
x = 0;
y = 1658;
},
{
angle = 0;
isGlobal = 0;
magnetic = 5;
x = 0;
y = 555;
}
);
};
},
{
export = 0;
glyphname = at;
layers = (
{
layerId = "9EC1037D-1518-4D1A-8B06-2AA570753711";
paths = (
{
closed = 1;
nodes = (
"1767 523 CURVE",
"1790 1067 OFFCURVE",
"1552 1411 OFFCURVE",
"1001 1411 CURVE SMOOTH",
"497 1411 OFFCURVE",
"154 1049 OFFCURVE",
"129 478 CURVE SMOOTH",
"105 -96 OFFCURVE",
"399 -453 OFFCURVE",
"906 -453 CURVE SMOOTH",
"1023 -453 OFFCURVE",
"1179 -421 OFFCURVE",
"1264 -364 CURVE",
"1240 -318 LINE",
"1158 -366 OFFCURVE",
"1027 -398 OFFCURVE",
"910 -398 CURVE SMOOTH",
"423 -398 OFFCURVE",
"159 -17 OFFCURVE",
"184 478 CURVE SMOOTH",
"212 1017 OFFCURVE",
"557 1354 OFFCURVE",
"997 1354 CURVE SMOOTH",
"1526 1354 OFFCURVE",
"1737 1033 OFFCURVE",
"1710 523 CURVE SMOOTH",
"1698 243 OFFCURVE",
"1594 35 OFFCURVE",
"1400 35 CURVE SMOOTH",
"1336 35 OFFCURVE",
"1196 61 OFFCURVE",
"1216 293 CURVE",
"1265 878 LINE",
"1210 878 LINE",
"1161 293 LINE SMOOTH",
"1147 101 OFFCURVE",
"1240 -20 OFFCURVE",
"1397 -20 CURVE",
"1647 -20 OFFCURVE",
"1758 267 OFFCURVE"
);
},
{
closed = 1;
nodes = (
"632 436 CURVE SMOOTH",
"669 780 OFFCURVE",
"837 933 OFFCURVE",
"1012 933 CURVE SMOOTH",
"1106 933 OFFCURVE",
"1171 898 OFFCURVE",
"1214 844 CURVE",
"1265 878 LINE",
"1200 935 OFFCURVE",
"1140 988 OFFCURVE",
"1015 988 CURVE SMOOTH",
"788 988 OFFCURVE",
"609 773 OFFCURVE",
"578 436 CURVE SMOOTH",
"554 162 OFFCURVE",
"647 -20 OFFCURVE",
"829 -20 CURVE SMOOTH",
"1013 -20 OFFCURVE",
"1142 102 OFFCURVE",
"1209 336 CURVE",
"1178 386 LINE",
"1095 91 OFFCURVE",
"956 34 OFFCURVE",
"827 34 CURVE SMOOTH",
"671 34 OFFCURVE",
"608 213 OFFCURVE"
);
}
);
width = 1902;
}
);
unicode = 0040;
},
{
color = 7;
glyphname = A;
layers = (
{
anchors = (
{
name = bottom;
position = "{638, 0}";
},
{
name = bottom_dd;
position = "{1223, -407}";
},
{
name = ogonek;
position = "{1189, 0}";
},
{
name = right;
position = "{1189, 0}";
},
{
name = tonos;
position = "{281, 1454}";
},
{
name = top;
position = "{612, 1612}";
},
{
name = top0315;
position = "{1223, 1612}";
},
{
name = top_dd;
position = "{1223, 1600}";
}
);
color = 7;
layerId = "9EC1037D-1518-4D1A-8B06-2AA570753711";
paths = (
{
closed = 1;
nodes = (
"635 1456 LINE",
"630 1456 LINE",
"578 1456 LINE",
"33 0 LINE",
"91 0 LINE"
);
},
{
closed = 1;
nodes = (
"1132 0 LINE",
"1189 0 LINE",
"644 1456 LINE",
"592 1456 LINE",
"586 1456 LINE"
);
},
{
closed = 1;
nodes = (
"976 489 LINE",
"247 489 LINE",
"247 435 LINE",
"976 435 LINE"
);
}
);
width = 1223;
}
);
unicode = 0041;
userData = {
com.typemytype.robofont.guides = (
{
angle = 0;
isGlobal = 0;
magnetic = 5;
x = 0;
y = 901;
},
{
angle = 0;
isGlobal = 0;
magnetic = 5;
x = 0;
y = 555;
}
);
};
},
{
glyphname = B;
layers = (
{
anchors = (
{
name = bottom;
position = "{560, 10}";
},
{
name = bottom_dd;
position = "{1235, -407}";
},
{
name = top;
position = "{560, 1612}";
},
{
name = top0315;
position = "{1235, 1612}";
},
{
name = top_dd;
position = "{1235, 1600}";
}
);
layerId = "9EC1037D-1518-4D1A-8B06-2AA570753711";
paths = (
{
closed = 1;
nodes = (
"685 719 LINE",
"770 749 LINE",
"957 768 OFFCURVE",
"1059 903 OFFCURVE",
"1059 1083 CURVE",
"1059 1340 OFFCURVE",
"877 1456 OFFCURVE",
"583 1456 CURVE",
"200 1456 LINE",
"200 0 LINE",
"254 0 LINE",
"254 1402 LINE",
"583 1402 LINE",
"860 1402 OFFCURVE",
"1004 1296 OFFCURVE",
"1004 1087 CURVE",
"1004 874 OFFCURVE",
"867 773 OFFCURVE",
"603 773 CURVE",
"231 773 LINE",
"233 719 LINE"
);
},
{
closed = 1;
nodes = (
"675 0 LINE",
"940 0 OFFCURVE",
"1125 142 OFFCURVE",
"1125 401 CURVE SMOOTH",
"1125 579 OFFCURVE",
"984 732 OFFCURVE",
"800 754 CURVE",
"796 773 LINE",
"451 773 LINE",
"449 719 LINE",
"685 719 LINE SMOOTH",
"943 719 OFFCURVE",
"1071 566 OFFCURVE",
"1071 399 CURVE SMOOTH",
"1071 182 OFFCURVE",
"920 54 OFFCURVE",
"675 54 CURVE SMOOTH",
"248 54 LINE",
"231 0 LINE"
);
}
);
width = 1235;
}
);
unicode = 0042;
userData = {
com.typemytype.robofont.mark = (
0.6000,
0.6090,
1,
1
);
};
},
{
glyphname = C;
layers = (
{
anchors = (
{
name = bottom;
position = "{678, -10}";
},
{
name = bottom_dd;
position = "{1327, -407}";
},
{
name = top;
position = "{678, 1633}";
},
{
name = top0315;
position = "{1327, 1633}";
},
{
name = top_dd;
position = "{1327, 1600}";
}
);
layerId = "9EC1037D-1518-4D1A-8B06-2AA570753711";
paths = (
{
closed = 1;
nodes = (
"1136 446 LINE",
"1106 161 OFFCURVE",
"941 34 OFFCURVE",
"671 34 CURVE SMOOTH",
"388 34 OFFCURVE",
"198 266 OFFCURVE",
"198 619 CURVE SMOOTH",
"198 839 LINE SMOOTH",
"198 1190 OFFCURVE",
"388 1422 OFFCURVE",
"671 1422 CURVE SMOOTH",
"947 1422 OFFCURVE",
"1106 1279 OFFCURVE",
"1136 1012 CURVE",
"1190 1012 LINE",
"1160 1323 OFFCURVE",
"963 1476 OFFCURVE",
"671 1476 CURVE SMOOTH",
"351 1476 OFFCURVE",
"144 1217 OFFCURVE",
"144 837 CURVE",
"144 619 LINE",
"144 239 OFFCURVE",
"351 -20 OFFCURVE",
"671 -20 CURVE SMOOTH",
"963 -20 OFFCURVE",
"1160 131 OFFCURVE",
"1190 446 CURVE"
);
}
);
width = 1327;
}
);
unicode = 0043;
userData = {
com.typemytype.robofont.guides = (
{
angle = 0;
isGlobal = 0;
magnetic = 5;
x = 0;
y = 901;
},
{
angle = 0;
isGlobal = 0;
magnetic = 5;
x = 0;
y = 555;
}
);
com.typemytype.robofont.mark = (
0.6000,
0.6090,
1,
1
);
};
},
{
glyphname = D;
layers = (
{
anchors = (
{
name = bottom;
position = "{590, 10}";
},
{
name = bottom_dd;
position = "{1340, -407}";
},
{
name = cross;
position = "{359, 738}";
},
{
name = top;
position = "{590, 1612}";
},
{
name = top0315;
position = "{1340, 1612}";
},
{
name = top_dd;
position = "{1340, 1600}";
}
);
layerId = "9EC1037D-1518-4D1A-8B06-2AA570753711";
paths = (
{
closed = 1;
nodes = (
"603 0 LINE",
"947 0 OFFCURVE",
"1204 260 OFFCURVE",
"1204 639 CURVE",
"1204 817 LINE",
"1204 1196 OFFCURVE",
"947 1456 OFFCURVE",
"603 1456 CURVE",
"242 1456 LINE",
"242 1402 LINE",
"603 1402 LINE",
"916 1402 OFFCURVE",
"1150 1159 OFFCURVE",
"1150 820 CURVE",
"1150 639 LINE SMOOTH",
"1150 297 OFFCURVE",
"916 54 OFFCURVE",
"603 54 CURVE",
"250 54 LINE",
"248 0 LINE"
);
},
{
closed = 1;
nodes = (
"254 1456 LINE",
"200 1456 LINE",
"200 0 LINE",
"254 0 LINE"
);
}
);
width = 1340;
}
);
unicode = 0044;
userData = {
com.typemytype.robofont.guides = (
{
angle = 0;
isGlobal = 0;
magnetic = 5;
x = 0;
y = 901;
},
{
angle = 0;
isGlobal = 0;
magnetic = 5;
x = 0;
y = 555;
}
);
com.typemytype.robofont.mark = (
0.6000,
0.6090,
1,
1
);
};
},
{
glyphname = E;
layers = (
{
anchors = (
{
name = bottom;
position = "{619, 10}";
},
{
name = bottom_dd;
position = "{1166, -407}";
},
{
name = ogonek;
position = "{1027, 0}";
},
{
name = tonos;
position = "{-70, 1457}";
},
{
name = top;
position = "{619, 1612}";
},
{
name = top0315;
position = "{1166, 1612}";
},
{
name = top_dd;
position = "{1166, 1600}";
}
);
layerId = "9EC1037D-1518-4D1A-8B06-2AA570753711";
paths = (
{
closed = 1;
nodes = (
"1086 54 LINE",
"219 54 LINE",
"219 0 LINE",
"1086 0 LINE"
);
},
{
closed = 1;
nodes = (
"254 1456 LINE",
"200 1456 LINE",
"200 0 LINE",
"254 0 LINE"
);
},
{
closed = 1;
nodes = (
"984 776 LINE",
"219 776 LINE",
"219 722 LINE",
"984 722 LINE"
);
},
{
closed = 1;
nodes = (
"1086 1456 LINE",
"219 1456 LINE",
"219 1402 LINE",
"1086 1402 LINE"
);
}
);
width = 1166;
}
);
unicode = 0045;
userData = {
com.typemytype.robofont.mark = (
0.6000,
0.6090,
1,
1
);
};
},
{
glyphname = F;
layers = (
{
anchors = (
{
name = bottom;
position = "{531, 10}";
},
{
name = bottom_dd;
position = "{1172, -407}";
},
{
name = cross;
position = "{331, 337}";
},
{
name = top;
position = "{619, 1612}";
},
{
name = top0315;
position = "{1172, 1612}";
},
{
name = top_dd;
position = "{1172, 1600}";
}
);
layerId = "9EC1037D-1518-4D1A-8B06-2AA570753711";
paths = (
{
closed = 1;
nodes = (
"254 1456 LINE",
"200 1456 LINE",
"200 0 LINE",
"254 0 LINE"
);
},
{
closed = 1;
nodes = (
"1000 772 LINE",
"215 772 LINE",
"215 716 LINE",
"1000 716 LINE"
);
},
{
closed = 1;
nodes = (
"1102 1456 LINE",
"215 1456 LINE",
"215 1402 LINE",
"1102 1402 LINE"
);
}
);
width = 1172;
}
);
unicode = 0046;
userData = {
com.typemytype.robofont.mark = (
0.6000,
0.6090,
1,
1
);
};
},
{
glyphname = G;
layers = (
{
anchors = (
{
name = bottom;
position = "{729, 0}";
},
{
name = bottom_dd;
position = "{1406, -407}";
},
{
name = top;
position = "{703, 1633}";
},
{
name = top0315;
position = "{1406, 1633}";
},
{
name = top_dd;
position = "{1406, 1600}";
}
);
layerId = "9EC1037D-1518-4D1A-8B06-2AA570753711";
paths = (
{
closed = 1;
nodes = (
"1226 660 LINE",
"727 660 LINE",
"727 605 LINE",
"1172 605 LINE",
"1172 181 LINE",
"1127 122 OFFCURVE",
"967 34 OFFCURVE",
"729 34 CURVE SMOOTH",
"421 34 OFFCURVE",
"222 277 OFFCURVE",
"222 620 CURVE SMOOTH",
"222 860 LINE SMOOTH",
"222 1188 OFFCURVE",
"415 1422 OFFCURVE",
"712 1422 CURVE SMOOTH",
"1015 1422 OFFCURVE",
"1140 1252 OFFCURVE",
"1170 1062 CURVE",
"1224 1062 LINE",
"1197 1295 OFFCURVE",
"1027 1476 OFFCURVE",
"712 1476 CURVE SMOOTH",
"391 1476 OFFCURVE",
"168 1225 OFFCURVE",
"168 858 CURVE SMOOTH",
"168 620 LINE SMOOTH",
"168 240 OFFCURVE",
"397 -20 OFFCURVE",
"729 -20 CURVE SMOOTH",
"1013 -20 OFFCURVE",
"1179 90 OFFCURVE",
"1226 156 CURVE"
);
}
);
width = 1406;
}
);
unicode = 0047;
userData = {
com.typemytype.robofont.guides = (
{
angle = 0;
isGlobal = 0;
magnetic = 5;
x = 0;
y = 901;
},
{
angle = 0;
isGlobal = 0;
magnetic = 5;
x = 0;
y = 555;
}
);
com.typemytype.robofont.mark = (
0.6000,
0.6090,
1,
1
);
};
},
{
glyphname = H;
layers = (
{
anchors = (
{
name = bottom;
position = "{716, 10}";
},
{
name = bottom_dd;
position = "{1438, -407}";
},
{
name = right;
position = "{1238, 0}";
},
{
name = tonos;
position = "{-58, 1457}";
},
{
name = top;
position = "{716, 1612}";
},
{
name = top0315;
position = "{1438, 1612}";
},
{
name = top_dd;
position = "{1438, 1600}";
}
);
layerId = "9EC1037D-1518-4D1A-8B06-2AA570753711";
paths = (
{
closed = 1;
nodes = (
"1207 776 LINE",
"227 776 LINE",
"227 722 LINE",
"1207 722 LINE"
);
},
{
closed = 1;
nodes = (
"254 1456 LINE",
"200 1456 LINE",
"200 0 LINE",
"254 0 LINE"
);
},
{
closed = 1;
nodes = (
"1238 1456 LINE",
"1184 1456 LINE",
"1184 0 LINE",
"1238 0 LINE"
);
}
);
width = 1438;
}
);
unicode = 0048;
userData = {
com.typemytype.robofont.mark = (
0.6000,
0.6090,
1,
1
);
};
},
{
glyphname = I;
layers = (
{
anchors = (
{
name = bottom;
position = "{626, 0}";
},
{
name = bottom_dd;
position = "{892, -407}";
},
{
name = ogonek;
position = "{646, 0}";
},
{
name = right;
position = "{652, 0}";
},
{
name = tonos;
position = "{326, 1451}";
},
{
name = top;
position = "{626, 1612}";
},
{
name = top0315;
position = "{892, 1612}";
},
{
name = top_dd;
position = "{892, 1600}";
}
);
layerId = "9EC1037D-1518-4D1A-8B06-2AA570753711";
paths = (
{
closed = 1;
nodes = (
"652 1456 LINE",
"598 1456 LINE",
"598 0 LINE",
"652 0 LINE"
);
},
{
closed = 1;
nodes = (
"228 0 LINE",
"1002 0 LINE",
"1002 54 LINE",
"228 54 LINE"
);
},
{
closed = 1;
nodes = (
"208 1402 LINE",
"1022 1402 LINE",
"1022 1456 LINE",
"208 1456 LINE"
);
}
);
width = 1230;
}
);
unicode = 0049;
userData = {
com.typemytype.robofont.guides = (
{
angle = 0;
isGlobal = 0;
magnetic = 5;
x = 0;
y = 901;
},
{
angle = 0;
isGlobal = 0;
magnetic = 5;
x = 0;
y = 555;
}
);
com.typemytype.robofont.mark = (
0.6000,
0.6090,
1,
1
);
};
},
{
glyphname = J;
layers = (
{
anchors = (
{
name = bottom;
position = "{512, -10}";
},
{
name = bottom_dd;
position = "{1125, -407}";
},
{
name = top;
position = "{902, 1582}";
},
{
name = top0315;
position = "{1125, 1582}";
},
{
name = top_dd;
position = "{1125, 1600}";
}
);
layerId = "9EC1037D-1518-4D1A-8B06-2AA570753711";
paths = (
{
closed = 1;
nodes = (
"876 442 LINE",
"876 173 OFFCURVE",
"710 34 OFFCURVE",
"510 34 CURVE SMOOTH",
"267 34 OFFCURVE",
"144 165 OFFCURVE",
"144 401 CURVE",
"90 401 LINE",
"90 116 OFFCURVE",
"253 -20 OFFCURVE",
"510 -20 CURVE SMOOTH",
"747 -20 OFFCURVE",
"930 143 OFFCURVE",
"930 442 CURVE",
"930 1456 LINE",
"876 1456 LINE"
);
}
);
width = 1125;
}
);
unicode = 004A;
userData = {
com.typemytype.robofont.guides = (
{
angle = 0;
isGlobal = 0;
magnetic = 5;
x = 0;
y = 901;
},
{
angle = 0;
isGlobal = 0;
magnetic = 5;
x = 0;
y = 555;
}
);
com.typemytype.robofont.mark = (
0.6000,
0.6090,
1,
1
);
};
},
{
glyphname = K;
layers = (
{
anchors = (
{
name = bottom;
position = "{623, 110}";
},
{
name = bottom_dd;
position = "{1300, -407}";
},
{
name = cross;
position = "{273, 1229}";
},
{
name = right;
position = "{1180, -30}";
},
{
name = top;
position = "{602, 1524}";
},
{
name = top0315;
position = "{1300, 1524}";
},
{
name = top_dd;
position = "{1300, 1600}";
}
);
layerId = "9EC1037D-1518-4D1A-8B06-2AA570753711";
paths = (
{
closed = 1;
nodes = (
"254 1456 LINE",
"200 1456 LINE",
"200 0 LINE",
"254 0 LINE"
);
},
{
closed = 1;
nodes = (
"1176 1456 LINE",
"1098 1456 LINE",
"492 847 LINE",
"240 601 LINE",
"232 531 LINE",
"525 801 LINE"
);
},
{
closed = 1;
nodes = (
"1156 0 LINE",
"1226 0 LINE",
"503 832 LINE",
"470 785 LINE"
);
}
);
width = 1300;
}
);
unicode = 004B;
userData = {
com.typemytype.robofont.mark = (
0.6000,
0.6090,
1,
1
);
};
},
{
glyphname = L;
layers = (
{
anchors = (
{
name = bottom;
position = "{625, 10}";
},
{
name = bottom_dd;
position = "{1057, -407}";
},
{
name = caron;
position = "{568, 1455}";
},
{
name = dot;
position = "{601, 755}";
},
{
name = top;
position = "{232, 1549}";
},
{
name = top0315;
position = "{1057, 1549}";
},
{
name = top_dd;
position = "{1057, 1600}";
}
);
layerId = "9EC1037D-1518-4D1A-8B06-2AA570753711";
paths = (
{
closed = 1;
nodes = (
"1002 54 LINE",
"220 54 LINE",
"220 0 LINE",
"1002 0 LINE"
);
},
{
closed = 1;
nodes = (
"255 1456 LINE",
"200 1456 LINE",
"200 0 LINE",
"255 0 LINE"
);
}
);
width = 1057;
}
);
rightKerningGroup = L;
unicode = 004C;
userData = {
com.typemytype.robofont.mark = (
0.6000,
0.6090,
1,
1
);
};
},
{
glyphname = M;
layers = (
{
anchors = (
{
name = bottom;
position = "{879, 10}";
},
{
name = bottom_dd;
position = "{1756, -407}";
},
{
name = right;
position = "{1556, 0}";
},
{
name = top;
position = "{890, 1612}";
},
{
name = top0315;
position = "{1756, 1612}";
},
{
name = top_dd;
position = "{1756, 1600}";
}
);
layerId = "9EC1037D-1518-4D1A-8B06-2AA570753711";
paths = (
{
closed = 1;
nodes = (
"216 1456 LINE",
"855 0 LINE",
"898 0 LINE",
"1537 1456 LINE",
"1477 1456 LINE",
"876 79 LINE",
"277 1456 LINE"
);
},
{
closed = 1;
nodes = (
"200 1456 LINE",
"200 0 LINE",
"254 0 LINE",
"254 703 LINE",
"254 1456 LINE"
);
},
{
closed = 1;
nodes = (
"1502 1456 LINE",
"1502 703 LINE",
"1502 0 LINE",
"1556 0 LINE",
"1556 1456 LINE"
);
}
);
width = 1756;
}
);
unicode = 004D;
userData = {
com.typemytype.robofont.mark = (
0.6000,
0.6090,
1,
1
);
};
},
{
glyphname = N;
layers = (
{
anchors = (
{
name = bottom;
position = "{726, 10}";
},
{
name = bottom_dd;
position = "{1449, -407}";
},
{
name = right;
position = "{1249, 0}";
},
{
name = top;
position = "{726, 1612}";
},
{
name = top0315;
position = "{1449, 1612}";
},
{
name = top_dd;
position = "{1449, 1600}";
}
);
layerId = "9EC1037D-1518-4D1A-8B06-2AA570753711";
paths = (
{
closed = 1;
nodes = (
"1249 1456 LINE",
"1195 1456 LINE",
"1195 95 LINE",
"255 1456 LINE",
"200 1456 LINE",
"200 0 LINE",
"254 0 LINE",
"254 1365 LINE",
"1195 0 LINE",
"1249 0 LINE"
);
}
);
width = 1449;
}
);
unicode = 004E;
userData = {
com.typemytype.robofont.mark = (
0.6000,
0.6090,
1,
1
);
};
},
{
glyphname = O;
layers = (
{
anchors = (
{
name = bottom;
position = "{683, -2}";
},
{
name = bottom_dd;
position = "{1364, -407}";
},
{
name = tonos;
position = "{130, 1454}";
},
{
name = top;
position = "{676, 1633}";
},
{
name = top0315;
position = "{1364, 1633}";
},
{
name = top_dd;
position = "{1364, 1600}";
}
);
layerId = "9EC1037D-1518-4D1A-8B06-2AA570753711";
paths = (
{
closed = 1;
nodes = (
"1231 837 LINE",
"1231 1217 OFFCURVE",
"1016 1476 OFFCURVE",
"681 1476 CURVE SMOOTH",
"347 1476 OFFCURVE",
"133 1217 OFFCURVE",
"133 837 CURVE",
"133 619 LINE",
"133 239 OFFCURVE",
"349 -20 OFFCURVE",
"683 -20 CURVE SMOOTH",
"1018 -20 OFFCURVE",
"1231 239 OFFCURVE",
"1231 619 CURVE"
);
},
{
closed = 1;
nodes = (
"1177 619 LINE",
"1177 276 OFFCURVE",
"997 34 OFFCURVE",
"683 34 CURVE SMOOTH",
"371 34 OFFCURVE",
"188 276 OFFCURVE",
"188 619 CURVE SMOOTH",
"188 839 LINE SMOOTH",
"188 1180 OFFCURVE",
"369 1422 OFFCURVE",
"681 1422 CURVE SMOOTH",
"995 1422 OFFCURVE",
"1177 1180 OFFCURVE",
"1177 839 CURVE"
);
}
);
width = 1364;
}
);
unicode = 004F;
userData = {
com.typemytype.robofont.guides = (
{
angle = 0;
isGlobal = 0;
magnetic = 5;
x = 0;
y = 901;
},
{
angle = 0;
isGlobal = 0;
magnetic = 5;
x = 0;
y = 555;
},
{
angle = 90;
isGlobal = 0;
magnetic = 5;
x = 748;
y = 0;
}
);
com.typemytype.robofont.mark = (
0.6000,
0.6090,
1,
1
);
};
},
{
glyphname = P;
layers = (
{
anchors = (
{
name = bottom;
position = "{530, 10}";
},
{
name = bottom_dd;
position = "{1230, -407}";
},
{
name = tonos;
position = "{-8, 1454}";
},
{
name = top;
position = "{560, 1612}";
},
{
name = top0315;
position = "{1230, 1612}";
},
{
name = top_dd;
position = "{1230, 1600}";
}
);
layerId = "9EC1037D-1518-4D1A-8B06-2AA570753711";
paths = (
{
closed = 1;
nodes = (
"655 615 LINE",
"966 615 OFFCURVE",
"1125 774 OFFCURVE",
"1125 1031 CURVE",
"1125 1287 OFFCURVE",
"965 1456 OFFCURVE",
"655 1456 CURVE",
"200 1456 LINE",
"200 0 LINE",
"254 0 LINE",
"254 1402 LINE",
"655 1402 LINE",
"949 1402 OFFCURVE",
"1071 1235 OFFCURVE",
"1071 1029 CURVE",
"1071 831 OFFCURVE",
"949 669 OFFCURVE",
"655 669 CURVE",
"213 669 LINE",
"213 615 LINE"
);
}
);
width = 1230;
}
);
unicode = 0050;
userData = {
com.typemytype.robofont.mark = (
0.6000,
0.6090,
1,
1
);
};
},
{
glyphname = Q;
layers = (
{
anchors = (
{
name = bottom;
position = "{698, -10}";
},
{
name = bottom_dd;
position = "{1364, -407}";
},
{
name = top;
position = "{700, 1600}";
},
{
name = top0315;
position = "{1364, 1600}";
},
{
name = top_dd;
position = "{1364, 1600}";
}
);
layerId = "9EC1037D-1518-4D1A-8B06-2AA570753711";
paths = (
{
closed = 1;
nodes = (
"894 63 LINE",
"853 25 LINE",
"1152 -263 LINE",
"1191 -228 LINE"
);
},
{
closed = 1;
nodes = (
"1231 837 LINE",
"1231 1217 OFFCURVE",
"1016 1476 OFFCURVE",
"681 1476 CURVE SMOOTH",
"347 1476 OFFCURVE",
"133 1217 OFFCURVE",
"133 837 CURVE",
"133 619 LINE",
"133 239 OFFCURVE",
"349 -20 OFFCURVE",
"683 -20 CURVE SMOOTH",
"1018 -20 OFFCURVE",
"1231 239 OFFCURVE",
"1231 619 CURVE"
);
},
{
closed = 1;
nodes = (
"1177 619 LINE",
"1177 276 OFFCURVE",
"997 34 OFFCURVE",
"683 34 CURVE SMOOTH",
"371 34 OFFCURVE",
"188 276 OFFCURVE",
"188 619 CURVE SMOOTH",
"188 839 LINE SMOOTH",
"188 1180 OFFCURVE",
"369 1422 OFFCURVE",
"681 1422 CURVE SMOOTH",
"995 1422 OFFCURVE",
"1177 1180 OFFCURVE",
"1177 839 CURVE"
);
}
);
width = 1364;
}
);
unicode = 0051;
userData = {
com.typemytype.robofont.guides = (
{
angle = 0;
isGlobal = 0;
magnetic = 5;
x = 0;
y = 901;
},
{
angle = 0;
isGlobal = 0;
magnetic = 5;
x = 0;
y = 555;
}
);
com.typemytype.robofont.mark = (
0.6000,
0.6090,
1,
1
);
};
},
{
glyphname = R;
layers = (
{
anchors = (
{
name = bottom;
position = "{606, 10}";
},
{
name = bottom_dd;
position = "{1340, -407}";
},
{
name = top;
position = "{606, 1612}";
},
{
name = top0315;
position = "{1340, 1612}";
},
{
name = top_dd;
position = "{1340, 1600}";
}
);
layerId = "9EC1037D-1518-4D1A-8B06-2AA570753711";
paths = (
{
closed = 1;
nodes = (
"195 1456 LINE",
"195 0 LINE",
"249 0 LINE",
"249 1402 LINE",
"659 1402 LINE SMOOTH",
"917 1402 OFFCURVE",
"1083 1265 OFFCURVE",
"1083 1036 CURVE SMOOTH",
"1083 855 OFFCURVE",
"957 677 OFFCURVE",
"708 677 CURVE SMOOTH",
"206 677 LINE",
"208 623 LINE",
"765 623 LINE",
"796 635 LINE",
"985 663 OFFCURVE",
"1137 824 OFFCURVE",
"1137 1036 CURVE SMOOTH",
"1137 1307 OFFCURVE",
"937 1456 OFFCURVE",
"659 1456 CURVE SMOOTH"
);
},
{
closed = 1;
nodes = (
"1141 0 LINE",
"1198 0 LINE",
"1198 14 LINE",
"805 644 LINE",
"742 642 LINE"
);
}
);
width = 1340;
}
);
unicode = 0052;
userData = {
com.typemytype.robofont.mark = (
0.6000,
0.6090,
1,
1
);
};
},
{
glyphname = S;
layers = (
{
anchors = (
{
name = bottom;
position = "{632, -10}";
},
{
name = bottom_dd;
position = "{1211, -407}";
},
{
name = top;
position = "{632, 1633}";
},
{
name = top0315;
position = "{1211, 1633}";
},
{
name = top_dd;
position = "{1211, 1600}";
}
);
layerId = "9EC1037D-1518-4D1A-8B06-2AA570753711";
paths = (
{
closed = 1;
nodes = (
"1072 349 CURVE",
"1072 162 OFFCURVE",
"889 34 OFFCURVE",
"633 34 CURVE SMOOTH",
"423 34 OFFCURVE",
"150 120 OFFCURVE",
"150 411 CURVE",
"96 411 LINE",
"96 85 OFFCURVE",
"384 -20 OFFCURVE",
"633 -20 CURVE SMOOTH",
"905 -20 OFFCURVE",
"1127 113 OFFCURVE",
"1127 351 CURVE",
"1127 596 OFFCURVE",
"925 695 OFFCURVE",
"638 770 CURVE",
"290 860 OFFCURVE",
"197 967 OFFCURVE",
"197 1122 CURVE",
"197 1280 OFFCURVE",
"351 1422 OFFCURVE",
"626 1422 CURVE SMOOTH",
"885 1422 OFFCURVE",
"1057 1261 OFFCURVE",
"1057 1046 CURVE",
"1111 1046 LINE",
"1111 1303 OFFCURVE",
"909 1476 OFFCURVE",
"626 1476 CURVE SMOOTH",
"351 1476 OFFCURVE",
"143 1342 OFFCURVE",
"143 1120 CURVE",
"143 886 OFFCURVE",
"326 799 OFFCURVE",
"623 718 CURVE SMOOTH",
"953 628 OFFCURVE",
"1072 533 OFFCURVE"
);
}
);
width = 1211;
}
);
unicode = 0053;
userData = {
com.typemytype.robofont.guides = (
{
angle = 0;
isGlobal = 0;
magnetic = 5;
x = 0;
y = 1658;
},
{
angle = 0;
isGlobal = 0;
magnetic = 5;
x = 0;
y = 555;
}
);
com.typemytype.robofont.mark = (
0.6000,
0.6090,
1,
1
);
};
},
{
glyphname = T;
layers = (
{
anchors = (
{
name = bottom;
position = "{612, 0}";
},
{
name = bottom_dd;
position = "{1224, -407}";
},
{
name = cross;
position = "{600, 872}";
},
{
name = right;
position = "{639, 0}";
},
{
name = top;
position = "{609, 1604}";
},
{
name = top0315;
position = "{1224, 1604}";
},
{
name = top_dd;
position = "{1224, 1600}";
}
);
layerId = "9EC1037D-1518-4D1A-8B06-2AA570753711";
paths = (
{
closed = 1;
nodes = (
"639 1456 LINE",
"585 1456 LINE",
"585 0 LINE",
"639 0 LINE"
);
},
{
closed = 1;
nodes = (
"1169 1456 LINE",
"55 1456 LINE",
"55 1402 LINE",
"1169 1402 LINE"
);
}
);
width = 1224;
}
);
unicode = 0054;
userData = {
com.typemytype.robofont.mark = (
0.6000,
0.6090,
1,
1
);
};
},
{
glyphname = U;
layers = (
{
anchors = (
{
name = bottom;
position = "{683, 0}";
},
{
name = bottom_dd;
position = "{1365, -407}";
},
{
name = ogonek;
position = "{936, 33}";
},
{
name = right;
position = "{799, 0}";
},
{
name = top;
position = "{697, 1612}";
},
{
name = top0315;
position = "{1365, 1612}";
},
{
name = top_dd;
position = "{1365, 1600}";
}
);
layerId = "9EC1037D-1518-4D1A-8B06-2AA570753711";
paths = (
{
closed = 1;
nodes = (
"1126 1456 LINE",
"1126 469 LINE SMOOTH",
"1126 188 OFFCURVE",
"935 34 OFFCURVE",
"683 34 CURVE SMOOTH",
"431 34 OFFCURVE",
"239 188 OFFCURVE",
"239 469 CURVE SMOOTH",
"239 1456 LINE",
"185 1456 LINE",
"185 469 LINE",
"185 142 OFFCURVE",
"399 -20 OFFCURVE",
"683 -20 CURVE SMOOTH",
"967 -20 OFFCURVE",
"1180 142 OFFCURVE",
"1180 469 CURVE",
"1180 1456 LINE"
);
}
);
width = 1365;
}
);
unicode = 0055;
userData = {
com.typemytype.robofont.guides = (
{
angle = 0;
isGlobal = 0;
magnetic = 5;
x = 0;
y = 901;
},
{
angle = 0;
isGlobal = 0;
magnetic = 5;
x = 0;
y = 555;
},
{
angle = 90;
isGlobal = 0;
magnetic = 5;
x = 664;
y = 0;
}
);
com.typemytype.robofont.mark = (
0.6000,
0.6090,
1,
1
);
};
},
{
glyphname = V;
layers = (
{
anchors = (
{
name = bottom;
position = "{614, 10}";
},
{
name = bottom_dd;
position = "{1223, -407}";
},
{
name = top;
position = "{611, 1612}";
},
{
name = top0315;
position = "{1223, 1612}";
},
{
name = top_dd;
position = "{1223, 1600}";
}
);
layerId = "9EC1037D-1518-4D1A-8B06-2AA570753711";
paths = (
{
closed = 1;
nodes = (
"641 142 LINE",
"594 0 LINE",
"645 0 LINE",
"1189 1456 LINE",
"1130 1456 LINE"
);
},
{
closed = 1;
nodes = (
"94 1456 LINE",
"35 1456 LINE",
"579 0 LINE",
"630 0 LINE",
"583 142 LINE"
);
}
);
width = 1223;
}
);
unicode = 0056;
userData = {
com.typemytype.robofont.guides = (
{
angle = 0;
isGlobal = 0;
magnetic = 5;
x = 0;
y = 901;
},
{
angle = 0;
isGlobal = 0;
magnetic = 5;
x = 0;
y = 555;
}
);
com.typemytype.robofont.mark = (
0.6000,
0.6090,
1,
1
);
};
},
{
glyphname = W;
layers = (
{
anchors = (
{
name = bottom;
position = "{926, 10}";
},
{
name = bottom_dd;
position = "{1855, -407}";
},
{
name = top;
position = "{926, 1612}";
},
{
name = top0315;
position = "{1855, 1612}";
},
{
name = top_dd;
position = "{1855, 1600}";
}
);
layerId = "9EC1037D-1518-4D1A-8B06-2AA570753711";
paths = (
{
closed = 1;
nodes = (
"555 330 LINE",
"464 0 LINE",
"515 0 LINE",
"879 1214 LINE",
"957 1456 LINE",
"899 1456 LINE"
);
},
{
closed = 1;
nodes = (
"121 1456 LINE",
"61 1456 LINE",
"454 0 LINE",
"514 0 LINE",
"423 330 LINE"
);
},
{
closed = 1;
nodes = (
"1434 330 LINE",
"1341 0 LINE",
"1401 0 LINE",
"1793 1456 LINE",
"1734 1456 LINE"
);
},
{
closed = 1;
nodes = (
"959 1456 LINE",
"900 1456 LINE",
"979 1214 LINE",
"1340 0 LINE",
"1391 0 LINE",
"1301 330 LINE"
);
}
);
width = 1855;
}
);
unicode = 0057;
userData = {
com.typemytype.robofont.guides = (
{
angle = 0;
isGlobal = 0;
magnetic = 5;
x = 0;
y = 901;
},
{
angle = 0;
isGlobal = 0;
magnetic = 5;
x = 0;
y = 555;
}
);
com.typemytype.robofont.mark = (
0.6000,
0.6090,
1,
1
);
};
},
{
glyphname = X;
layers = (
{
anchors = (
{
name = bottom;
position = "{655, 10}";
},
{
name = bottom_dd;
position = "{1223, -407}";
},
{
name = cross;
position = "{612, 748}";
},
{
name = right;
position = "{1120, 0}";
},
{
name = top;
position = "{663, 1612}";
},
{
name = top0315;
position = "{1223, 1612}";
},
{
name = top_dd;
position = "{1223, 1600}";
}
);
layerId = "9EC1037D-1518-4D1A-8B06-2AA570753711";
paths = (
{
closed = 1;
nodes = (
"141 1456 LINE",
"73 1456 LINE",
"577 743 LINE",
"54 0 LINE",
"119 0 LINE",
"611 701 LINE",
"1101 0 LINE",
"1168 0 LINE",
"645 743 LINE",
"1149 1456 LINE",
"1081 1456 LINE",
"611 785 LINE"
);
}
);
width = 1223;
}
);
unicode = 0058;
userData = {
com.typemytype.robofont.guides = (
{
angle = 0;
isGlobal = 0;
magnetic = 5;
x = 0;
y = 901;
},
{
angle = 0;
isGlobal = 0;
magnetic = 5;
x = 0;
y = 555;
},
{
angle = 90;
isGlobal = 0;
magnetic = 5;
x = 698;
y = 0;
}
);
com.typemytype.robofont.mark = (
0.6000,
0.6090,
1,
1
);
};
},
{
glyphname = Y;
layers = (
{
anchors = (
{
name = bottom;
position = "{612, 10}";
},
{
name = bottom_dd;
position = "{1223, -407}";
},
{
name = cross;
position = "{609, 583}";
},
{
name = tonos;
position = "{-72, 1454}";
},
{
name = top;
position = "{608, 1601}";
},
{
name = top0315;
position = "{1223, 1601}";
},
{
name = top_dd;
position = "{1223, 1600}";
}
);
layerId = "9EC1037D-1518-4D1A-8B06-2AA570753711";
paths = (
{
closed = 1;
nodes = (
"636 0 LINE",
"636 553 LINE",
"1185 1456 LINE",
"1119 1456 LINE",
"609 602 LINE",
"105 1456 LINE",
"33 1456 LINE",
"582 553 LINE",
"582 0 LINE"
);
}
);
width = 1223;
}
);
unicode = 0059;
userData = {
com.typemytype.robofont.guides = (
{
angle = 0;
isGlobal = 0;
magnetic = 5;
x = 0;
y = 901;
},
{
angle = 0;
isGlobal = 0;
magnetic = 5;
x = 0;
y = 555;
}
);
com.typemytype.robofont.mark = (
0.6000,
0.6090,
1,
1
);
};
},
{
glyphname = Z;
layers = (
{
anchors = (
{
name = bottom;
position = "{643, 10}";
},
{
name = bottom_dd;
position = "{1224, -407}";
},
{
name = top;
position = "{609, 1612}";
},
{
name = top0315;
position = "{1224, 1612}";
},
{
name = top_dd;
position = "{1224, 1600}";
}
);
layerId = "9EC1037D-1518-4D1A-8B06-2AA570753711";
paths = (
{
closed = 1;
nodes = (
"1130 54 LINE",
"111 54 LINE",
"111 0 LINE",
"1130 0 LINE"
);
},
{
closed = 1;
nodes = (
"1098 1418 LINE",
"1098 1456 LINE",
"1059 1456 LINE",
"94 44 LINE",
"94 0 LINE",
"131 0 LINE"
);
},
{
closed = 1;
nodes = (
"1072 1456 LINE",
"134 1456 LINE",
"134 1403 LINE",
"1072 1403 LINE"
);
}
);
width = 1224;
}
);
unicode = 005A;
userData = {
com.typemytype.robofont.mark = (
0.6000,
0.6090,
1,
1
);
};
},
{
export = 0;
glyphname = bracketleft;
layers = (
{
layerId = "9EC1037D-1518-4D1A-8B06-2AA570753711";
paths = (
{
closed = 1;
nodes = (
"464 1664 LINE",
"181 1664 LINE",
"181 -312 LINE",
"464 -312 LINE",
"464 -258 LINE",
"235 -258 LINE",
"235 1610 LINE",
"464 1610 LINE"
);
}
);
width = 439;
}
);
unicode = 005B;
},
{
export = 0;
glyphname = backslash;
layers = (
{
layerId = "9EC1037D-1518-4D1A-8B06-2AA570753711";
paths = (
{
closed = 1;
nodes = (
"665 -125 LINE",
"723 -125 LINE",
"115 1456 LINE",
"57 1456 LINE"
);
}
);
width = 774;
}
);
unicode = 005C;
userData = {
com.typemytype.robofont.guides = (
{
angle = 0;
isGlobal = 0;
magnetic = 5;
x = 0;
y = 901;
},
{
angle = 0;
isGlobal = 0;
magnetic = 5;
x = 0;
y = 555;
}
);
};
},
{
export = 0;
glyphname = bracketright;
layers = (
{
layerId = "9EC1037D-1518-4D1A-8B06-2AA570753711";
paths = (
{
closed = 1;
nodes = (
"-8 1610 LINE",
"220 1610 LINE",
"220 -258 LINE",
"-8 -258 LINE",
"-8 -312 LINE",
"275 -312 LINE",
"275 1664 LINE",
"-8 1664 LINE"
);
}
);
width = 439;
}
);
unicode = 005D;
},
{
export = 0;
glyphname = asciicircum;
layers = (
{
layerId = "9EC1037D-1518-4D1A-8B06-2AA570753711";
paths = (
{
closed = 1;
nodes = (
"430 1417 LINE",
"438 1456 LINE",
"390 1456 LINE",
"91 729 LINE",
"150 729 LINE"
);
},
{
closed = 1;
nodes = (
"680 729 LINE",
"741 729 LINE",
"442 1456 LINE",
"393 1456 LINE",
"402 1417 LINE"
);
}
);
width = 849;
}
);
unicode = 005E;
userData = {
com.typemytype.robofont.guides = (
{
angle = 0;
isGlobal = 0;
magnetic = 5;
x = 0;
y = 181;
},
{
angle = 0;
isGlobal = 0;
magnetic = 5;
x = 0;
y = 526;
}
);
};
},
{
export = 0;
glyphname = underscore;
layers = (
{
anchors = (
{
name = _bottom;
position = "{418, 157}";
}
);
layerId = "9EC1037D-1518-4D1A-8B06-2AA570753711";
paths = (
{
closed = 1;
nodes = (
"845 0 LINE",
"-1 0 LINE",
"-1 -54 LINE",
"845 -54 LINE"
);
}
);
width = 845;
}
);
unicode = 005F;
},
{
glyphname = grave;
layers = (
{
anchors = (
{
name = _top;
position = "{360, 1293}";
},
{
name = mkmktop_acc;
position = "{360, 1543}";
}
);
layerId = "9EC1037D-1518-4D1A-8B06-2AA570753711";
paths = (
{
closed = 1;
nodes = (
"215 1536 LINE",
"149 1536 LINE",
"344 1270 LINE",
"403 1270 LINE"
);
}
);
width = 537;
}
);
unicode = 0060;
userData = {
com.typemytype.robofont.mark = (
0.7980,
1,
0.6000,
1
);
};
},
{
glyphname = a;
layers = (
{
anchors = (
{
name = bottom;
position = "{581, 0}";
},
{
name = bottom_dd;
position = "{1155, -407}";
},
{
name = ogonek;
position = "{1007, 0}";
},
{
name = rhalfring;
position = "{774, 1263}";
},
{
name = rhotichook;
position = "{952, 654}";
},
{
name = top;
position = "{651, 1292}";
},
{
name = top0315;
position = "{1155, 1292}";
},
{
name = top_dd;
position = "{1155, 1600}";
}
);
layerId = "9EC1037D-1518-4D1A-8B06-2AA570753711";
paths = (
{
closed = 1;
nodes = (
"925 203 LINE",
"925 132 OFFCURVE",
"931 52 OFFCURVE",
"945 0 CURVE",
"1007 0 LINE",
"1007 9 LINE",
"989 53 OFFCURVE",
"979 140 OFFCURVE",
"979 218 CURVE SMOOTH",
"979 760 LINE",
"979 988 OFFCURVE",
"820 1102 OFFCURVE",
"595 1102 CURVE SMOOTH",
"362 1102 OFFCURVE",
"195 955 OFFCURVE",
"195 786 CURVE",
"249 784 LINE",
"249 934 OFFCURVE",
"399 1048 OFFCURVE",
"595 1048 CURVE SMOOTH",
"806 1048 OFFCURVE",
"925 942 OFFCURVE",
"925 762 CURVE"
);
},
{
closed = 1;
nodes = (
"949 604 LINE",
"666 604 LINE",
"353 604 OFFCURVE",
"166 467 OFFCURVE",
"166 274 CURVE SMOOTH",
"166 102 OFFCURVE",
"297 -20 OFFCURVE",
"499 -20 CURVE SMOOTH",
"768 -20 OFFCURVE",
"917 138 OFFCURVE",
"967 287 CURVE",
"943 337 LINE",
"879 152 OFFCURVE",
"727 33 OFFCURVE",
"499 33 CURVE SMOOTH",
"335 33 OFFCURVE",
"220 139 OFFCURVE",
"220 270 CURVE SMOOTH",
"220 434 OFFCURVE",
"390 549 OFFCURVE",
"669 549 CURVE",
"951 549 LINE"
);
}
);
width = 1229;
}
);
leftKerningGroup = a;
rightKerningGroup = a;
unicode = 0061;
userData = {
com.typemytype.robofont.guides = (
{
angle = 0;
isGlobal = 0;
magnetic = 5;
x = 0;
y = 1658;
},
{
angle = 0;
isGlobal = 0;
magnetic = 5;
x = 0;
y = 555;
}
);
};
},
{
glyphname = b;
layers = (
{
anchors = (
{
name = bottom;
position = "{638, -10}";
},
{
name = bottom_dd;
position = "{1175, -407}";
},
{
name = top;
position = "{631, 1612}";
},
{
name = top0315;
position = "{1175, 1612}";
},
{
name = top_dd;
position = "{1175, 1600}";
}
);
layerId = "9EC1037D-1518-4D1A-8B06-2AA570753711";
paths = (
{
closed = 1;
nodes = (
"224 1456 LINE",
"224 0 LINE",
"278 0 LINE",
"278 210 LINE",
"278 1456 LINE"
);
},
{
closed = 1;
nodes = (
"1053 552 LINE",
"1053 893 OFFCURVE",
"902 1102 OFFCURVE",
"645 1102 CURVE SMOOTH",
"410 1102 OFFCURVE",
"273 948 OFFCURVE",
"226 745 CURVE",
"226 304 LINE",
"260 133 OFFCURVE",
"403 -20 OFFCURVE",
"647 -20 CURVE SMOOTH",
"903 -20 OFFCURVE",
"1053 201 OFFCURVE",
"1053 531 CURVE SMOOTH"
);
},
{
closed = 1;
nodes = (
"997 531 LINE",
"997 243 OFFCURVE",
"884 34 OFFCURVE",
"648 34 CURVE SMOOTH",
"421 34 OFFCURVE",
"298 166 OFFCURVE",
"262 329 CURVE",
"262 709 LINE",
"291 843 OFFCURVE",
"374 1048 OFFCURVE",
"646 1048 CURVE SMOOTH",
"884 1048 OFFCURVE",
"997 839 OFFCURVE",
"997 552 CURVE SMOOTH"
);
}
);
width = 1229;
}
);
rightKerningGroup = o;
unicode = 0062;
},
{
glyphname = c;
layers = (
{
anchors = (
{
name = bottom;
position = "{642, -10}";
},
{
name = bottom_dd;
position = "{1134, -407}";
},
{
name = marktop;
position = "{642, 1290}";
},
{
name = top;
position = "{642, 1290}";
},
{
name = top0315;
position = "{1134, 1290}";
},
{
name = top_dd;
position = "{1134, 1600}";
}
);
layerId = "9EC1037D-1518-4D1A-8B06-2AA570753711";
paths = (
{
closed = 1;
nodes = (
"634 34 CURVE SMOOTH",
"367 34 OFFCURVE",
"246 249 OFFCURVE",
"246 520 CURVE SMOOTH",
"246 562 LINE SMOOTH",
"246 831 OFFCURVE",
"367 1048 OFFCURVE",
"632 1048 CURVE",
"810 1048 OFFCURVE",
"971 940 OFFCURVE",
"981 725 CURVE",
"1035 725 LINE",
"1025 973 OFFCURVE",
"841 1102 OFFCURVE",
"632 1102 CURVE SMOOTH",
"353 1102 OFFCURVE",
"192 879 OFFCURVE",
"192 562 CURVE SMOOTH",
"192 520 LINE SMOOTH",
"192 203 OFFCURVE",
"353 -20 OFFCURVE",
"634 -20 CURVE",
"845 -20 OFFCURVE",
"1024 108 OFFCURVE",
"1035 328 CURVE",
"981 328 LINE",
"968 121 OFFCURVE",
"803 34 OFFCURVE"
);
}
);
width = 1229;
}
);
leftKerningGroup = c;
rightKerningGroup = c;
unicode = 0063;
userData = {
com.typemytype.robofont.mark = (
0.7980,
1,
0.6000,
1
);
};
},
{
glyphname = d;
layers = (
{
anchors = (
{
name = bottom;
position = "{651, 0}";
},
{
name = bottom_dd;
position = "{1175, -407}";
},
{
name = caron;
position = "{1156, 1536}";
},
{
name = cross;
position = "{877, 1306}";
},
{
name = top;
position = "{590, 1620}";
},
{
name = top0315;
position = "{1175, 1620}";
},
{
name = top_dd;
position = "{1175, 1600}";
}
);
layerId = "9EC1037D-1518-4D1A-8B06-2AA570753711";
paths = (
{
closed = 1;
nodes = (
"951 210 LINE",
"951 0 LINE",
"1005 0 LINE",
"1005 1456 LINE",
"951 1456 LINE"
);
},
{
closed = 1;
nodes = (
"176 531 LINE",
"176 201 OFFCURVE",
"326 -20 OFFCURVE",
"582 -20 CURVE SMOOTH",
"826 -20 OFFCURVE",
"967 133 OFFCURVE",
"1001 304 CURVE",
"1001 745 LINE",
"954 948 OFFCURVE",
"820 1102 OFFCURVE",
"584 1102 CURVE SMOOTH",
"327 1102 OFFCURVE",
"176 893 OFFCURVE",
"176 552 CURVE SMOOTH"
);
},
{
closed = 1;
nodes = (
"232 552 LINE",
"232 839 OFFCURVE",
"345 1048 OFFCURVE",
"583 1048 CURVE SMOOTH",
"855 1048 OFFCURVE",
"940 843 OFFCURVE",
"969 709 CURVE",
"969 329 LINE",
"933 166 OFFCURVE",
"808 34 OFFCURVE",
"581 34 CURVE SMOOTH",
"345 34 OFFCURVE",
"232 243 OFFCURVE",
"232 531 CURVE SMOOTH"
);
}
);
width = 1229;
}
);
leftKerningGroup = o;
unicode = 0064;
},
{
glyphname = e;
layers = (
{
anchors = (
{
name = bottom;
position = "{664, 4}";
},
{
name = bottom_dd;
position = "{1131, -407}";
},
{
name = ogonek;
position = "{931, 58}";
},
{
name = rhotichook;
position = "{1025, 654}";
},
{
name = top;
position = "{666, 1291}";
},
{
name = top0315;
position = "{1131, 1291}";
},
{
name = top_dd;
position = "{1131, 1600}";
}
);
layerId = "9EC1037D-1518-4D1A-8B06-2AA570753711";
paths = (
{
closed = 1;
nodes = (
"660 -20 CURVE",
"833 -20 OFFCURVE",
"947 52 OFFCURVE",
"1019 155 CURVE",
"977 186 LINE",
"887 69 OFFCURVE",
"785 34 OFFCURVE",
"661 34 CURVE SMOOTH",
"419 34 OFFCURVE",
"240 248 OFFCURVE",
"240 518 CURVE SMOOTH",
"240 562 LINE SMOOTH",
"240 830 OFFCURVE",
"401 1048 OFFCURVE",
"640 1048 CURVE",
"857 1048 OFFCURVE",
"997 861 OFFCURVE",
"997 644 CURVE",
"997 631 LINE",
"221 631 LINE",
"221 577 LINE",
"1051 577 LINE",
"1051 640 LINE SMOOTH",
"1051 915 OFFCURVE",
"880 1102 OFFCURVE",
"640 1102 CURVE SMOOTH",
"390 1102 OFFCURVE",
"186 878 OFFCURVE",
"186 562 CURVE SMOOTH",
"186 518 LINE SMOOTH",
"186 204 OFFCURVE",
"397 -20 OFFCURVE"
);
}
);
width = 1230;
}
);
leftKerningGroup = o;
rightKerningGroup = o;
unicode = 0065;
},
{
glyphname = f;
layers = (
{
anchors = (
{
name = bottom;
position = "{570, 10}";
},
{
name = bottom_dd;
position = "{995, -407}";
},
{
name = top;
position = "{868, 1680}";
},
{
name = top0315;
position = "{995, 1680}";
},
{
name = top_dd;
position = "{995, 1600}";
}
);
layerId = "9EC1037D-1518-4D1A-8B06-2AA570753711";
paths = (
{
closed = 1;
nodes = (
"558 0 LINE",
"558 1096 LINE",
"558 1303 OFFCURVE",
"688 1423 OFFCURVE",
"898 1423 CURVE SMOOTH",
"992 1423 OFFCURVE",
"1039 1418 OFFCURVE",
"1105 1408 CURVE",
"1113 1460 LINE",
"1042 1473 OFFCURVE",
"967 1477 OFFCURVE",
"897 1477 CURVE SMOOTH",
"653 1477 OFFCURVE",
"504 1342 OFFCURVE",
"504 1096 CURVE",
"504 0 LINE"
);
},
{
closed = 1;
nodes = (
"994 1082 LINE",
"186 1082 LINE",
"186 1027 LINE",
"994 1027 LINE"
);
}
);
width = 1230;
}
);
leftKerningGroup = f;
rightKerningGroup = f;
unicode = 0066;
userData = {
com.typemytype.robofont.guides = (
{
angle = 0;
isGlobal = 0;
magnetic = 5;
x = 0;
y = 894;
},
{
angle = 0;
isGlobal = 0;
magnetic = 5;
x = 0;
y = 187;
}
);
};
},
{
glyphname = g;
layers = (
{
anchors = (
{
name = bottom;
position = "{607, -447}";
},
{
name = bottom_dd;
position = "{1176, -407}";
},
{
name = top;
position = "{620, 1290}";
},
{
name = top0315;
position = "{1176, 1290}";
},
{
name = top_dd;
position = "{1176, 1600}";
}
);
layerId = "9EC1037D-1518-4D1A-8B06-2AA570753711";
paths = (
{
closed = 1;
nodes = (
"948 1082 LINE",
"948 844 LINE",
"948 45 LINE SMOOTH",
"948 -167 OFFCURVE",
"827 -303 OFFCURVE",
"592 -303 CURVE SMOOTH",
"458 -303 OFFCURVE",
"362 -244 OFFCURVE",
"278 -138 CURVE",
"240 -174 LINE",
"318 -281 OFFCURVE",
"436 -356 OFFCURVE",
"594 -356 CURVE SMOOTH",
"849 -356 OFFCURVE",
"1003 -201 OFFCURVE",
"1003 45 CURVE SMOOTH",
"1003 1082 LINE"
);
},
{
closed = 1;
nodes = (
"174 531 LINE",
"174 213 OFFCURVE",
"324 0 OFFCURVE",
"580 0 CURVE SMOOTH",
"824 0 OFFCURVE",
"965 144 OFFCURVE",
"999 304 CURVE",
"999 745 LINE",
"952 948 OFFCURVE",
"817 1102 OFFCURVE",
"582 1102 CURVE SMOOTH",
"325 1102 OFFCURVE",
"174 893 OFFCURVE",
"174 552 CURVE SMOOTH"
);
},
{
closed = 1;
nodes = (
"229 552 LINE",
"229 839 OFFCURVE",
"343 1048 OFFCURVE",
"581 1048 CURVE SMOOTH",
"853 1048 OFFCURVE",
"934 843 OFFCURVE",
"963 709 CURVE",
"963 329 LINE",
"927 177 OFFCURVE",
"806 54 OFFCURVE",
"579 54 CURVE SMOOTH",
"343 54 OFFCURVE",
"229 255 OFFCURVE",
"229 531 CURVE SMOOTH"
);
}
);
width = 1229;
}
);
unicode = 0067;
},
{
glyphname = h;
layers = (
{
anchors = (
{
name = bottom;
position = "{626, 10}";
},
{
name = bottom_dd;
position = "{1175, -407}";
},
{
name = cross;
position = "{384, 1306}";
},
{
name = right;
position = "{1009, 0}";
},
{
name = top;
position = "{527, 1611}";
},
{
name = top0315;
position = "{1175, 1611}";
},
{
name = top_dd;
position = "{1175, 1600}";
}
);
layerId = "9EC1037D-1518-4D1A-8B06-2AA570753711";
paths = (
{
closed = 1;
nodes = (
"1008 0 LINE SMOOTH",
"1008 0 OFFCURVE",
"1008 0 OFFCURVE",
"1008 0 CURVE SMOOTH",
"1008 700 LINE SMOOTH",
"1008 987 OFFCURVE",
"883 1102 OFFCURVE",
"664 1102 CURVE SMOOTH",
"429 1102 OFFCURVE",
"269 904 OFFCURVE",
"242 691 CURVE",
"271 634 LINE",
"280 763 OFFCURVE",
"389 1049 OFFCURVE",
"661 1049 CURVE SMOOTH",
"833 1049 OFFCURVE",
"954 975 OFFCURVE",
"954 700 CURVE SMOOTH",
"954 0 LINE SMOOTH",
"954 0 OFFCURVE",
"954 0 OFFCURVE",
"954 0 CURVE SMOOTH"
);
},
{
closed = 1;
nodes = (
"280 0 LINE SMOOTH",
"280 0 OFFCURVE",
"280 0 OFFCURVE",
"280 0 CURVE SMOOTH",
"280 851 LINE",
"280 1456 LINE SMOOTH",
"280 1456 OFFCURVE",
"280 1456 OFFCURVE",
"280 1456 CURVE SMOOTH",
"226 1456 LINE SMOOTH",
"226 1456 OFFCURVE",
"226 1456 OFFCURVE",
"226 1456 CURVE SMOOTH",
"226 0 LINE SMOOTH",
"226 0 OFFCURVE",
"226 0 OFFCURVE",
"226 0 CURVE SMOOTH"
);
}
);
width = 1229;
}
);
rightKerningGroup = n;
rightMetricsKey = n;
unicode = 0068;
userData = {
com.typemytype.robofont.guides = (
{
angle = 0;
isGlobal = 0;
magnetic = 5;
x = 0;
y = 901;
},
{
angle = 0;
isGlobal = 0;
magnetic = 5;
x = 0;
y = 555;
}
);
};
},
{
glyphname = j;
layers = (
{
anchors = (
{
name = bottom;
position = "{717, -459}";
},
{
name = bottom_dd;
position = "{972, -407}";
},
{
name = top;
position = "{740, 1600}";
},
{
name = top0315;
position = "{962, 1600}";
},
{
name = top_dd;
position = "{972, 1600}";
}
);
layerId = "9EC1037D-1518-4D1A-8B06-2AA570753711";
paths = (
{
closed = 1;
nodes = (
"713 1082 LINE",
"713 11 LINE",
"713 -239 OFFCURVE",
"594 -383 OFFCURVE",
"362 -383 CURVE SMOOTH",
"288 -383 OFFCURVE",
"215 -376 OFFCURVE",
"173 -371 CURVE",
"170 -423 LINE",
"233 -432 OFFCURVE",
"295 -437 OFFCURVE",
"362 -437 CURVE SMOOTH",
"614 -437 OFFCURVE",
"767 -278 OFFCURVE",
"767 11 CURVE",
"767 1082 LINE"
);
},
{
closed = 1;
nodes = (
"680 1420 CURVE SMOOTH",
"680 1389 OFFCURVE",
"704 1365 OFFCURVE",
"735 1365 CURVE SMOOTH",
"766 1365 OFFCURVE",
"791 1389 OFFCURVE",
"791 1420 CURVE SMOOTH",
"791 1451 OFFCURVE",
"766 1476 OFFCURVE",
"735 1476 CURVE SMOOTH",
"704 1476 OFFCURVE",
"680 1451 OFFCURVE"
);
},
{
closed = 1;
nodes = (
"293 1028 LINE",
"767 1028 LINE",
"767 1082 LINE",
"293 1082 LINE"
);
}
);
width = 1229;
}
);
leftKerningGroup = j;
rightKerningGroup = j;
unicode = 006A;
userData = {
com.typemytype.robofont.guides = (
{
angle = 0;
isGlobal = 0;
magnetic = 5;
x = 0;
y = 659;
},
{
angle = 0;
isGlobal = 0;
magnetic = 5;
x = 0;
y = 1005;
}
);
};
},
{
glyphname = k;
layers = (
{
anchors = (
{
name = bottom;
position = "{648, 114}";
},
{
name = bottom_dd;
position = "{1099, -407}";
},
{
name = cross;
position = "{472, 1289}";
},
{
name = marktop;
position = "{674, 1612}";
},
{
name = top;
position = "{674, 1612}";
},
{
name = top0315;
position = "{969, 1612}";
},
{
name = top_dd;
position = "{1099, 1600}";
}
);
layerId = "9EC1037D-1518-4D1A-8B06-2AA570753711";
paths = (
{
closed = 1;
nodes = (
"356 1456 LINE",
"302 1456 LINE",
"302 0 LINE",
"356 0 LINE"
);
},
{
closed = 1;
nodes = (
"1052 1082 LINE",
"975 1082 LINE",
"483 627 LINE",
"326 479 LINE",
"346 440 LINE",
"513 583 LINE"
);
},
{
closed = 1;
nodes = (
"1013 0 LINE",
"1083 0 LINE",
"531 650 LINE",
"496 608 LINE"
);
}
);
width = 1229;
}
);
rightKerningGroup = k;
unicode = 006B;
userData = {
com.typemytype.robofont.mark = (
0.7980,
1,
0.6000,
1
);
};
},
{
glyphname = l;
layers = (
{
anchors = (
{
name = bottom;
position = "{669, 10}";
},
{
name = bottom_dd;
position = "{877, -407}";
},
{
name = caron;
position = "{902, 1536}";
},
{
name = dot;
position = "{1002, 794}";
},
{
name = marktop;
position = "{959, 1503}";
},
{
name = top;
position = "{669, 1673}";
},
{
name = top0315;
position = "{907, 1673}";
},
{
name = top_dd;
position = "{907, 1600}";
}
);
layerId = "9EC1037D-1518-4D1A-8B06-2AA570753711";
paths = (
{
closed = 1;
nodes = (
"694 1456 LINE",
"640 1456 LINE",
"640 0 LINE",
"694 0 LINE"
);
},
{
closed = 1;
nodes = (
"240 0 LINE",
"1074 0 LINE",
"1074 54 LINE",
"240 54 LINE"
);
},
{
closed = 1;
nodes = (
"240 1402 LINE",
"694 1402 LINE",
"694 1456 LINE",
"240 1456 LINE"
);
}
);
width = 1230;
}
);
leftKerningGroup = l;
unicode = 006C;
userData = {
com.typemytype.robofont.mark = (
0.7980,
1,
0.6000,
1
);
};
},
{
glyphname = m;
layers = (
{
anchors = (
{
name = bottom;
position = "{715, 10}";
},
{
name = bottom_dd;
position = "{1633, -407}";
},
{
name = marktop;
position = "{713, 1290}";
},
{
name = top;
position = "{713, 1290}";
},
{
name = top0315;
position = "{1633, 1290}";
},
{
name = top_dd;
position = "{1633, 1600}";
}
);
layerId = "9EC1037D-1518-4D1A-8B06-2AA570753711";
paths = (
{
closed = 1;
nodes = (
"153 940 LINE",
"153 1082 LINE",
"98 1082 LINE",
"98 0 LINE",
"153 0 LINE"
);
},
{
closed = 1;
nodes = (
"146 824 LINE",
"156 894 OFFCURVE",
"219 1049 OFFCURVE",
"393 1049 CURVE SMOOTH",
"506 1049 OFFCURVE",
"589 994 OFFCURVE",
"589 790 CURVE SMOOTH",
"589 0 LINE",
"643 0 LINE",
"643 790 LINE SMOOTH",
"643 1013 OFFCURVE",
"551 1102 OFFCURVE",
"396 1102 CURVE SMOOTH",
"239 1102 OFFCURVE",
"147 996 OFFCURVE",
"117 881 CURVE"
);
},
{
closed = 1;
nodes = (
"643 820 LINE",
"649 901 OFFCURVE",
"721 1047 OFFCURVE",
"876 1049 CURVE SMOOTH",
"1002 1050 OFFCURVE",
"1093 996 OFFCURVE",
"1093 800 CURVE SMOOTH",
"1093 0 LINE",
"1147 0 LINE",
"1147 800 LINE SMOOTH",
"1147 1016 OFFCURVE",
"1048 1102 OFFCURVE",
"879 1102 CURVE SMOOTH",
"727 1102 OFFCURVE",
"623 984 OFFCURVE",
"606 853 CURVE"
);
}
);
width = 1230;
}
);
unicode = 006D;
userData = {
com.typemytype.robofont.mark = (
0.7980,
1,
0.6000,
1
);
};
},
{
glyphname = n;
layers = (
{
anchors = (
{
name = bottom;
position = "{632, 10}";
},
{
name = bottom_dd;
position = "{1175, -407}";
},
{
name = caron;
position = "{54, 1536}";
},
{
name = marktop;
position = "{632, 1290}";
},
{
name = right;
position = "{1007, 0}";
},
{
name = top;
position = "{632, 1290}";
},
{
name = top0315;
position = "{1175, 1290}";
},
{
name = top_dd;
position = "{1175, 1600}";
}
);
layerId = "9EC1037D-1518-4D1A-8B06-2AA570753711";
paths = (
{
closed = 1;
nodes = (
"280 851 LINE",
"280 1082 LINE SMOOTH",
"280 1082 OFFCURVE",
"280 1082 OFFCURVE",
"280 1082 CURVE SMOOTH",
"226 1082 LINE SMOOTH",
"226 1082 OFFCURVE",
"226 1082 OFFCURVE",
"226 1082 CURVE SMOOTH",
"226 0 LINE SMOOTH",
"226 0 OFFCURVE",
"226 0 OFFCURVE",
"226 0 CURVE SMOOTH",
"280 0 LINE SMOOTH",
"280 0 OFFCURVE",
"280 0 OFFCURVE",
"280 0 CURVE SMOOTH"
);
},
{
closed = 1;
nodes = (
"271 634 LINE",
"280 763 OFFCURVE",
"389 1049 OFFCURVE",
"661 1049 CURVE SMOOTH",
"833 1049 OFFCURVE",
"954 975 OFFCURVE",
"954 700 CURVE SMOOTH",
"954 0 LINE SMOOTH",
"954 0 OFFCURVE",
"954 0 OFFCURVE",
"954 0 CURVE SMOOTH",
"1008 0 LINE SMOOTH",
"1008 0 OFFCURVE",
"1008 0 OFFCURVE",
"1008 0 CURVE SMOOTH",
"1008 700 LINE SMOOTH",
"1008 987 OFFCURVE",
"883 1102 OFFCURVE",
"664 1102 CURVE SMOOTH",
"429 1102 OFFCURVE",
"269 904 OFFCURVE",
"242 691 CURVE"
);
}
);
width = 1229;
}
);
leftKerningGroup = n;
rightKerningGroup = n;
unicode = 006E;
userData = {
com.typemytype.robofont.mark = (
0.7980,
1,
0.6000,
1
);
};
},
{
glyphname = o;
layers = (
{
anchors = (
{
name = bottom;
position = "{618, -10}";
},
{
name = bottom_dd;
position = "{1178, -407}";
},
{
name = rhotichook;
position = "{1055, 654}";
},
{
name = top;
position = "{618, 1290}";
},
{
name = top0315;
position = "{1178, 1290}";
},
{
name = top_dd;
position = "{1178, 1600}";
}
);
layerId = "9EC1037D-1518-4D1A-8B06-2AA570753711";
paths = (
{
closed = 1;
nodes = (
"141 520 LINE",
"141 203 OFFCURVE",
"334 -20 OFFCURVE",
"616 -20 CURVE SMOOTH",
"897 -20 OFFCURVE",
"1088 203 OFFCURVE",
"1088 520 CURVE",
"1088 562 LINE",
"1088 879 OFFCURVE",
"897 1102 OFFCURVE",
"614 1102 CURVE SMOOTH",
"334 1102 OFFCURVE",
"141 879 OFFCURVE",
"141 562 CURVE"
);
},
{
closed = 1;
nodes = (
"195 562 LINE",
"195 815 OFFCURVE",
"350 1048 OFFCURVE",
"614 1048 CURVE SMOOTH",
"879 1048 OFFCURVE",
"1034 815 OFFCURVE",
"1034 562 CURVE",
"1034 520 LINE",
"1034 261 OFFCURVE",
"879 34 OFFCURVE",
"616 34 CURVE SMOOTH",
"350 34 OFFCURVE",
"195 261 OFFCURVE",
"195 520 CURVE"
);
}
);
width = 1229;
}
);
leftKerningGroup = o;
rightKerningGroup = o;
unicode = 006F;
userData = {
com.typemytype.robofont.guides = (
{
angle = 0;
isGlobal = 0;
magnetic = 5;
x = 0;
y = 2079;
}
);
};
},
{
glyphname = p;
layers = (
{
anchors = (
{
name = bottom;
position = "{249, -407}";
},
{
name = bottom_dd;
position = "{1175, -407}";
},
{
name = marktop;
position = "{637, 1280}";
},
{
name = top;
position = "{637, 1280}";
},
{
name = top0315;
position = "{1175, 1280}";
},
{
name = top_dd;
position = "{1175, 1600}";
}
);
layerId = "9EC1037D-1518-4D1A-8B06-2AA570753711";
paths = (
{
closed = 1;
nodes = (
"278 874 LINE",
"278 1082 LINE",
"224 1082 LINE",
"224 -336 LINE",
"278 -336 LINE"
);
},
{
closed = 1;
nodes = (
"1053 552 LINE",
"1053 893 OFFCURVE",
"902 1102 OFFCURVE",
"645 1102 CURVE SMOOTH",
"410 1102 OFFCURVE",
"271 948 OFFCURVE",
"224 745 CURVE",
"224 305 LINE",
"258 133 OFFCURVE",
"403 -20 OFFCURVE",
"647 -20 CURVE SMOOTH",
"903 -20 OFFCURVE",
"1053 201 OFFCURVE",
"1053 531 CURVE SMOOTH"
);
},
{
closed = 1;
nodes = (
"998 531 LINE",
"998 243 OFFCURVE",
"884 34 OFFCURVE",
"648 34 CURVE SMOOTH",
"421 34 OFFCURVE",
"296 166 OFFCURVE",
"260 330 CURVE",
"260 709 LINE",
"289 843 OFFCURVE",
"374 1048 OFFCURVE",
"646 1048 CURVE SMOOTH",
"884 1048 OFFCURVE",
"998 839 OFFCURVE",
"998 552 CURVE SMOOTH"
);
}
);
width = 1229;
}
);
unicode = 0070;
userData = {
com.typemytype.robofont.mark = (
0.7980,
1,
0.6000,
1
);
};
},
{
glyphname = q;
layers = (
{
anchors = (
{
name = bottom;
position = "{980, -407}";
},
{
name = bottom_dd;
position = "{1175, -407}";
},
{
name = marktop;
position = "{591, 1290}";
},
{
name = top;
position = "{591, 1290}";
},
{
name = top0315;
position = "{1175, 1290}";
},
{
name = top_dd;
position = "{1175, 1600}";
}
);
layerId = "9EC1037D-1518-4D1A-8B06-2AA570753711";
paths = (
{
closed = 1;
nodes = (
"951 -336 LINE",
"1005 -336 LINE",
"1005 1082 LINE",
"951 1082 LINE",
"951 874 LINE"
);
},
{
closed = 1;
nodes = (
"176 531 LINE",
"176 201 OFFCURVE",
"326 -20 OFFCURVE",
"582 -20 CURVE SMOOTH",
"826 -20 OFFCURVE",
"971 133 OFFCURVE",
"1005 304 CURVE",
"1005 745 LINE",
"958 948 OFFCURVE",
"820 1102 OFFCURVE",
"584 1102 CURVE SMOOTH",
"327 1102 OFFCURVE",
"176 893 OFFCURVE",
"176 552 CURVE SMOOTH"
);
},
{
closed = 1;
nodes = (
"232 552 LINE",
"232 839 OFFCURVE",
"345 1048 OFFCURVE",
"583 1048 CURVE SMOOTH",
"852 1048 OFFCURVE",
"943 834 OFFCURVE",
"969 709 CURVE",
"969 329 LINE",
"933 166 OFFCURVE",
"808 34 OFFCURVE",
"581 34 CURVE SMOOTH",
"345 34 OFFCURVE",
"232 243 OFFCURVE",
"232 531 CURVE SMOOTH"
);
}
);
width = 1229;
}
);
unicode = 0071;
userData = {
com.typemytype.robofont.mark = (
0.7980,
1,
0.6000,
1
);
};
},
{
glyphname = r;
layers = (
{
anchors = (
{
name = bottom;
position = "{419, 19}";
},
{
name = bottom_dd;
position = "{905, -407}";
},
{
name = top;
position = "{633, 1290}";
},
{
name = top0315;
position = "{905, 1290}";
},
{
name = top_dd;
position = "{905, 1600}";
}
);
layerId = "9EC1037D-1518-4D1A-8B06-2AA570753711";
paths = (
{
closed = 1;
nodes = (
"446 894 LINE",
"446 1082 LINE",
"392 1082 LINE",
"392 0 LINE",
"446 0 LINE"
);
},
{
closed = 1;
nodes = (
"1075 1085 LINE",
"1042 1094 OFFCURVE",
"992 1102 OFFCURVE",
"929 1102 CURVE",
"581 1102 OFFCURVE",
"399 877 OFFCURVE",
"399 567 CURVE",
"435 570 LINE",
"435 830 OFFCURVE",
"601 1049 OFFCURVE",
"929 1049 CURVE",
"979 1049 OFFCURVE",
"1027 1043 OFFCURVE",
"1069 1037 CURVE"
);
}
);
width = 1229;
}
);
rightKerningGroup = r;
unicode = 0072;
userData = {
com.typemytype.robofont.guides = (
{
angle = 0;
isGlobal = 0;
magnetic = 5;
x = 0;
y = 901;
},
{
angle = 0;
isGlobal = 0;
magnetic = 5;
x = 0;
y = 555;
}
);
};
},
{
glyphname = s;
layers = (
{
anchors = (
{
name = bottom;
position = "{617, -5}";
},
{
name = bottom_dd;
position = "{1124, -407}";
},
{
name = top;
position = "{617, 1290}";
},
{
name = top0315;
position = "{1124, 1290}";
},
{
name = top_dd;
position = "{1124, 1600}";
}
);
layerId = "9EC1037D-1518-4D1A-8B06-2AA570753711";
paths = (
{
closed = 1;
nodes = (
"944 265 CURVE SMOOTH",
"944 152 OFFCURVE",
"831 34 OFFCURVE",
"618 34 CURVE SMOOTH",
"461 34 OFFCURVE",
"280 89 OFFCURVE",
"267 275 CURVE",
"213 275 LINE",
"213 116 OFFCURVE",
"356 -20 OFFCURVE",
"618 -20 CURVE SMOOTH",
"851 -20 OFFCURVE",
"998 97 OFFCURVE",
"998 264 CURVE",
"998 434 OFFCURVE",
"888 520 OFFCURVE",
"630 579 CURVE SMOOTH",
"349 643 OFFCURVE",
"302 720 OFFCURVE",
"302 831 CURVE",
"302 932 OFFCURVE",
"391 1048 OFFCURVE",
"610 1048 CURVE SMOOTH",
"824 1048 OFFCURVE",
"942 927 OFFCURVE",
"942 793 CURVE",
"997 793 LINE",
"997 977 OFFCURVE",
"852 1102 OFFCURVE",
"610 1102 CURVE SMOOTH",
"384 1102 OFFCURVE",
"248 980 OFFCURVE",
"248 829 CURVE",
"248 652 OFFCURVE",
"372 584 OFFCURVE",
"614 532 CURVE SMOOTH",
"881 474 OFFCURVE",
"944 363 OFFCURVE"
);
}
);
width = 1229;
}
);
leftKerningGroup = s;
rightKerningGroup = s;
unicode = 0073;
userData = {
com.typemytype.robofont.guides = (
{
angle = 0;
isGlobal = 0;
magnetic = 5;
x = 0;
y = 1658;
},
{
angle = 0;
isGlobal = 0;
magnetic = 5;
x = 0;
y = 555;
}
);
};
},
{
glyphname = t;
layers = (
{
anchors = (
{
name = bottom;
position = "{691, 0}";
},
{
name = bottom_dd;
position = "{926, -407}";
},
{
name = caron;
position = "{757, 1560}";
},
{
name = cross;
position = "{618, 659}";
},
{
name = marktop;
position = "{784, 1290}";
},
{
name = top;
position = "{544, 1540}";
},
{
name = top0315;
position = "{926, 1540}";
},
{
name = top_dd;
position = "{926, 1600}";
}
);
layerId = "9EC1037D-1518-4D1A-8B06-2AA570753711";
paths = (
{
closed = 1;
nodes = (
"961 1082 LINE",
"196 1082 LINE",
"196 1027 LINE",
"961 1027 LINE"
);
},
{
closed = 1;
nodes = (
"516 1324 LINE",
"516 282 LINE",
"516 54 OFFCURVE",
"640 -20 OFFCURVE",
"847 -20 CURVE SMOOTH",
"887 -20 OFFCURVE",
"968 -18 OFFCURVE",
"1010 -8 CURVE",
"1001 43 LINE",
"946 38 OFFCURVE",
"903 34 OFFCURVE",
"844 34 CURVE SMOOTH",
"696 34 OFFCURVE",
"570 78 OFFCURVE",
"570 282 CURVE",
"570 1324 LINE"
);
}
);
width = 1230;
}
);
leftKerningGroup = t;
rightKerningGroup = t;
unicode = 0074;
userData = {
com.typemytype.robofont.mark = (
0.7980,
1,
0.6000,
1
);
};
},
{
glyphname = u;
layers = (
{
anchors = (
{
name = bottom;
position = "{614, 0}";
},
{
name = bottom_dd;
position = "{1175, -407}";
},
{
name = bottomu;
position = "{568, 0}";
},
{
name = ogonek;
position = "{1005, 0}";
},
{
name = rhotichook;
position = "{978, 654}";
},
{
name = top;
position = "{634, 1293}";
},
{
name = top0315;
position = "{1175, 1293}";
},
{
name = top_dd;
position = "{1175, 1600}";
}
);
layerId = "9EC1037D-1518-4D1A-8B06-2AA570753711";
paths = (
{
closed = 1;
nodes = (
"951 250 LINE",
"951 0 LINE",
"1006 0 LINE",
"1006 1082 LINE",
"951 1082 LINE"
);
},
{
closed = 1;
nodes = (
"960 423 LINE",
"960 226 OFFCURVE",
"868 34 OFFCURVE",
"576 34 CURVE SMOOTH",
"403 34 OFFCURVE",
"276 128 OFFCURVE",
"276 393 CURVE",
"276 1082 LINE",
"222 1082 LINE",
"222 395 LINE",
"222 93 OFFCURVE",
"366 -20 OFFCURVE",
"578 -20 CURVE SMOOTH",
"876 -20 OFFCURVE",
"1006 169 OFFCURVE",
"1006 425 CURVE"
);
}
);
width = 1229;
}
);
unicode = 0075;
userData = {
com.typemytype.robofont.guides = (
{
angle = 0;
isGlobal = 0;
magnetic = 5;
x = 0;
y = 202;
},
{
angle = 0;
isGlobal = 0;
magnetic = 5;
x = 0;
y = 547;
}
);
};
},
{
glyphname = v;
layers = (
{
anchors = (
{
name = bottom;
position = "{615, 10}";
},
{
name = bottom_dd;
position = "{1104, -407}";
},
{
name = top;
position = "{620, 1280}";
},
{
name = top0315;
position = "{1104, 1280}";
},
{
name = top_dd;
position = "{1104, 1600}";
}
);
layerId = "9EC1037D-1518-4D1A-8B06-2AA570753711";
paths = (
{
closed = 1;
nodes = (
"607 64 LINE",
"591 0 LINE",
"642 0 LINE",
"1063 1082 LINE",
"1005 1082 LINE"
);
},
{
closed = 1;
nodes = (
"227 1082 LINE",
"169 1082 LINE",
"589 0 LINE",
"641 0 LINE",
"625 63 LINE"
);
}
);
width = 1230;
}
);
leftKerningGroup = v;
rightKerningGroup = v;
unicode = 0076;
userData = {
com.typemytype.robofont.guides = (
{
angle = 0;
isGlobal = 0;
magnetic = 5;
x = 0;
y = 901;
},
{
angle = 0;
isGlobal = 0;
magnetic = 5;
x = 0;
y = 555;
}
);
};
},
{
glyphname = w;
layers = (
{
anchors = (
{
name = bottom;
position = "{615, 10}";
},
{
name = bottom_dd;
position = "{1239, -407}";
},
{
name = marktop;
position = "{615, 1293}";
},
{
name = top;
position = "{615, 1293}";
},
{
name = top0315;
position = "{1239, 1293}";
},
{
name = top_dd;
position = "{1239, 1600}";
}
);
layerId = "9EC1037D-1518-4D1A-8B06-2AA570753711";
paths = (
{
closed = 1;
nodes = (
"405 313 LINE",
"330 0 LINE",
"381 0 LINE",
"584 813 LINE",
"645 1082 LINE",
"597 1082 LINE"
);
},
{
closed = 1;
nodes = (
"135 1082 LINE",
"77 1082 LINE",
"327 0 LINE",
"376 0 LINE",
"310 313 LINE"
);
},
{
closed = 1;
nodes = (
"938 313 LINE",
"872 0 LINE",
"921 0 LINE",
"1169 1082 LINE",
"1112 1082 LINE"
);
},
{
closed = 1;
nodes = (
"652 1082 LINE",
"604 1082 LINE",
"660 813 LINE",
"867 0 LINE",
"918 0 LINE",
"841 313 LINE"
);
}
);
width = 1230;
}
);
leftKerningGroup = w;
rightKerningGroup = w;
unicode = 0077;
userData = {
com.typemytype.robofont.mark = (
0.7980,
1,
0.6000,
1
);
};
},
{
glyphname = x;
layers = (
{
anchors = (
{
name = bottom;
position = "{640, 10}";
},
{
name = bottom_dd;
position = "{1104, -407}";
},
{
name = cross;
position = "{625, 553}";
},
{
name = right;
position = "{1016, 0}";
},
{
name = top;
position = "{633, 1280}";
},
{
name = top0315;
position = "{1104, 1280}";
},
{
name = top_dd;
position = "{1104, 1600}";
}
);
layerId = "9EC1037D-1518-4D1A-8B06-2AA570753711";
paths = (
{
closed = 1;
nodes = (
"269 1082 LINE",
"201 1082 LINE",
"581 555 LINE",
"181 0 LINE",
"248 0 LINE",
"614 508 LINE",
"981 0 LINE",
"1048 0 LINE",
"648 555 LINE",
"1028 1082 LINE",
"960 1082 LINE",
"615 602 LINE"
);
}
);
width = 1230;
}
);
leftKerningGroup = x;
rightKerningGroup = x;
unicode = 0078;
userData = {
com.typemytype.robofont.guides = (
{
angle = 0;
isGlobal = 0;
magnetic = 5;
x = 0;
y = 901;
},
{
angle = 0;
isGlobal = 0;
magnetic = 5;
x = 0;
y = 555;
},
{
angle = 90;
isGlobal = 0;
magnetic = 5;
x = 544;
y = 0;
}
);
};
},
{
glyphname = y;
layers = (
{
anchors = (
{
name = bottom;
position = "{843, -158}";
},
{
name = bottom_dd;
position = "{1104, -407}";
},
{
name = marktop;
position = "{645, 1293}";
},
{
name = rhotichook;
position = "{875, 654}";
},
{
name = top;
position = "{645, 1293}";
},
{
name = top0315;
position = "{1104, 1293}";
},
{
name = top_dd;
position = "{1104, 1600}";
}
);
layerId = "9EC1037D-1518-4D1A-8B06-2AA570753711";
paths = (
{
closed = 1;
nodes = (
"636 104 LINE",
"535 -170 LINE SMOOTH",
"489 -295 OFFCURVE",
"430 -384 OFFCURVE",
"296 -384 CURVE SMOOTH",
"283 -384 OFFCURVE",
"243 -380 OFFCURVE",
"223 -375 CURVE",
"224 -426 LINE",
"240 -433 OFFCURVE",
"282 -437 OFFCURVE",
"304 -437 CURVE SMOOTH",
"502 -437 OFFCURVE",
"554 -271 OFFCURVE",
"589 -180 CURVE SMOOTH",
"1070 1082 LINE",
"1010 1082 LINE"
);
},
{
closed = 1;
nodes = (
"228 1082 LINE",
"169 1082 LINE",
"611 -21 LINE",
"654 10 LINE",
"637 64 LINE"
);
}
);
width = 1230;
}
);
leftKerningGroup = y;
rightKerningGroup = y;
unicode = 0079;
userData = {
com.typemytype.robofont.mark = (
0.7980,
1,
0.6000,
1
);
};
},
{
glyphname = z;
layers = (
{
anchors = (
{
name = bottom;
position = "{665, 10}";
},
{
name = bottom_dd;
position = "{1104, -407}";
},
{
name = top;
position = "{636, 1293}";
},
{
name = top0315;
position = "{1104, 1293}";
},
{
name = top_dd;
position = "{1104, 1600}";
}
);
layerId = "9EC1037D-1518-4D1A-8B06-2AA570753711";
paths = (
{
closed = 1;
nodes = (
"1056 54 LINE",
"228 54 LINE",
"228 0 LINE",
"1056 0 LINE"
);
},
{
closed = 1;
nodes = (
"997 1034 LINE",
"997 1082 LINE",
"964 1082 LINE",
"213 44 LINE",
"213 0 LINE",
"247 0 LINE"
);
},
{
closed = 1;
nodes = (
"972 1082 LINE",
"244 1082 LINE",
"244 1027 LINE",
"972 1027 LINE"
);
}
);
width = 1230;
}
);
unicode = 007A;
},
{
export = 0;
glyphname = braceleft;
layers = (
{
layerId = "9EC1037D-1518-4D1A-8B06-2AA570753711";
paths = (
{
closed = 1;
nodes = (
"642 1597 LINE",
"398 1520 OFFCURVE",
"323 1342 OFFCURVE",
"323 1132 CURVE",
"323 885 LINE",
"323 717 OFFCURVE",
"250 609 OFFCURVE",
"73 609 CURVE",
"73 566 LINE",
"291 566 OFFCURVE",
"377 706 OFFCURVE",
"377 885 CURVE",
"377 1132 LINE",
"377 1331 OFFCURVE",
"460 1489 OFFCURVE",
"657 1552 CURVE"
);
},
{
closed = 1;
nodes = (
"662 -395 LINE",
"466 -329 OFFCURVE",
"377 -181 OFFCURVE",
"377 20 CURVE SMOOTH",
"377 265 LINE SMOOTH",
"377 444 OFFCURVE",
"291 586 OFFCURVE",
"73 586 CURVE",
"73 543 LINE",
"250 543 OFFCURVE",
"323 434 OFFCURVE",
"323 265 CURVE SMOOTH",
"323 20 LINE SMOOTH",
"323 -190 OFFCURVE",
"398 -364 OFFCURVE",
"642 -441 CURVE"
);
}
);
width = 660;
}
);
unicode = 007B;
},
{
export = 0;
glyphname = bar;
layers = (
{
layerId = "9EC1037D-1518-4D1A-8B06-2AA570753711";
paths = (
{
closed = 1;
nodes = (
"235 1456 LINE",
"181 1456 LINE",
"181 -270 LINE",
"235 -270 LINE"
);
}
);
width = 406;
}
);
unicode = 007C;
userData = {
com.typemytype.robofont.guides = (
{
angle = 0;
isGlobal = 0;
magnetic = 5;
x = 0;
y = 901;
},
{
angle = 0;
isGlobal = 0;
magnetic = 5;
x = 0;
y = 555;
}
);
};
},
{
export = 0;
glyphname = braceright;
layers = (
{
layerId = "9EC1037D-1518-4D1A-8B06-2AA570753711";
paths = (
{
closed = 1;
nodes = (
"5 1552 LINE",
"202 1489 OFFCURVE",
"284 1331 OFFCURVE",
"284 1132 CURVE SMOOTH",
"284 885 LINE SMOOTH",
"284 706 OFFCURVE",
"371 566 OFFCURVE",
"588 566 CURVE",
"588 609 LINE",
"412 609 OFFCURVE",
"338 717 OFFCURVE",
"338 885 CURVE SMOOTH",
"338 1132 LINE SMOOTH",
"338 1342 OFFCURVE",
"264 1520 OFFCURVE",
"19 1597 CURVE"
);
},
{
closed = 1;
nodes = (
"19 -441 LINE",
"264 -364 OFFCURVE",
"338 -190 OFFCURVE",
"338 20 CURVE SMOOTH",
"338 265 LINE SMOOTH",
"338 434 OFFCURVE",
"412 543 OFFCURVE",
"588 543 CURVE",
"588 586 LINE",
"371 586 OFFCURVE",
"284 444 OFFCURVE",
"284 265 CURVE SMOOTH",
"284 20 LINE SMOOTH",
"284 -181 OFFCURVE",
"195 -329 OFFCURVE",
"0 -395 CURVE"
);
}
);
width = 660;
}
);
unicode = 007D;
},
{
export = 0;
glyphname = asciitilde;
layers = (
{
layerId = "9EC1037D-1518-4D1A-8B06-2AA570753711";
paths = (
{
closed = 1;
nodes = (
"1190 753 LINE",
"1190 596 OFFCURVE",
"1116 496 OFFCURVE",
"977 496 CURVE SMOOTH",
"890 496 OFFCURVE",
"829 531 OFFCURVE",
"728 624 CURVE SMOOTH",
"623 717 OFFCURVE",
"549 774 OFFCURVE",
"428 774 CURVE SMOOTH",
"243 774 OFFCURVE",
"160 631 OFFCURVE",
"160 462 CURVE",
"215 462 LINE",
"215 632 OFFCURVE",
"295 720 OFFCURVE",
"428 720 CURVE SMOOTH",
"524 720 OFFCURVE",
"580 682 OFFCURVE",
"679 593 CURVE SMOOTH",
"787 496 OFFCURVE",
"857 443 OFFCURVE",
"977 443 CURVE SMOOTH",
"1158 443 OFFCURVE",
"1246 589 OFFCURVE",
"1246 752 CURVE"
);
}
);
width = 1412;
}
);
unicode = 007E;
},
{
export = 0;
glyphname = exclamdown;
layers = (
{
layerId = "9EC1037D-1518-4D1A-8B06-2AA570753711";
paths = (
{
closed = 1;
nodes = (
"179 -359 LINE",
"233 -359 LINE",
"233 696 LINE",
"179 696 LINE"
);
},
{
closed = 1;
nodes = (
"253 1048 CURVE SMOOTH",
"253 1079 OFFCURVE",
"229 1103 OFFCURVE",
"198 1103 CURVE SMOOTH",
"167 1103 OFFCURVE",
"142 1079 OFFCURVE",
"142 1048 CURVE SMOOTH",
"142 1017 OFFCURVE",
"167 992 OFFCURVE",
"198 992 CURVE SMOOTH",
"229 992 OFFCURVE",
"253 1017 OFFCURVE"
);
}
);
width = 406;
}
);
unicode = 00A1;
},
{
export = 0;
glyphname = cent;
layers = (
{
components = (
{
name = c;
transform = "{1, 0, 0, 1, 37, 0}";
}
);
layerId = "9EC1037D-1518-4D1A-8B06-2AA570753711";
paths = (
{
closed = 1;
nodes = (
"604 1318 LINE",
"549 1318 LINE",
"549 1070 LINE",
"604 1070 LINE"
);
},
{
closed = 1;
nodes = (
"604 2 LINE",
"549 2 LINE",
"549 -245 LINE",
"604 -245 LINE"
);
}
);
width = 1110;
}
);
unicode = 00A2;
},
{
export = 0;
glyphname = sterling;
layers = (
{
layerId = "9EC1037D-1518-4D1A-8B06-2AA570753711";
paths = (
{
closed = 1;
nodes = (
"1061 0 LINE",
"1060 54 LINE",
"99 54 LINE",
"99 0 LINE"
);
},
{
closed = 1;
nodes = (
"728 667 LINE",
"728 721 LINE",
"95 721 LINE",
"95 667 LINE"
);
},
{
closed = 1;
nodes = (
"349 1039 LINE",
"349 1287 OFFCURVE",
"469 1422 OFFCURVE",
"661 1422 CURVE SMOOTH",
"836 1422 OFFCURVE",
"981 1325 OFFCURVE",
"981 1089 CURVE",
"1035 1089 LINE",
"1035 1317 OFFCURVE",
"902 1476 OFFCURVE",
"661 1476 CURVE SMOOTH",
"439 1476 OFFCURVE",
"295 1315 OFFCURVE",
"295 1039 CURVE SMOOTH",
"316 336 LINE SMOOTH",
"319 216 OFFCURVE",
"291 75 OFFCURVE",
"219 54 CURVE",
"280 30 LINE",
"343 84 OFFCURVE",
"374 186 OFFCURVE",
"370 336 CURVE SMOOTH"
);
}
);
width = 1150;
}
);
unicode = 00A3;
userData = {
com.typemytype.robofont.mark = (
0.6000,
0.6090,
1,
1
);
};
},
{
export = 0;
glyphname = currency;
layers = (
{
layerId = "9EC1037D-1518-4D1A-8B06-2AA570753711";
paths = (
{
closed = 1;
nodes = (
"204 608 CURVE",
"204 925 OFFCURVE",
"449 1181 OFFCURVE",
"745 1181 CURVE SMOOTH",
"1040 1181 OFFCURVE",
"1285 925 OFFCURVE",
"1285 608 CURVE SMOOTH",
"1285 290 OFFCURVE",
"1040 33 OFFCURVE",
"745 33 CURVE SMOOTH",
"449 33 OFFCURVE",
"204 290 OFFCURVE"
);
},
{
closed = 1;
nodes = (
"149 608 CURVE",
"149 254 OFFCURVE",
"416 -20 OFFCURVE",
"745 -20 CURVE SMOOTH",
"1073 -20 OFFCURVE",
"1339 254 OFFCURVE",
"1339 608 CURVE SMOOTH",
"1339 963 OFFCURVE",
"1073 1234 OFFCURVE",
"745 1234 CURVE SMOOTH",
"416 1234 OFFCURVE",
"149 963 OFFCURVE"
);
},
{
closed = 1;
nodes = (
"1380 1225 LINE",
"1339 1265 LINE",
"1137 1059 LINE",
"1178 1019 LINE"
);
},
{
closed = 1;
nodes = (
"356 180 LINE",
"316 219 LINE",
"114 13 LINE",
"154 -26 LINE"
);
},
{
closed = 1;
nodes = (
"1339 -27 LINE",
"1380 13 LINE",
"1178 219 LINE",
"1137 179 LINE"
);
},
{
closed = 1;
nodes = (
"316 1019 LINE",
"356 1058 LINE",
"154 1264 LINE",
"114 1225 LINE"
);
}
);
width = 1502;
}
);
unicode = 00A4;
userData = {
com.typemytype.robofont.guides = (
{
angle = 0;
isGlobal = 0;
magnetic = 5;
x = 0;
y = 901;
},
{
angle = 0;
isGlobal = 0;
magnetic = 5;
x = 0;
y = 555;
}
);
};
},
{
export = 0;
glyphname = yen;
layers = (
{
layerId = "9EC1037D-1518-4D1A-8B06-2AA570753711";
paths = (
{
closed = 1;
nodes = (
"935 676 LINE",
"99 676 LINE",
"99 621 LINE",
"935 621 LINE"
);
},
{
closed = 1;
nodes = (
"935 381 LINE",
"99 381 LINE",
"99 326 LINE",
"935 326 LINE"
);
},
{
closed = 1;
nodes = (
"547 738 LINE",
"492 629 LINE",
"542 629 LINE",
"1000 1456 LINE",
"938 1456 LINE"
);
},
{
closed = 1;
nodes = (
"95 1456 LINE",
"33 1456 LINE",
"490 629 LINE",
"541 629 LINE",
"487 738 LINE"
);
},
{
closed = 1;
nodes = (
"543 687 LINE",
"489 687 LINE",
"489 0 LINE",
"543 0 LINE"
);
}
);
width = 1038;
}
);
unicode = 00A5;
userData = {
com.typemytype.robofont.mark = (
0.7980,
1,
0.6000,
1
);
};
},
{
export = 0;
glyphname = brokenbar;
layers = (
{
layerId = "9EC1037D-1518-4D1A-8B06-2AA570753711";
paths = (
{
closed = 1;
nodes = (
"226 -270 LINE",
"226 482 LINE",
"172 482 LINE",
"172 -270 LINE"
);
},
{
closed = 1;
nodes = (
"226 1456 LINE",
"172 1456 LINE",
"172 698 LINE",
"226 698 LINE"
);
}
);
width = 398;
}
);
unicode = 00A6;
userData = {
com.typemytype.robofont.guides = (
{
angle = 0;
isGlobal = 0;
magnetic = 5;
x = 0;
y = 901;
},
{
angle = 0;
isGlobal = 0;
magnetic = 5;
x = 0;
y = 555;
}
);
};
},
{
export = 0;
glyphname = section;
layers = (
{
layerId = "9EC1037D-1518-4D1A-8B06-2AA570753711";
paths = (
{
closed = 1;
nodes = (
"685 157 LINE",
"933 157 OFFCURVE",
"1094 267 OFFCURVE",
"1094 431 CURVE",
"1094 656 OFFCURVE",
"914 729 OFFCURVE",
"616 804 CURVE SMOOTH",
"296 896 OFFCURVE",
"220 968 OFFCURVE",
"220 1132 CURVE",
"220 1292 OFFCURVE",
"343 1422 OFFCURVE",
"618 1422 CURVE SMOOTH",
"877 1422 OFFCURVE",
"1018 1253 OFFCURVE",
"1018 1045 CURVE",
"1072 1045 LINE",
"1072 1323 OFFCURVE",
"901 1476 OFFCURVE",
"618 1476 CURVE SMOOTH",
"343 1476 OFFCURVE",
"166 1339 OFFCURVE",
"166 1129 CURVE",
"166 916 OFFCURVE",
"324 833 OFFCURVE",
"590 766 CURVE SMOOTH",
"935 671 OFFCURVE",
"1040 593 OFFCURVE",
"1040 428 CURVE",
"1040 301 OFFCURVE",
"912 196 OFFCURVE",
"685 196 CURVE"
);
},
{
closed = 1;
nodes = (
"512 830 LINE",
"273 830 OFFCURVE",
"121 723 OFFCURVE",
"121 551 CURVE SMOOTH",
"121 325 OFFCURVE",
"315 236 OFFCURVE",
"607 166 CURVE",
"920 84 OFFCURVE",
"995 2 OFFCURVE",
"995 -151 CURVE SMOOTH",
"995 -319 OFFCURVE",
"853 -441 OFFCURVE",
"600 -441 CURVE SMOOTH",
"400 -441 OFFCURVE",
"169 -353 OFFCURVE",
"169 -62 CURVE",
"115 -64 LINE",
"115 -388 OFFCURVE",
"361 -495 OFFCURVE",
"600 -495 CURVE SMOOTH",
"872 -495 OFFCURVE",
"1050 -367 OFFCURVE",
"1050 -149 CURVE SMOOTH",
"1050 65 OFFCURVE",
"895 144 OFFCURVE",
"624 215 CURVE SMOOTH",
"263 317 OFFCURVE",
"175 379 OFFCURVE",
"175 553 CURVE SMOOTH",
"175 689 OFFCURVE",
"280 797 OFFCURVE",
"512 797 CURVE"
);
}
);
width = 1223;
}
);
unicode = 00A7;
userData = {
com.typemytype.robofont.guides = (
{
angle = 0;
isGlobal = 0;
magnetic = 5;
x = 0;
y = 1658;
},
{
angle = 0;
isGlobal = 0;
magnetic = 5;
x = 0;
y = 578;
}
);
};
},
{
export = 0;
glyphname = dieresis;
layers = (
{
anchors = (
{
name = _top;
position = "{450, 1293}";
},
{
name = mkmktop_acc;
position = "{451, 1540}";
}
);
layerId = "9EC1037D-1518-4D1A-8B06-2AA570753711";
paths = (
{
closed = 1;
nodes = (
"174 1421 CURVE SMOOTH",
"174 1390 OFFCURVE",
"198 1366 OFFCURVE",
"229 1366 CURVE SMOOTH",
"260 1366 OFFCURVE",
"285 1390 OFFCURVE",
"285 1421 CURVE SMOOTH",
"285 1452 OFFCURVE",
"260 1477 OFFCURVE",
"229 1477 CURVE SMOOTH",
"198 1477 OFFCURVE",
"174 1452 OFFCURVE"
);
},
{
closed = 1;
nodes = (
"619 1421 CURVE SMOOTH",
"619 1390 OFFCURVE",
"643 1366 OFFCURVE",
"674 1366 CURVE SMOOTH",
"705 1366 OFFCURVE",
"730 1390 OFFCURVE",
"730 1421 CURVE SMOOTH",
"730 1452 OFFCURVE",
"705 1477 OFFCURVE",
"674 1477 CURVE SMOOTH",
"643 1477 OFFCURVE",
"619 1452 OFFCURVE"
);
}
);
width = 906;
}
);
unicode = 00A8;
userData = {
com.typemytype.robofont.mark = (
0.7980,
1,
0.6000,
1
);
};
},
{
export = 0;
glyphname = copyright;
layers = (
{
layerId = "9EC1037D-1518-4D1A-8B06-2AA570753711";
paths = (
{
closed = 1;
nodes = (
"1072 616 LINE",
"1072 437 OFFCURVE",
"984 357 OFFCURVE",
"826 357 CURVE SMOOTH",
"657 357 OFFCURVE",
"561 502 OFFCURVE",
"561 689 CURVE SMOOTH",
"561 769 LINE SMOOTH",
"561 954 OFFCURVE",
"657 1102 OFFCURVE",
"826 1102 CURVE SMOOTH",
"984 1102 OFFCURVE",
"1073 1016 OFFCURVE",
"1073 842 CURVE",
"1125 842 LINE",
"1125 1051 OFFCURVE",
"1007 1155 OFFCURVE",
"826 1155 CURVE SMOOTH",
"635 1155 OFFCURVE",
"506 997 OFFCURVE",
"506 768 CURVE",
"506 689 LINE",
"506 459 OFFCURVE",
"635 302 OFFCURVE",
"826 302 CURVE SMOOTH",
"1007 302 OFFCURVE",
"1124 406 OFFCURVE",
"1124 616 CURVE"
);
},
{
closed = 1;
nodes = (
"179 729 CURVE",
"179 1117 OFFCURVE",
"474 1421 OFFCURVE",
"833 1421 CURVE SMOOTH",
"1191 1421 OFFCURVE",
"1487 1117 OFFCURVE",
"1487 729 CURVE SMOOTH",
"1487 341 OFFCURVE",
"1191 34 OFFCURVE",
"833 34 CURVE SMOOTH",
"474 34 OFFCURVE",
"179 341 OFFCURVE"
);
},
{
closed = 1;
nodes = (
"123 729 CURVE",
"123 306 OFFCURVE",
"442 -21 OFFCURVE",
"833 -21 CURVE SMOOTH",
"1225 -21 OFFCURVE",
"1543 306 OFFCURVE",
"1543 729 CURVE SMOOTH",
"1543 1152 OFFCURVE",
"1225 1476 OFFCURVE",
"833 1476 CURVE SMOOTH",
"442 1476 OFFCURVE",
"123 1152 OFFCURVE"
);
}
);
width = 1666;
}
);
unicode = 00A9;
userData = {
com.typemytype.robofont.guides = (
{
angle = 0;
isGlobal = 0;
magnetic = 5;
x = 0;
y = 901;
},
{
angle = 0;
isGlobal = 0;
magnetic = 5;
x = 0;
y = 555;
}
);
};
},
{
export = 0;
glyphname = ordfeminine;
layers = (
{
layerId = "9EC1037D-1518-4D1A-8B06-2AA570753711";
paths = (
{
closed = 1;
nodes = (
"657 861 LINE",
"657 806 OFFCURVE",
"665 752 OFFCURVE",
"680 705 CURVE",
"738 705 LINE",
"721 763 OFFCURVE",
"712 821 OFFCURVE",
"712 886 CURVE SMOOTH",
"712 1200 LINE",
"712 1383 OFFCURVE",
"607 1476 OFFCURVE",
"458 1476 CURVE SMOOTH",
"283 1476 OFFCURVE",
"167 1378 OFFCURVE",
"167 1243 CURVE",
"221 1243 LINE",
"221 1364 OFFCURVE",
"313 1422 OFFCURVE",
"458 1422 CURVE SMOOTH",
"590 1422 OFFCURVE",
"657 1339 OFFCURVE",
"657 1201 CURVE"
);
},
{
closed = 1;
nodes = (
"674 1132 LINE",
"487 1132 LINE",
"285 1132 OFFCURVE",
"168 1045 OFFCURVE",
"168 900 CURVE SMOOTH",
"168 774 OFFCURVE",
"256 691 OFFCURVE",
"417 691 CURVE SMOOTH",
"553 691 OFFCURVE",
"656 792 OFFCURVE",
"685 877 CURVE",
"662 928 LINE",
"662 850 OFFCURVE",
"536 746 OFFCURVE",
"418 746 CURVE SMOOTH",
"278 746 OFFCURVE",
"222 810 OFFCURVE",
"222 904 CURVE SMOOTH",
"222 1024 OFFCURVE",
"319 1078 OFFCURVE",
"488 1078 CURVE",
"675 1078 LINE"
);
}
);
width = 898;
}
);
unicode = 00AA;
userData = {
com.typemytype.robofont.guides = (
{
angle = 0;
isGlobal = 0;
magnetic = 5;
x = 0;
y = 1681;
},
{
angle = 0;
isGlobal = 0;
magnetic = 5;
x = 0;
y = 909;
}
);
};
},
{
export = 0;
glyphname = logicalnot;
layers = (
{
layerId = "9EC1037D-1518-4D1A-8B06-2AA570753711";
paths = (
{
closed = 1;
nodes = (
"915 753 LINE",
"122 753 LINE",
"122 700 LINE",
"915 700 LINE"
);
},
{
closed = 1;
nodes = (
"915 706 LINE",
"861 706 LINE",
"861 396 LINE",
"915 396 LINE"
);
}
);
width = 1101;
}
);
unicode = 00AC;
},
{
export = 0;
glyphname = registered;
layers = (
{
layerId = "9EC1037D-1518-4D1A-8B06-2AA570753711";
paths = (
{
closed = 1;
nodes = (
"870 678 LINE",
"909 678 OFFCURVE",
"890 678 OFFCURVE",
"925 699 CURVE SMOOTH",
"929 699 OFFCURVE",
"934 699 OFFCURVE",
"938 700 CURVE SMOOTH",
"1052 736 OFFCURVE",
"1121 807 OFFCURVE",
"1121 916 CURVE",
"1121 1074 OFFCURVE",
"1024 1156 OFFCURVE",
"832 1156 CURVE",
"593 1156 LINE",
"593 326 LINE",
"648 326 LINE",
"648 1101 LINE",
"832 1101 LINE",
"1009 1101 OFFCURVE",
"1066 1042 OFFCURVE",
"1066 917 CURVE",
"1066 797 OFFCURVE",
"969 734 OFFCURVE",
"853 734 CURVE",
"612 734 LINE",
"614 678 LINE"
);
},
{
closed = 1;
nodes = (
"860 678 LINE",
"995 678 OFFCURVE",
"1044 629 OFFCURVE",
"1044 504 CURVE",
"1044 470 LINE",
"1044 441 OFFCURVE",
"1044 360 OFFCURVE",
"1058 326 CURVE",
"1117 326 LINE",
"1117 342 LINE",
"1106 372 OFFCURVE",
"1100 419 OFFCURVE",
"1100 469 CURVE",
"1100 505 LINE",
"1100 624 OFFCURVE",
"1048 723 OFFCURVE",
"871 723 CURVE"
);
},
{
closed = 1;
nodes = (
"170 729 CURVE SMOOTH",
"170 1117 OFFCURVE",
"466 1421 OFFCURVE",
"825 1421 CURVE SMOOTH",
"1183 1421 OFFCURVE",
"1479 1117 OFFCURVE",
"1479 729 CURVE SMOOTH",
"1479 341 OFFCURVE",
"1183 34 OFFCURVE",
"825 34 CURVE SMOOTH",
"466 34 OFFCURVE",
"170 341 OFFCURVE"
);
},
{
closed = 1;
nodes = (
"115 729 CURVE SMOOTH",
"115 306 OFFCURVE",
"433 -21 OFFCURVE",
"825 -21 CURVE SMOOTH",
"1217 -21 OFFCURVE",
"1535 306 OFFCURVE",
"1535 729 CURVE SMOOTH",
"1535 1152 OFFCURVE",
"1217 1476 OFFCURVE",
"825 1476 CURVE SMOOTH",
"433 1476 OFFCURVE",
"115 1152 OFFCURVE"
);
}
);
width = 1674;
}
);
unicode = 00AE;
},
{
export = 0;
glyphname = macron;
layers = (
{
anchors = (
{
name = _top;
position = "{413, 1282}";
},
{
name = mkmktop_acc;
position = "{413, 1540}";
}
);
layerId = "9EC1037D-1518-4D1A-8B06-2AA570753711";
paths = (
{
closed = 1;
nodes = (
"699 1436 LINE",
"132 1436 LINE",
"132 1383 LINE",
"699 1383 LINE"
);
}
);
width = 811;
}
);
unicode = 00AF;
userData = {
com.typemytype.robofont.mark = (
0.7980,
1,
0.6000,
1
);
};
},
{
export = 0;
glyphname = degree;
layers = (
{
layerId = "9EC1037D-1518-4D1A-8B06-2AA570753711";
paths = (
{
closed = 1;
nodes = (
"156 1236 CURVE",
"156 1103 OFFCURVE",
"262 999 OFFCURVE",
"392 999 CURVE SMOOTH",
"519 999 OFFCURVE",
"624 1103 OFFCURVE",
"624 1236 CURVE SMOOTH",
"624 1367 OFFCURVE",
"519 1476 OFFCURVE",
"392 1476 CURVE SMOOTH",
"262 1476 OFFCURVE",
"156 1367 OFFCURVE"
);
},
{
closed = 1;
nodes = (
"211 1236 CURVE",
"211 1343 OFFCURVE",
"289 1421 OFFCURVE",
"392 1421 CURVE SMOOTH",
"494 1421 OFFCURVE",
"568 1343 OFFCURVE",
"568 1236 CURVE SMOOTH",
"568 1131 OFFCURVE",
"494 1055 OFFCURVE",
"392 1055 CURVE SMOOTH",
"289 1055 OFFCURVE",
"211 1131 OFFCURVE"
);
}
);
width = 783;
}
);
unicode = 00B0;
},
{
export = 0;
glyphname = plusminus;
layers = (
{
components = (
{
name = minus;
transform = "{1, 0, 0, 1, -41, -722}";
}
);
layerId = "9EC1037D-1518-4D1A-8B06-2AA570753711";
paths = (
{
closed = 1;
nodes = (
"988 805 LINE",
"72 805 LINE",
"72 751 LINE",
"988 751 LINE"
);
},
{
closed = 1;
nodes = (
"569 1267 LINE",
"515 1267 LINE",
"515 289 LINE",
"569 289 LINE"
);
}
);
width = 1077;
}
);
unicode = 00B1;
},
{
export = 0;
glyphname = acute;
layers = (
{
anchors = (
{
name = _top;
position = "{166, 1293}";
},
{
name = mkmktop_acc;
position = "{166, 1543}";
}
);
layerId = "9EC1037D-1518-4D1A-8B06-2AA570753711";
paths = (
{
closed = 1;
nodes = (
"126 1270 LINE",
"186 1270 LINE",
"381 1536 LINE",
"315 1536 LINE"
);
}
);
width = 511;
}
);
unicode = 00B4;
userData = {
com.typemytype.robofont.mark = (
0.7980,
1,
0.6000,
1
);
};
},
{
export = 0;
glyphname = mu;
layers = (
{
layerId = "9EC1037D-1518-4D1A-8B06-2AA570753711";
paths = (
{
closed = 1;
nodes = (
"899 1082 LINE",
"899 250 LINE",
"902 0 LINE",
"953 0 LINE",
"953 1082 LINE"
);
},
{
closed = 1;
nodes = (
"902 503 LINE",
"902 242 OFFCURVE",
"837 34 OFFCURVE",
"529 34 CURVE SMOOTH",
"372 34 OFFCURVE",
"223 118 OFFCURVE",
"223 440 CURVE",
"184 440 LINE",
"174 372 LINE",
"199 70 OFFCURVE",
"368 -20 OFFCURVE",
"538 -20 CURVE SMOOTH",
"836 -20 OFFCURVE",
"953 202 OFFCURVE",
"953 505 CURVE"
);
},
{
closed = 1;
nodes = (
"171 1082 LINE",
"171 -416 LINE",
"223 -416 LINE",
"223 1082 LINE"
);
}
);
width = 1121;
}
);
unicode = 00B5;
userData = {
com.typemytype.robofont.guides = (
{
angle = 0;
isGlobal = 0;
magnetic = 5;
x = 0;
y = 202;
},
{
angle = 0;
isGlobal = 0;
magnetic = 5;
x = 0;
y = 547;
}
);
};
},
{
export = 0;
glyphname = paragraph;
layers = (
{
layerId = "9EC1037D-1518-4D1A-8B06-2AA570753711";
paths = (
{
closed = 1;
nodes = (
"770 0 LINE",
"770 1456 LINE",
"591 1456 LINE SMOOTH",
"272 1456 OFFCURVE",
"99 1256 OFFCURVE",
"99 988 CURVE SMOOTH",
"99 718 OFFCURVE",
"272 520 OFFCURVE",
"591 520 CURVE SMOOTH",
"716 520 LINE",
"716 0 LINE"
);
}
);
width = 946;
}
);
unicode = 00B6;
userData = {
com.typemytype.robofont.guides = (
{
angle = 0;
isGlobal = 0;
magnetic = 5;
x = 0;
y = 901;
},
{
angle = 0;
isGlobal = 0;
magnetic = 5;
x = 0;
y = 555;
}
);
com.typemytype.robofont.mark = (
0.6000,
0.6090,
1,
1
);
};
},
{
export = 0;
glyphname = periodcentered;
layers = (
{
layerId = "9EC1037D-1518-4D1A-8B06-2AA570753711";
paths = (
{
closed = 1;
nodes = (
"179 706 CURVE SMOOTH",
"179 675 OFFCURVE",
"203 651 OFFCURVE",
"234 651 CURVE SMOOTH",
"265 651 OFFCURVE",
"290 675 OFFCURVE",
"290 706 CURVE SMOOTH",
"290 737 OFFCURVE",
"265 762 OFFCURVE",
"234 762 CURVE SMOOTH",
"203 762 OFFCURVE",
"179 737 OFFCURVE"
);
}
);
width = 472;
}
);
unicode = 00B7;
userData = {
com.typemytype.robofont.guides = (
{
angle = 0;
isGlobal = 0;
magnetic = 5;
x = 0;
y = 901;
},
{
angle = 0;
isGlobal = 0;
magnetic = 5;
x = 0;
y = 555;
}
);
};
},
{
export = 0;
glyphname = cedilla;
layers = (
{
anchors = (
{
name = _bottom;
position = "{179, 0}";
},
{
name = mkmkbottom_acc;
position = "{179, -435}";
}
);
layerId = "9EC1037D-1518-4D1A-8B06-2AA570753711";
paths = (
{
closed = 1;
nodes = (
"154 0 LINE",
"129 -121 LINE",
"253 -134 OFFCURVE",
"318 -157 OFFCURVE",
"318 -245 CURVE SMOOTH",
"318 -344 OFFCURVE",
"188 -386 OFFCURVE",
"81 -386 CURVE",
"88 -435 LINE",
"264 -435 OFFCURVE",
"373 -359 OFFCURVE",
"373 -245 CURVE SMOOTH",
"373 -124 OFFCURVE",
"285 -85 OFFCURVE",
"196 -76 CURVE",
"207 0 LINE"
);
}
);
width = 490;
}
);
unicode = 00B8;
},
{
export = 0;
glyphname = ordmasculine;
layers = (
{
layerId = "9EC1037D-1518-4D1A-8B06-2AA570753711";
paths = (
{
closed = 1;
nodes = (
"148 1024 LINE",
"148 829 OFFCURVE",
"264 690 OFFCURVE",
"454 690 CURVE SMOOTH",
"642 690 OFFCURVE",
"757 829 OFFCURVE",
"757 1024 CURVE",
"757 1141 LINE",
"757 1336 OFFCURVE",
"642 1476 OFFCURVE",
"452 1476 CURVE SMOOTH",
"264 1476 OFFCURVE",
"148 1336 OFFCURVE",
"148 1141 CURVE"
);
},
{
closed = 1;
nodes = (
"202 1141 LINE",
"202 1295 OFFCURVE",
"284 1422 OFFCURVE",
"452 1422 CURVE SMOOTH",
"622 1422 OFFCURVE",
"704 1295 OFFCURVE",
"704 1141 CURVE",
"704 1024 LINE",
"704 869 OFFCURVE",
"622 744 OFFCURVE",
"454 744 CURVE SMOOTH",
"278 744 OFFCURVE",
"202 869 OFFCURVE",
"202 1024 CURVE"
);
}
);
width = 914;
}
);
unicode = 00BA;
userData = {
com.typemytype.robofont.guides = (
{
angle = 0;
isGlobal = 0;
magnetic = 5;
x = 0;
y = 1975;
}
);
};
},
{
export = 0;
glyphname = questiondown;
layers = (
{
layerId = "9EC1037D-1518-4D1A-8B06-2AA570753711";
paths = (
{
closed = 1;
nodes = (
"460 695 LINE",
"460 580 OFFCURVE",
"460 522 OFFCURVE",
"361 445 CURVE SMOOTH",
"211 310 OFFCURVE",
"108 188 OFFCURVE",
"108 -15 CURVE SMOOTH",
"108 -232 OFFCURVE",
"238 -381 OFFCURVE",
"461 -381 CURVE SMOOTH",
"657 -381 OFFCURVE",
"813 -263 OFFCURVE",
"816 -21 CURVE",
"762 -21 LINE",
"758 -201 OFFCURVE",
"654 -328 OFFCURVE",
"461 -328 CURVE SMOOTH",
"268 -328 OFFCURVE",
"162 -211 OFFCURVE",
"162 -17 CURVE SMOOTH",
"162 193 OFFCURVE",
"267 286 OFFCURVE",
"389 403 CURVE SMOOTH",
"507 511 OFFCURVE",
"512 547 OFFCURVE",
"514 695 CURVE"
);
},
{
closed = 1;
nodes = (
"538 1046 CURVE SMOOTH",
"538 1077 OFFCURVE",
"514 1101 OFFCURVE",
"483 1101 CURVE SMOOTH",
"452 1101 OFFCURVE",
"427 1077 OFFCURVE",
"427 1046 CURVE SMOOTH",
"427 1015 OFFCURVE",
"452 990 OFFCURVE",
"483 990 CURVE SMOOTH",
"514 990 OFFCURVE",
"538 1015 OFFCURVE"
);
}
);
width = 912;
}
);
unicode = 00BF;
userData = {
com.typemytype.robofont.guides = (
{
angle = 0;
isGlobal = 0;
magnetic = 5;
x = 0;
y = -181;
},
{
angle = 0;
isGlobal = 0;
magnetic = 5;
x = 0;
y = 921;
}
);
};
},
{
export = 0;
glyphname = AE;
layers = (
{
anchors = (
{
name = top;
position = "{971, 1612}";
},
{
name = top0315;
position = "{1816, 1612}";
},
{
name = top_dd;
position = "{1816, 1600}";
}
);
layerId = "9EC1037D-1518-4D1A-8B06-2AA570753711";
paths = (
{
closed = 1;
nodes = (
"963 1408 LINE",
"980 1456 LINE",
"931 1456 LINE",
"50 0 LINE",
"115 0 LINE"
);
},
{
closed = 1;
nodes = (
"1003 478 LINE",
"354 478 LINE",
"354 425 LINE",
"1003 425 LINE"
);
},
{
closed = 1;
nodes = (
"1768 54 LINE",
"1035 54 LINE",
"1035 0 LINE",
"1768 0 LINE"
);
},
{
closed = 1;
nodes = (
"1009 1456 LINE",
"955 1456 LINE",
"1016 0 LINE",
"1070 0 LINE"
);
},
{
closed = 1;
nodes = (
"1625 786 LINE",
"995 786 LINE",
"995 732 LINE",
"1625 732 LINE"
);
},
{
closed = 1;
nodes = (
"1707 1456 LINE",
"974 1456 LINE",
"974 1402 LINE",
"1707 1402 LINE"
);
}
);
width = 1816;
}
);
unicode = 00C6;
},
{
export = 0;
glyphname = multiply;
layers = (
{
layerId = "9EC1037D-1518-4D1A-8B06-2AA570753711";
paths = (
{
closed = 1;
nodes = (
"137 -1 LINE",
"916 793 LINE",
"877 832 LINE",
"98 36 LINE"
);
},
{
closed = 1;
nodes = (
"905 -1 LINE",
"944 36 LINE",
"164 832 LINE",
"125 793 LINE"
);
}
);
width = 1052;
}
);
unicode = 00D7;
},
{
export = 0;
glyphname = Oslash;
layers = (
{
anchors = (
{
name = top;
position = "{712, 1674}";
},
{
name = top0315;
position = "{1364, 1674}";
},
{
name = top_dd;
position = "{1364, 1600}";
}
);
components = (
{
name = O;
}
);
layerId = "9EC1037D-1518-4D1A-8B06-2AA570753711";
paths = (
{
closed = 1;
nodes = (
"1240 1495 LINE",
"1174 1495 LINE",
"177 -75 LINE",
"243 -75 LINE"
);
}
);
width = 1364;
}
);
unicode = 00D8;
},
{
export = 0;
glyphname = Thorn;
layers = (
{
layerId = "9EC1037D-1518-4D1A-8B06-2AA570753711";
paths = (
{
closed = 1;
nodes = (
"200 1456 LINE",
"200 0 LINE",
"254 0 LINE",
"254 1456 LINE"
);
},
{
closed = 1;
nodes = (
"218 1143 LINE",
"232 1089 LINE",
"625 1089 LINE SMOOTH",
"906 1089 OFFCURVE",
"1021 909 OFFCURVE",
"1021 736 CURVE SMOOTH",
"1021 571 OFFCURVE",
"906 388 OFFCURVE",
"625 388 CURVE SMOOTH",
"213 388 LINE",
"213 334 LINE",
"625 334 LINE SMOOTH",
"916 334 OFFCURVE",
"1075 505 OFFCURVE",
"1075 738 CURVE SMOOTH",
"1075 970 OFFCURVE",
"916 1143 OFFCURVE",
"625 1143 CURVE SMOOTH"
);
}
);
width = 1219;
}
);
unicode = 00DE;
userData = {
com.typemytype.robofont.guides = (
{
angle = 0;
isGlobal = 0;
magnetic = 5;
x = 0;
y = 901;
},
{
angle = 0;
isGlobal = 0;
magnetic = 5;
x = 0;
y = 555;
}
);
};
},
{
export = 0;
glyphname = germandbls;
layers = (
{
layerId = "9EC1037D-1518-4D1A-8B06-2AA570753711";
paths = (
{
closed = 1;
nodes = (
"241 1083 LINE",
"241 1314 OFFCURVE",
"354 1401 OFFCURVE",
"526 1401 CURVE SMOOTH",
"648 1401 OFFCURVE",
"773 1313 OFFCURVE",
"773 1199 CURVE SMOOTH",
"773 1037 OFFCURVE",
"654 997 OFFCURVE",
"654 811 CURVE SMOOTH",
"654 574 OFFCURVE",
"1031 527 OFFCURVE",
"1031 306 CURVE SMOOTH",
"1031 159 OFFCURVE",
"898 32 OFFCURVE",
"710 32 CURVE SMOOTH",
"604 32 OFFCURVE",
"484 75 OFFCURVE",
"431 117 CURVE",
"406 68 LINE",
"460 20 OFFCURVE",
"602 -21 OFFCURVE",
"718 -21 CURVE SMOOTH",
"882 -21 OFFCURVE",
"1085 95 OFFCURVE",
"1085 297 CURVE SMOOTH",
"1085 559 OFFCURVE",
"708 609 OFFCURVE",
"708 809 CURVE SMOOTH",
"708 998 OFFCURVE",
"827 1026 OFFCURVE",
"827 1197 CURVE SMOOTH",
"827 1353 OFFCURVE",
"674 1455 OFFCURVE",
"516 1455 CURVE SMOOTH",
"304 1455 OFFCURVE",
"187 1323 OFFCURVE",
"187 1083 CURVE SMOOTH",
"187 0 LINE",
"241 0 LINE"
);
}
);
width = 1229;
}
);
unicode = 00DF;
},
{
export = 0;
glyphname = ae;
layers = (
{
anchors = (
{
name = top;
position = "{859, 1291}";
},
{
name = top0315;
position = "{1735, 1291}";
},
{
name = top_dd;
position = "{1735, 1600}";
}
);
layerId = "9EC1037D-1518-4D1A-8B06-2AA570753711";
paths = (
{
closed = 1;
nodes = (
"813 183 LINE",
"868 218 LINE",
"868 718 LINE",
"868 973 OFFCURVE",
"732 1102 OFFCURVE",
"521 1102 CURVE SMOOTH",
"276 1102 OFFCURVE",
"121 965 OFFCURVE",
"121 778 CURVE",
"174 771 LINE",
"174 929 OFFCURVE",
"300 1048 OFFCURVE",
"521 1048 CURVE SMOOTH",
"719 1048 OFFCURVE",
"813 928 OFFCURVE",
"813 720 CURVE"
);
},
{
closed = 1;
nodes = (
"838 630 LINE",
"523 630 LINE",
"241 630 OFFCURVE",
"93 489 OFFCURVE",
"93 284 CURVE SMOOTH",
"93 100 OFFCURVE",
"220 -20 OFFCURVE",
"448 -20 CURVE SMOOTH",
"681 -20 OFFCURVE",
"820 111 OFFCURVE",
"869 218 CURVE",
"814 229 LINE",
"794 158 OFFCURVE",
"640 32 OFFCURVE",
"447 32 CURVE SMOOTH",
"254 32 OFFCURVE",
"148 126 OFFCURVE",
"148 280 CURVE SMOOTH",
"148 438 OFFCURVE",
"266 575 OFFCURVE",
"525 575 CURVE",
"838 575 LINE"
);
},
{
closed = 1;
nodes = (
"1268 -20 CURVE",
"1460 -20 OFFCURVE",
"1559 50 OFFCURVE",
"1630 122 CURVE",
"1600 164 LINE",
"1523 86 OFFCURVE",
"1410 34 OFFCURVE",
"1268 34 CURVE SMOOTH",
"989 34 OFFCURVE",
"870 241 OFFCURVE",
"870 500 CURVE SMOOTH",
"870 564 LINE SMOOTH",
"870 832 OFFCURVE",
"1015 1048 OFFCURVE",
"1253 1048 CURVE",
"1484 1048 OFFCURVE",
"1603 880 OFFCURVE",
"1603 664 CURVE",
"1603 632 LINE",
"850 632 LINE",
"850 577 LINE",
"1657 577 LINE",
"1657 660 LINE SMOOTH",
"1657 934 OFFCURVE",
"1505 1102 OFFCURVE",
"1253 1102 CURVE SMOOTH",
"1003 1102 OFFCURVE",
"815 880 OFFCURVE",
"815 564 CURVE SMOOTH",
"815 500 LINE SMOOTH",
"815 198 OFFCURVE",
"976 -20 OFFCURVE"
);
}
);
width = 1735;
}
);
unicode = 00E6;
},
{
export = 0;
glyphname = eth;
layers = (
{
layerId = "9EC1037D-1518-4D1A-8B06-2AA570753711";
paths = (
{
closed = 1;
nodes = (
"338 1527 LINE",
"705 1390 OFFCURVE",
"987 1167 OFFCURVE",
"987 617 CURVE SMOOTH",
"987 535 LINE SMOOTH",
"987 246 OFFCURVE",
"850 38 OFFCURVE",
"633 38 CURVE SMOOTH",
"372 38 OFFCURVE",
"228 251 OFFCURVE",
"228 465 CURVE",
"228 705 OFFCURVE",
"339 895 OFFCURVE",
"601 895 CURVE",
"882 895 OFFCURVE",
"1008 699 OFFCURVE",
"1008 574 CURVE",
"1039 583 LINE",
"1039 819 OFFCURVE",
"824 953 OFFCURVE",
"601 953 CURVE",
"333 953 OFFCURVE",
"173 775 OFFCURVE",
"173 465 CURVE",
"173 194 OFFCURVE",
"361 -20 OFFCURVE",
"629 -20 CURVE SMOOTH",
"869 -20 OFFCURVE",
"1041 206 OFFCURVE",
"1041 535 CURVE",
"1041 615 LINE",
"1041 1128 OFFCURVE",
"816 1409 OFFCURVE",
"358 1577 CURVE"
);
},
{
closed = 1;
nodes = (
"991 1413 LINE",
"962 1461 LINE",
"489 1197 LINE",
"517 1149 LINE"
);
}
);
width = 1183;
}
);
unicode = 00F0;
},
{
export = 0;
glyphname = divide;
layers = (
{
layerId = "9EC1037D-1518-4D1A-8B06-2AA570753711";
paths = (
{
closed = 1;
nodes = (
"1071 738 LINE",
"73 738 LINE",
"73 686 LINE",
"1071 686 LINE"
);
},
{
closed = 1;
nodes = (
"529 1079 CURVE SMOOTH",
"529 1048 OFFCURVE",
"553 1024 OFFCURVE",
"584 1024 CURVE SMOOTH",
"615 1024 OFFCURVE",
"640 1048 OFFCURVE",
"640 1079 CURVE SMOOTH",
"640 1110 OFFCURVE",
"615 1135 OFFCURVE",
"584 1135 CURVE SMOOTH",
"553 1135 OFFCURVE",
"529 1110 OFFCURVE"
);
},
{
closed = 1;
nodes = (
"529 301 CURVE SMOOTH",
"529 270 OFFCURVE",
"553 246 OFFCURVE",
"584 246 CURVE SMOOTH",
"615 246 OFFCURVE",
"640 270 OFFCURVE",
"640 301 CURVE SMOOTH",
"640 332 OFFCURVE",
"615 357 OFFCURVE",
"584 357 CURVE SMOOTH",
"553 357 OFFCURVE",
"529 332 OFFCURVE"
);
}
);
width = 1159;
}
);
unicode = 00F7;
},
{
export = 0;
glyphname = oslash;
layers = (
{
anchors = (
{
name = top;
position = "{510, 1289}";
},
{
name = top0315;
position = "{1121, 1289}";
},
{
name = top_dd;
position = "{1121, 1600}";
}
);
components = (
{
name = o;
transform = "{1, 0, 0, 1, -3, 0}";
}
);
layerId = "9EC1037D-1518-4D1A-8B06-2AA570753711";
paths = (
{
closed = 1;
nodes = (
"931 1219 LINE",
"868 1219 LINE",
"205 -145 LINE",
"268 -145 LINE"
);
}
);
width = 1121;
}
);
unicode = 00F8;
},
{
export = 0;
glyphname = thorn;
layers = (
{
layerId = "9EC1037D-1518-4D1A-8B06-2AA570753711";
paths = (
{
closed = 1;
nodes = (
"224 1536 LINE",
"170 1536 LINE",
"170 -416 LINE",
"224 -416 LINE"
);
},
{
closed = 1;
nodes = (
"999 552 LINE",
"999 893 OFFCURVE",
"848 1102 OFFCURVE",
"591 1102 CURVE SMOOTH",
"356 1102 OFFCURVE",
"217 948 OFFCURVE",
"170 745 CURVE",
"170 305 LINE",
"204 133 OFFCURVE",
"349 -20 OFFCURVE",
"593 -20 CURVE SMOOTH",
"849 -20 OFFCURVE",
"999 201 OFFCURVE",
"999 531 CURVE SMOOTH"
);
},
{
closed = 1;
nodes = (
"944 531 LINE",
"944 243 OFFCURVE",
"830 34 OFFCURVE",
"594 34 CURVE SMOOTH",
"367 34 OFFCURVE",
"242 166 OFFCURVE",
"206 330 CURVE",
"206 709 LINE",
"235 843 OFFCURVE",
"320 1048 OFFCURVE",
"592 1048 CURVE SMOOTH",
"830 1048 OFFCURVE",
"944 839 OFFCURVE",
"944 552 CURVE SMOOTH"
);
}
);
width = 1121;
}
);
unicode = 00FE;
},
{
export = 0;
glyphname = Hbar;
layers = (
{
anchors = (
{
name = bottom;
position = "{686, 10}";
},
{
name = top;
position = "{686, 1612}";
},
{
name = top0315;
position = "{1389, 1612}";
}
);
components = (
{
name = H;
transform = "{1, 0, 0, 1, -41, 0}";
}
);
layerId = "9EC1037D-1518-4D1A-8B06-2AA570753711";
paths = (
{
closed = 1;
nodes = (
"1352 1081 LINE",
"20 1081 LINE",
"20 1028 LINE",
"1352 1028 LINE"
);
}
);
width = 1389;
}
);
unicode = 0126;
userData = {
com.typemytype.robofont.mark = (
0.7980,
1,
0.6000,
1
);
};
},
{
export = 0;
glyphname = kgreenlandic;
layers = (
{
anchors = (
{
name = bottom;
position = "{558, 10}";
},
{
name = top;
position = "{558, 1290}";
},
{
name = top0315;
position = "{1084, 1290}";
}
);
layerId = "9EC1037D-1518-4D1A-8B06-2AA570753711";
paths = (
{
closed = 1;
nodes = (
"226 1082 LINE",
"171 1082 LINE",
"171 0 LINE",
"226 0 LINE"
);
},
{
closed = 1;
nodes = (
"962 1082 LINE",
"893 1082 LINE",
"404 582 LINE",
"207 582 LINE",
"204 529 LINE",
"431 529 LINE"
);
},
{
closed = 1;
nodes = (
"954 0 LINE",
"1025 0 LINE",
"422 584 LINE",
"390 533 LINE"
);
}
);
width = 1084;
}
);
unicode = 0138;
userData = {
com.typemytype.robofont.mark = (
0.7980,
1,
0.6000,
1
);
};
},
{
export = 0;
glyphname = Lslash;
layers = (
{
anchors = (
{
name = bottom;
position = "{609, 10}";
},
{
name = top;
position = "{216, 1549}";
},
{
name = top0315;
position = "{1061, 1549}";
}
);
components = (
{
name = L;
transform = "{1, 0, 0, 1, -8, 0}";
}
);
layerId = "9EC1037D-1518-4D1A-8B06-2AA570753711";
paths = (
{
closed = 1;
nodes = (
"598 902 LINE",
"8 715 LINE",
"8 658 LINE",
"598 845 LINE"
);
}
);
width = 1061;
}
);
unicode = 0141;
userData = {
com.typemytype.robofont.mark = (
0.7980,
1,
0.6000,
1
);
};
},
{
export = 0;
glyphname = lslash;
layers = (
{
anchors = (
{
name = bottom;
position = "{258, 10}";
},
{
name = top;
position = "{258, 1673}";
},
{
name = top0315;
position = "{505, 1673}";
}
);
components = (
{
name = l;
transform = "{1, 0, 0, 1, 47, 0}";
}
);
layerId = "9EC1037D-1518-4D1A-8B06-2AA570753711";
paths = (
{
closed = 1;
nodes = (
"487 930 LINE",
"17 743 LINE",
"17 684 LINE",
"487 871 LINE"
);
}
);
width = 505;
}
);
unicode = 0142;
userData = {
com.typemytype.robofont.mark = (
0.7980,
1,
0.6000,
1
);
};
},
{
export = 0;
glyphname = Eng;
layers = (
{
anchors = (
{
name = bottom;
position = "{726, 10}";
},
{
name = top;
position = "{726, 1612}";
},
{
name = top0315;
position = "{1450, 1612}";
}
);
layerId = "9EC1037D-1518-4D1A-8B06-2AA570753711";
paths = (
{
closed = 1;
nodes = (
"200 1456 LINE",
"200 0 LINE",
"254 0 LINE",
"254 1456 LINE"
);
},
{
closed = 1;
nodes = (
"214 1422 LINE",
"1196 0 LINE",
"1237 34 LINE",
"254 1456 LINE"
);
},
{
closed = 1;
nodes = (
"1196 1456 LINE",
"1196 -89 LINE SMOOTH",
"1196 -277 OFFCURVE",
"1112 -383 OFFCURVE",
"965 -383 CURVE SMOOTH",
"927 -383 OFFCURVE",
"887 -373 OFFCURVE",
"866 -365 CURVE",
"853 -417 LINE",
"892 -430 OFFCURVE",
"924 -437 OFFCURVE",
"965 -437 CURVE SMOOTH",
"1143 -437 OFFCURVE",
"1250 -314 OFFCURVE",
"1250 -89 CURVE SMOOTH",
"1250 1456 LINE"
);
}
);
width = 1450;
}
);
unicode = 014A;
userData = {
com.typemytype.robofont.mark = (
0.7980,
1,
0.6000,
1
);
};
},
{
export = 0;
glyphname = eng;
layers = (
{
anchors = (
{
name = bottom;
position = "{578, 10}";
},
{
name = markbottom;
position = "{578, 10}";
},
{
name = parenthesses.w1;
position = "{743, -308}";
},
{
name = top;
position = "{578, 1290}";
},
{
name = top0315;
position = "{1121, 1290}";
}
);
layerId = "9EC1037D-1518-4D1A-8B06-2AA570753711";
paths = (
{
closed = 1;
nodes = (
"224 851 LINE",
"218 1082 LINE",
"170 1082 LINE",
"170 0 LINE",
"224 0 LINE"
);
},
{
closed = 1;
nodes = (
"215 554 LINE",
"215 785 OFFCURVE",
"298 1048 OFFCURVE",
"601 1048 CURVE SMOOTH",
"768 1048 OFFCURVE",
"900 962 OFFCURVE",
"900 639 CURVE SMOOTH",
"900 -89 LINE SMOOTH",
"900 -277 OFFCURVE",
"816 -384 OFFCURVE",
"669 -384 CURVE SMOOTH",
"624 -384 OFFCURVE",
"573 -373 OFFCURVE",
"549 -365 CURVE",
"536 -417 LINE",
"581 -430 OFFCURVE",
"620 -437 OFFCURVE",
"669 -437 CURVE SMOOTH",
"847 -437 OFFCURVE",
"954 -314 OFFCURVE",
"954 -89 CURVE SMOOTH",
"954 637 LINE SMOOTH",
"954 966 OFFCURVE",
"832 1102 OFFCURVE",
"600 1102 CURVE SMOOTH",
"304 1102 OFFCURVE",
"170 875 OFFCURVE",
"170 554 CURVE"
);
}
);
width = 1121;
}
);
unicode = 014B;
userData = {
com.typemytype.robofont.mark = (
0.7980,
1,
0.6000,
1
);
};
},
{
export = 0;
glyphname = OE;
layers = (
{
anchors = (
{
name = bottom;
position = "{957, -2}";
},
{
name = bottom_dd;
position = "{1873, -407}";
},
{
name = top;
position = "{957, 1633}";
},
{
name = top0315;
position = "{1873, 1633}";
},
{
name = top_dd;
position = "{1873, 1600}";
}
);
components = (
{
name = E;
transform = "{1, 0, 0, 1, 715, 0}";
}
);
layerId = "9EC1037D-1518-4D1A-8B06-2AA570753711";
paths = (
{
closed = 1;
nodes = (
"629 1476 CURVE SMOOTH",
"322 1476 OFFCURVE",
"112 1233 OFFCURVE",
"112 880 CURVE",
"112 576 LINE",
"112 223 OFFCURVE",
"324 -21 OFFCURVE",
"631 -21 CURVE SMOOTH",
"748 -21 OFFCURVE",
"860 -10 OFFCURVE",
"961 0 CURVE",
"961 53 LINE",
"869 38 OFFCURVE",
"743 33 OFFCURVE",
"631 33 CURVE SMOOTH",
"349 33 OFFCURVE",
"166 260 OFFCURVE",
"166 576 CURVE",
"166 882 LINE",
"166 1205 OFFCURVE",
"347 1422 OFFCURVE",
"629 1422 CURVE SMOOTH",
"749 1422 OFFCURVE",
"862 1419 OFFCURVE",
"961 1403 CURVE",
"961 1456 LINE",
"860 1467 OFFCURVE",
"746 1476 OFFCURVE"
);
}
);
width = 1873;
}
);
unicode = 0152;
userData = {
com.typemytype.robofont.mark = (
0.7980,
1,
0.6000,
1
);
};
},
{
export = 0;
glyphname = oe;
layers = (
{
anchors = (
{
name = bottom;
position = "{974, -10}";
},
{
name = bottom_dd;
position = "{1924, -407}";
},
{
name = top;
position = "{974, 1290}";
},
{
name = top0315;
position = "{1924, 1290}";
},
{
name = top_dd;
position = "{1924, 1600}";
}
);
layerId = "9EC1037D-1518-4D1A-8B06-2AA570753711";
paths = (
{
closed = 1;
nodes = (
"1444 -20 CURVE",
"1615 -20 OFFCURVE",
"1733 32 OFFCURVE",
"1815 123 CURVE",
"1786 165 LINE",
"1713 81 OFFCURVE",
"1612 34 OFFCURVE",
"1444 34 CURVE SMOOTH",
"1217 34 OFFCURVE",
"1044 241 OFFCURVE",
"1044 500 CURVE SMOOTH",
"1044 564 LINE SMOOTH",
"1044 832 OFFCURVE",
"1202 1048 OFFCURVE",
"1441 1048 CURVE",
"1658 1048 OFFCURVE",
"1801 881 OFFCURVE",
"1801 664 CURVE",
"1801 631 LINE",
"1025 631 LINE",
"1025 577 LINE",
"1855 577 LINE",
"1855 660 LINE SMOOTH",
"1855 935 OFFCURVE",
"1681 1102 OFFCURVE",
"1441 1102 CURVE SMOOTH",
"1191 1102 OFFCURVE",
"990 880 OFFCURVE",
"990 564 CURVE SMOOTH",
"990 500 LINE SMOOTH",
"990 198 OFFCURVE",
"1204 -20 OFFCURVE"
);
},
{
closed = 1;
nodes = (
"92 520 LINE",
"92 203 OFFCURVE",
"285 -20 OFFCURVE",
"567 -20 CURVE SMOOTH",
"848 -20 OFFCURVE",
"1039 203 OFFCURVE",
"1039 520 CURVE",
"1039 562 LINE",
"1039 879 OFFCURVE",
"848 1102 OFFCURVE",
"565 1102 CURVE SMOOTH",
"285 1102 OFFCURVE",
"92 879 OFFCURVE",
"92 562 CURVE"
);
},
{
closed = 1;
nodes = (
"146 562 LINE",
"146 815 OFFCURVE",
"301 1048 OFFCURVE",
"565 1048 CURVE SMOOTH",
"830 1048 OFFCURVE",
"985 815 OFFCURVE",
"985 562 CURVE",
"985 520 LINE",
"985 261 OFFCURVE",
"830 34 OFFCURVE",
"567 34 CURVE SMOOTH",
"301 34 OFFCURVE",
"146 261 OFFCURVE",
"146 520 CURVE"
);
}
);
width = 1924;
}
);
unicode = 0153;
userData = {
com.typemytype.robofont.mark = (
0.7980,
1,
0.6000,
1
);
};
},
{
export = 0;
glyphname = longs;
layers = (
{
anchors = (
{
name = bottom;
position = "{199, 10}";
},
{
name = top;
position = "{377, 1680}";
},
{
name = top0315;
position = "{422, 1680}";
}
);
layerId = "9EC1037D-1518-4D1A-8B06-2AA570753711";
paths = (
{
closed = 1;
nodes = (
"228 0 LINE",
"228 1236 LINE SMOOTH",
"228 1405 OFFCURVE",
"315 1503 OFFCURVE",
"457 1503 CURVE SMOOTH",
"511 1503 OFFCURVE",
"539 1498 OFFCURVE",
"576 1488 CURVE",
"584 1540 LINE",
"543 1553 OFFCURVE",
"498 1557 OFFCURVE",
"456 1557 CURVE SMOOTH",
"280 1557 OFFCURVE",
"174 1443 OFFCURVE",
"174 1236 CURVE SMOOTH",
"174 0 LINE"
);
}
);
width = 422;
}
);
unicode = 017F;
userData = {
com.typemytype.robofont.mark = (
0.7980,
1,
0.6000,
1
);
};
},
{
export = 0;
glyphname = florin;
layers = (
{
layerId = "9EC1037D-1518-4D1A-8B06-2AA570753711";
paths = (
{
closed = 1;
nodes = (
"593 1082 LINE",
"307 1082 LINE",
"307 1236 LINE SMOOTH",
"307 1405 OFFCURVE",
"395 1503 OFFCURVE",
"537 1503 CURVE SMOOTH",
"591 1503 OFFCURVE",
"618 1498 OFFCURVE",
"656 1488 CURVE",
"664 1540 LINE",
"622 1553 OFFCURVE",
"577 1557 OFFCURVE",
"536 1557 CURVE SMOOTH",
"360 1557 OFFCURVE",
"253 1443 OFFCURVE",
"253 1236 CURVE SMOOTH",
"253 1082 LINE",
"65 1082 LINE",
"65 1027 LINE",
"253 1027 LINE",
"253 -89 LINE SMOOTH",
"253 -277 OFFCURVE",
"170 -383 OFFCURVE",
"22 -383 CURVE SMOOTH",
"-15 -383 OFFCURVE",
"-56 -373 OFFCURVE",
"-77 -365 CURVE",
"-90 -417 LINE",
"-51 -430 OFFCURVE",
"-19 -437 OFFCURVE",
"22 -437 CURVE SMOOTH",
"201 -437 OFFCURVE",
"307 -314 OFFCURVE",
"307 -89 CURVE SMOOTH",
"307 1027 LINE",
"593 1027 LINE"
);
}
);
width = 644;
}
);
unicode = 0192;
},
{
export = 0;
glyphname = Ohorn;
layers = (
{
anchors = (
{
name = bottom;
position = "{692, 0}";
},
{
name = top;
position = "{726, 1622}";
},
{
name = top0315;
position = "{1451, 1622}";
}
);
components = (
{
name = O;
transform = "{1, 0, 0, 1, 31, 0}";
}
);
layerId = "9EC1037D-1518-4D1A-8B06-2AA570753711";
paths = (
{
closed = 1;
nodes = (
"1405 1541 LINE",
"1405 1346 OFFCURVE",
"1356 1238 OFFCURVE",
"1146 1238 CURVE",
"1146 1184 LINE",
"1378 1184 OFFCURVE",
"1459 1309 OFFCURVE",
"1459 1541 CURVE"
);
}
);
width = 1451;
}
);
unicode = 01A0;
},
{
export = 0;
glyphname = ohorn;
layers = (
{
anchors = (
{
name = bottom;
position = "{582, -10}";
},
{
name = top;
position = "{582, 1290}";
},
{
name = top0315;
position = "{1122, 1290}";
}
);
components = (
{
name = o;
transform = "{1, 0, 0, 1, -3, 0}";
}
);
layerId = "9EC1037D-1518-4D1A-8B06-2AA570753711";
paths = (
{
closed = 1;
nodes = (
"1103 1196 LINE",
"1103 1041 OFFCURVE",
"1069 953 OFFCURVE",
"885 953 CURVE",
"885 899 LINE",
"1092 899 OFFCURVE",
"1158 1003 OFFCURVE",
"1158 1196 CURVE"
);
}
);
width = 1122;
}
);
unicode = 01A1;
},
{
export = 0;
glyphname = Uhorn;
layers = (
{
anchors = (
{
name = bottom;
position = "{651, 0}";
},
{
name = top;
position = "{665, 1612}";
},
{
name = top0315;
position = "{1365, 1612}";
}
);
components = (
{
name = U;
}
);
layerId = "9EC1037D-1518-4D1A-8B06-2AA570753711";
paths = (
{
closed = 1;
nodes = (
"1414 1551 LINE",
"1414 1356 OFFCURVE",
"1364 1248 OFFCURVE",
"1154 1248 CURVE",
"1154 1194 LINE",
"1387 1194 OFFCURVE",
"1468 1319 OFFCURVE",
"1468 1551 CURVE"
);
}
);
width = 1365;
}
);
unicode = 01AF;
},
{
export = 0;
glyphname = uhorn;
layers = (
{
anchors = (
{
name = bottom;
position = "{560, 0}";
},
{
name = bottomu;
position = "{514, 0}";
},
{
name = right;
position = "{956, 0}";
},
{
name = top;
position = "{580, 1269}";
},
{
name = top0315;
position = "{1133, 1269}";
}
);
components = (
{
name = u;
}
);
layerId = "9EC1037D-1518-4D1A-8B06-2AA570753711";
paths = (
{
closed = 1;
nodes = (
"1132 1190 LINE",
"1132 1034 OFFCURVE",
"1098 946 OFFCURVE",
"913 946 CURVE",
"913 892 LINE",
"1121 892 OFFCURVE",
"1187 997 OFFCURVE",
"1187 1190 CURVE"
);
}
);
width = 1133;
}
);
unicode = 01B0;
userData = {
com.typemytype.robofont.mark = (
0.7980,
1,
0.6000,
1
);
};
},
{
export = 0;
glyphname = uni0237;
layers = (
{
anchors = (
{
name = _right;
position = "{240, 0}";
},
{
name = top;
position = "{209, 1249}";
},
{
name = top0315;
position = "{422, 1249}";
}
);
layerId = "9EC1037D-1518-4D1A-8B06-2AA570753711";
paths = (
{
closed = 1;
nodes = (
"186 1082 LINE",
"186 -89 LINE",
"186 -277 OFFCURVE",
"103 -383 OFFCURVE",
"-45 -383 CURVE SMOOTH",
"-82 -383 OFFCURVE",
"-123 -373 OFFCURVE",
"-144 -365 CURVE",
"-157 -417 LINE",
"-118 -430 OFFCURVE",
"-86 -437 OFFCURVE",
"-45 -437 CURVE SMOOTH",
"134 -437 OFFCURVE",
"240 -314 OFFCURVE",
"240 -89 CURVE",
"240 1082 LINE"
);
}
);
width = 422;
}
);
unicode = 0237;
},
{
export = 0;
glyphname = circumflex;
layers = (
{
anchors = (
{
name = _top;
position = "{402, 1293}";
},
{
name = mkmktop_acc;
position = "{402, 1606}";
}
);
layerId = "9EC1037D-1518-4D1A-8B06-2AA570753711";
paths = (
{
closed = 1;
nodes = (
"422 1517 LINE",
"382 1517 LINE",
"152 1278 LINE",
"152 1264 LINE",
"216 1264 LINE",
"401 1460 LINE",
"588 1264 LINE",
"656 1264 LINE",
"656 1274 LINE"
);
}
);
width = 796;
}
);
unicode = 02C6;
},
{
export = 0;
glyphname = caron;
layers = (
{
anchors = (
{
name = _top;
position = "{397, 1288}";
},
{
name = mkmktop_acc;
position = "{397, 1540}";
}
);
layerId = "9EC1037D-1518-4D1A-8B06-2AA570753711";
paths = (
{
closed = 1;
nodes = (
"203 1506 LINE",
"146 1506 LINE",
"146 1495 LINE",
"366 1243 LINE",
"425 1243 LINE",
"643 1493 LINE",
"643 1506 LINE",
"590 1506 LINE",
"396 1289 LINE"
);
}
);
width = 764;
}
);
unicode = 02C7;
userData = {
com.typemytype.robofont.mark = (
0.7980,
1,
0.6000,
1
);
};
},
{
export = 0;
glyphname = breve;
layers = (
{
anchors = (
{
name = _top;
position = "{427, 1288}";
},
{
name = mkmktop_acc;
position = "{427, 1514}";
}
);
layerId = "9EC1037D-1518-4D1A-8B06-2AA570753711";
paths = (
{
closed = 1;
nodes = (
"650 1486 LINE",
"650 1383 OFFCURVE",
"585 1294 OFFCURVE",
"426 1294 CURVE SMOOTH",
"261 1294 OFFCURVE",
"201 1381 OFFCURVE",
"201 1486 CURVE",
"147 1486 LINE",
"147 1340 OFFCURVE",
"252 1238 OFFCURVE",
"426 1238 CURVE SMOOTH",
"600 1238 OFFCURVE",
"704 1340 OFFCURVE",
"704 1486 CURVE"
);
}
);
width = 857;
}
);
unicode = 02D8;
userData = {
com.typemytype.robofont.mark = (
0.7980,
1,
0.6000,
1
);
};
},
{
export = 0;
glyphname = dotaccent;
layers = (
{
anchors = (
{
name = _dot;
position = "{150, 1396}";
},
{
name = _top;
position = "{211, 1293}";
},
{
name = mkmktop_acc;
position = "{211, 1513}";
}
);
layerId = "9EC1037D-1518-4D1A-8B06-2AA570753711";
paths = (
{
closed = 1;
nodes = (
"156 1397 CURVE SMOOTH",
"156 1366 OFFCURVE",
"180 1342 OFFCURVE",
"211 1342 CURVE SMOOTH",
"242 1342 OFFCURVE",
"267 1366 OFFCURVE",
"267 1397 CURVE SMOOTH",
"267 1428 OFFCURVE",
"242 1453 OFFCURVE",
"211 1453 CURVE SMOOTH",
"180 1453 OFFCURVE",
"156 1428 OFFCURVE"
);
}
);
width = 422;
}
);
unicode = 02D9;
userData = {
com.typemytype.robofont.mark = (
0.7980,
1,
0.6000,
1
);
};
},
{
export = 0;
glyphname = ring;
layers = (
{
anchors = (
{
name = _top;
position = "{283, 1293}";
},
{
name = mkmktop_acc;
position = "{283, 1617}";
}
);
layerId = "9EC1037D-1518-4D1A-8B06-2AA570753711";
paths = (
{
closed = 1;
nodes = (
"114 1382 CURVE",
"114 1284 OFFCURVE",
"189 1212 OFFCURVE",
"285 1212 CURVE SMOOTH",
"380 1212 OFFCURVE",
"456 1284 OFFCURVE",
"456 1382 CURVE SMOOTH",
"456 1480 OFFCURVE",
"380 1556 OFFCURVE",
"285 1556 CURVE SMOOTH",
"189 1556 OFFCURVE",
"114 1480 OFFCURVE"
);
},
{
closed = 1;
nodes = (
"168 1382 CURVE",
"168 1453 OFFCURVE",
"217 1502 OFFCURVE",
"285 1502 CURVE SMOOTH",
"353 1502 OFFCURVE",
"402 1453 OFFCURVE",
"402 1382 CURVE SMOOTH",
"402 1313 OFFCURVE",
"353 1266 OFFCURVE",
"285 1266 CURVE SMOOTH",
"217 1266 OFFCURVE",
"168 1313 OFFCURVE"
);
}
);
width = 586;
}
);
unicode = 02DA;
},
{
export = 0;
glyphname = ogonek;
layers = (
{
anchors = (
{
name = _bottom;
position = "{286, 0}";
},
{
name = _ogonek;
position = "{313, 0}";
},
{
name = _right;
position = "{313, 0}";
},
{
name = mkmkbottom_acc;
position = "{286, -395}";
}
);
layerId = "9EC1037D-1518-4D1A-8B06-2AA570753711";
paths = (
{
closed = 1;
nodes = (
"270 20 LINE",
"173 -53 OFFCURVE",
"71 -152 OFFCURVE",
"71 -246 CURVE",
"71 -347 OFFCURVE",
"129 -395 OFFCURVE",
"218 -395 CURVE SMOOTH",
"279 -395 OFFCURVE",
"319 -371 OFFCURVE",
"344 -351 CURVE",
"328 -303 LINE",
"304 -320 OFFCURVE",
"271 -341 OFFCURVE",
"218 -341 CURVE SMOOTH",
"145 -341 OFFCURVE",
"125 -295 OFFCURVE",
"125 -246 CURVE SMOOTH",
"125 -150 OFFCURVE",
"218 -75 OFFCURVE",
"313 0 CURVE"
);
}
);
width = 471;
}
);
unicode = 02DB;
},
{
export = 0;
glyphname = tilde;
layers = (
{
anchors = (
{
name = _top;
position = "{401, 1278}";
},
{
name = mkmktop_acc;
position = "{398, 1510}";
}
);
layerId = "9EC1037D-1518-4D1A-8B06-2AA570753711";
paths = (
{
closed = 1;
nodes = (
"674 1472 LINE",
"674 1388 OFFCURVE",
"619 1341 OFFCURVE",
"553 1341 CURVE SMOOTH",
"441 1341 OFFCURVE",
"405 1465 OFFCURVE",
"266 1465 CURVE SMOOTH",
"167 1465 OFFCURVE",
"90 1396 OFFCURVE",
"90 1286 CURVE",
"145 1286 LINE",
"145 1370 OFFCURVE",
"199 1411 OFFCURVE",
"266 1411 CURVE SMOOTH",
"384 1411 OFFCURVE",
"409 1286 OFFCURVE",
"553 1286 CURVE SMOOTH",
"651 1286 OFFCURVE",
"729 1361 OFFCURVE",
"729 1472 CURVE"
);
}
);
width = 817;
}
);
unicode = 02DC;
userData = {
com.typemytype.robofont.mark = (
0.7980,
1,
0.6000,
1
);
};
},
{
export = 0;
glyphname = hungarumlaut;
layers = (
{
anchors = (
{
name = _top;
position = "{330, 1293}";
},
{
name = mkmktop_acc;
position = "{330, 1543}";
}
);
layerId = "9EC1037D-1518-4D1A-8B06-2AA570753711";
paths = (
{
closed = 1;
nodes = (
"381 1232 LINE",
"454 1232 LINE",
"742 1536 LINE",
"662 1536 LINE"
);
},
{
closed = 1;
nodes = (
"146 1232 LINE",
"215 1232 LINE",
"458 1536 LINE",
"382 1536 LINE"
);
}
);
width = 783;
}
);
unicode = 02DD;
userData = {
com.typemytype.robofont.guides = (
{
angle = 0;
isGlobal = 0;
magnetic = 5;
x = 0;
y = 901;
},
{
angle = 0;
isGlobal = 0;
magnetic = 5;
x = 0;
y = 555;
}
);
};
},
{
export = 0;
glyphname = uni02F3;
layers = (
{
anchors = (
{
name = _bottom;
position = "{324, -7}";
}
);
layerId = "9EC1037D-1518-4D1A-8B06-2AA570753711";
paths = (
{
closed = 1;
nodes = (
"189 -219 CURVE SMOOTH",
"189 -284 OFFCURVE",
"249 -335 OFFCURVE",
"323 -335 CURVE SMOOTH",
"396 -335 OFFCURVE",
"456 -284 OFFCURVE",
"456 -219 CURVE SMOOTH",
"456 -154 OFFCURVE",
"396 -99 OFFCURVE",
"323 -99 CURVE SMOOTH",
"249 -99 OFFCURVE",
"189 -154 OFFCURVE"
);
},
{
closed = 1;
nodes = (
"247 -219 CURVE SMOOTH",
"247 -183 OFFCURVE",
"280 -157 OFFCURVE",
"323 -157 CURVE SMOOTH",
"366 -157 OFFCURVE",
"399 -183 OFFCURVE",
"399 -219 CURVE SMOOTH",
"399 -254 OFFCURVE",
"366 -279 OFFCURVE",
"323 -279 CURVE SMOOTH",
"280 -279 OFFCURVE",
"247 -254 OFFCURVE"
);
}
);
width = 642;
}
);
unicode = 02F3;
},
{
export = 0;
glyphname = gravecomb;
layers = (
{
anchors = (
{
name = _marktop;
position = "{-544, 1293}";
},
{
name = _top;
position = "{-544, 1293}";
},
{
name = mkmktop;
position = "{-544, 1543}";
},
{
name = parent_top;
position = "{-617, 1403}";
}
);
layerId = "9EC1037D-1518-4D1A-8B06-2AA570753711";
paths = (
{
closed = 1;
nodes = (
"-678 1536 LINE",
"-744 1536 LINE",
"-549 1270 LINE",
"-490 1270 LINE"
);
}
);
width = 0;
}
);
unicode = 0300;
userData = {
com.typemytype.robofont.mark = (
0.7980,
1,
0.6000,
1
);
};
},
{
export = 0;
glyphname = acutecomb;
layers = (
{
anchors = (
{
name = _marktop;
position = "{-528, 1293}";
},
{
name = _top;
position = "{-528, 1293}";
},
{
name = mkmktop;
position = "{-528, 1543}";
},
{
name = parent_top;
position = "{-446, 1403}";
}
);
layerId = "9EC1037D-1518-4D1A-8B06-2AA570753711";
paths = (
{
closed = 1;
nodes = (
"-574 1270 LINE",
"-514 1270 LINE",
"-319 1536 LINE",
"-385 1536 LINE"
);
}
);
width = 0;
}
);
unicode = 0301;
userData = {
com.typemytype.robofont.mark = (
0.7980,
1,
0.6000,
1
);
};
},
{
export = 0;
glyphname = hook;
layers = (
{
anchors = (
{
name = _marktop;
position = "{-574, 1252}";
},
{
name = _top;
position = "{-574, 1252}";
},
{
name = mkmktop;
position = "{-574, 1658}";
},
{
name = mkmktop_acc;
position = "{-574, 1658}";
},
{
name = parent_top;
position = "{-499, 1413}";
}
);
layerId = "9EC1037D-1518-4D1A-8B06-2AA570753711";
paths = (
{
closed = 1;
nodes = (
"-550 1227 LINE",
"-550 1281 LINE",
"-441 1289 OFFCURVE",
"-353 1333 OFFCURVE",
"-353 1440 CURVE SMOOTH",
"-353 1540 OFFCURVE",
"-472 1599 OFFCURVE",
"-638 1599 CURVE",
"-645 1550 LINE",
"-538 1550 OFFCURVE",
"-409 1524 OFFCURVE",
"-409 1440 CURVE SMOOTH",
"-409 1366 OFFCURVE",
"-467 1337 OFFCURVE",
"-598 1326 CURVE",
"-598 1227 LINE"
);
}
);
width = 0;
}
);
unicode = 0309;
},
{
export = 0;
glyphname = uni030F;
layers = (
{
anchors = (
{
name = _marktop;
position = "{-544, 1293}";
},
{
name = _top;
position = "{-544, 1293}";
},
{
name = mkmktop;
position = "{-544, 1543}";
},
{
name = mkmktop_acc;
position = "{-544, 1543}";
},
{
name = parent_top;
position = "{-671, 1385}";
}
);
layerId = "9EC1037D-1518-4D1A-8B06-2AA570753711";
paths = (
{
closed = 1;
nodes = (
"-598 1252 LINE",
"-671 1252 LINE",
"-969 1518 LINE",
"-889 1518 LINE"
);
},
{
closed = 1;
nodes = (
"-373 1252 LINE",
"-442 1252 LINE",
"-695 1518 LINE",
"-619 1518 LINE"
);
}
);
width = 0;
}
);
unicode = 030F;
},
{
export = 0;
glyphname = dotbelow;
layers = (
{
anchors = (
{
name = _bottom;
position = "{-572, 0}";
},
{
name = _bottomu;
position = "{-572, 0}";
},
{
name = _markbottom;
position = "{-572, 0}";
},
{
name = mkmkbottom_acc;
position = "{-572, -280}";
}
);
layerId = "9EC1037D-1518-4D1A-8B06-2AA570753711";
paths = (
{
closed = 1;
nodes = (
"-632 -218 CURVE SMOOTH",
"-632 -249 OFFCURVE",
"-608 -273 OFFCURVE",
"-577 -273 CURVE SMOOTH",
"-546 -273 OFFCURVE",
"-521 -249 OFFCURVE",
"-521 -218 CURVE SMOOTH",
"-521 -187 OFFCURVE",
"-546 -162 OFFCURVE",
"-577 -162 CURVE SMOOTH",
"-608 -162 OFFCURVE",
"-632 -187 OFFCURVE"
);
}
);
width = 0;
}
);
unicode = 0323;
userData = {
com.typemytype.robofont.guides = (
{
angle = 0;
isGlobal = 0;
magnetic = 5;
x = 0;
y = 901;
},
{
angle = 0;
isGlobal = 0;
magnetic = 5;
x = 0;
y = 555;
}
);
};
},
{
export = 0;
glyphname = tonos;
layers = (
{
anchors = (
{
name = _tonos;
position = "{319, 1456}";
},
{
name = _top;
position = "{255, 1373}";
}
);
layerId = "9EC1037D-1518-4D1A-8B06-2AA570753711";
paths = (
{
closed = 1;
nodes = (
"216 1305 LINE",
"269 1305 LINE",
"372 1578 LINE",
"309 1578 LINE"
);
}
);
width = 514;
}
);
unicode = 0384;
},
{
export = 0;
glyphname = dieresistonos;
layers = (
{
anchors = (
{
name = _top;
position = "{476, 1293}";
}
);
layerId = "9EC1037D-1518-4D1A-8B06-2AA570753711";
paths = (
{
closed = 1;
nodes = (
"443 1417 LINE",
"502 1417 LINE",
"545 1657 LINE",
"466 1657 LINE"
);
},
{
closed = 1;
nodes = (
"194 1421 CURVE SMOOTH",
"194 1390 OFFCURVE",
"218 1366 OFFCURVE",
"249 1366 CURVE SMOOTH",
"280 1366 OFFCURVE",
"305 1390 OFFCURVE",
"305 1421 CURVE SMOOTH",
"305 1452 OFFCURVE",
"280 1477 OFFCURVE",
"249 1477 CURVE SMOOTH",
"218 1477 OFFCURVE",
"194 1452 OFFCURVE"
);
},
{
closed = 1;
nodes = (
"639 1421 CURVE SMOOTH",
"639 1390 OFFCURVE",
"663 1366 OFFCURVE",
"694 1366 CURVE SMOOTH",
"725 1366 OFFCURVE",
"750 1390 OFFCURVE",
"750 1421 CURVE SMOOTH",
"750 1452 OFFCURVE",
"725 1477 OFFCURVE",
"694 1477 CURVE SMOOTH",
"663 1477 OFFCURVE",
"639 1452 OFFCURVE"
);
}
);
width = 928;
}
);
unicode = 0385;
},
{
export = 0;
glyphname = Gamma;
layers = (
{
anchors = (
{
name = cross;
position = "{382, 756}";
},
{
name = right;
position = "{248, 0}";
},
{
name = top;
position = "{610, 1612}";
},
{
name = top0315;
position = "{1122, 1612}";
}
);
layerId = "9EC1037D-1518-4D1A-8B06-2AA570753711";
paths = (
{
closed = 1;
nodes = (
"1055 1456 LINE",
"193 1456 LINE",
"193 0 LINE",
"247 0 LINE",
"247 1402 LINE",
"1055 1402 LINE"
);
}
);
width = 1122;
}
);
unicode = 0393;
userData = {
com.typemytype.robofont.mark = (
0.6000,
0.6090,
1,
1
);
};
},
{
export = 0;
glyphname = Delta;
layers = (
{
layerId = "9EC1037D-1518-4D1A-8B06-2AA570753711";
paths = (
{
closed = 1;
nodes = (
"676 1325 LINE",
"725 1456 LINE",
"674 1456 LINE",
"58 0 LINE",
"117 0 LINE"
);
},
{
closed = 1;
nodes = (
"1296 0 LINE",
"1356 0 LINE",
"739 1456 LINE",
"687 1456 LINE",
"736 1325 LINE"
);
},
{
closed = 1;
nodes = (
"1304 54 LINE",
"99 54 LINE",
"99 0 LINE",
"1304 0 LINE"
);
}
);
width = 1411;
}
);
unicode = 0394;
userData = {
com.typemytype.robofont.guides = (
{
angle = 0;
isGlobal = 0;
magnetic = 5;
x = 0;
y = 901;
},
{
angle = 0;
isGlobal = 0;
magnetic = 5;
x = 0;
y = 555;
}
);
com.typemytype.robofont.mark = (
0.6000,
0.6090,
1,
1
);
};
},
{
export = 0;
glyphname = Theta;
layers = (
{
components = (
{
name = O;
}
);
layerId = "9EC1037D-1518-4D1A-8B06-2AA570753711";
paths = (
{
closed = 1;
nodes = (
"971 744 LINE",
"380 744 LINE",
"380 691 LINE",
"971 691 LINE"
);
}
);
width = 1364;
}
);
unicode = 0398;
},
{
export = 0;
glyphname = Lambda;
layers = (
{
layerId = "9EC1037D-1518-4D1A-8B06-2AA570753711";
paths = (
{
closed = 1;
nodes = (
"663 1412 LINE",
"672 1456 LINE",
"621 1456 LINE",
"87 0 LINE",
"146 0 LINE"
);
},
{
closed = 1;
nodes = (
"1162 0 LINE",
"1221 0 LINE",
"686 1456 LINE",
"634 1456 LINE",
"644 1412 LINE"
);
}
);
width = 1313;
}
);
unicode = 039B;
userData = {
com.typemytype.robofont.mark = (
0.6000,
0.6090,
1,
1
);
};
},
{
export = 0;
glyphname = Xi;
layers = (
{
layerId = "9EC1037D-1518-4D1A-8B06-2AA570753711";
paths = (
{
closed = 1;
nodes = (
"112 0 LINE",
"1017 0 LINE",
"1017 54 LINE",
"112 54 LINE"
);
},
{
closed = 1;
nodes = (
"220 687 LINE",
"901 687 LINE",
"901 741 LINE",
"220 741 LINE"
);
},
{
closed = 1;
nodes = (
"133 1403 LINE",
"978 1403 LINE",
"978 1456 LINE",
"133 1456 LINE"
);
}
);
width = 1121;
}
);
unicode = 039E;
userData = {
com.typemytype.robofont.mark = (
0.6000,
0.6090,
1,
1
);
};
},
{
export = 0;
glyphname = Pi;
layers = (
{
anchors = (
{
name = right;
position = "{1240, 0}";
}
);
layerId = "9EC1037D-1518-4D1A-8B06-2AA570753711";
paths = (
{
closed = 1;
nodes = (
"1238 1456 LINE",
"200 1456 LINE",
"200 0 LINE",
"254 0 LINE",
"254 1402 LINE",
"1184 1402 LINE",
"1184 0 LINE",
"1238 0 LINE"
);
}
);
width = 1438;
}
);
unicode = 03A0;
userData = {
com.typemytype.robofont.mark = (
0.6000,
0.6090,
1,
1
);
};
},
{
export = 0;
glyphname = Sigma;
layers = (
{
layerId = "9EC1037D-1518-4D1A-8B06-2AA570753711";
paths = (
{
closed = 1;
nodes = (
"1049 54 LINE",
"73 54 LINE",
"73 0 LINE",
"1049 0 LINE"
);
},
{
closed = 1;
nodes = (
"989 1456 LINE",
"96 1456 LINE",
"96 1403 LINE",
"989 1403 LINE"
);
},
{
closed = 1;
nodes = (
"656 815 LINE",
"94 1456 LINE",
"57 1456 LINE",
"57 1412 LINE",
"604 787 LINE",
"57 44 LINE",
"57 0 LINE",
"94 0 LINE",
"656 768 LINE"
);
}
);
width = 1121;
}
);
unicode = 03A3;
userData = {
com.typemytype.robofont.mark = (
0.6000,
0.6090,
1,
1
);
};
},
{
export = 0;
glyphname = Phi;
layers = (
{
layerId = "9EC1037D-1518-4D1A-8B06-2AA570753711";
paths = (
{
closed = 1;
nodes = (
"745 209 LINE",
"1134 209 OFFCURVE",
"1362 447 OFFCURVE",
"1362 739 CURVE SMOOTH",
"1362 1030 OFFCURVE",
"1134 1266 OFFCURVE",
"745 1266 CURVE SMOOTH",
"717 1266 LINE SMOOTH",
"327 1266 OFFCURVE",
"100 1028 OFFCURVE",
"100 737 CURVE SMOOTH",
"100 445 OFFCURVE",
"327 209 OFFCURVE",
"717 209 CURVE SMOOTH"
);
},
{
closed = 1;
nodes = (
"717 263 LINE",
"361 263 OFFCURVE",
"155 467 OFFCURVE",
"155 737 CURVE SMOOTH",
"155 1003 OFFCURVE",
"362 1212 OFFCURVE",
"717 1212 CURVE SMOOTH",
"747 1212 LINE SMOOTH",
"1101 1212 OFFCURVE",
"1307 1006 OFFCURVE",
"1307 739 CURVE SMOOTH",
"1307 469 OFFCURVE",
"1101 263 OFFCURVE",
"747 263 CURVE SMOOTH"
);
},
{
closed = 1;
nodes = (
"757 1456 LINE",
"702 1456 LINE",
"702 0 LINE",
"757 0 LINE"
);
}
);
width = 1462;
}
);
unicode = 03A6;
},
{
export = 0;
glyphname = Psi;
layers = (
{
layerId = "9EC1037D-1518-4D1A-8B06-2AA570753711";
paths = (
{
closed = 1;
nodes = (
"1220 1456 LINE",
"1220 946 LINE SMOOTH",
"1220 654 OFFCURVE",
"1013 471 OFFCURVE",
"727 471 CURVE SMOOTH",
"707 471 LINE",
"419 471 OFFCURVE",
"211 654 OFFCURVE",
"211 946 CURVE SMOOTH",
"211 1456 LINE",
"156 1456 LINE",
"156 946 LINE",
"156 607 OFFCURVE",
"388 416 OFFCURVE",
"707 416 CURVE SMOOTH",
"727 416 LINE",
"1045 416 OFFCURVE",
"1274 607 OFFCURVE",
"1274 946 CURVE",
"1274 1456 LINE"
);
},
{
closed = 1;
nodes = (
"741 1456 LINE",
"686 1456 LINE",
"686 0 LINE",
"741 0 LINE"
);
}
);
width = 1428;
}
);
unicode = 03A8;
userData = {
com.typemytype.robofont.mark = (
0.6000,
0.6090,
1,
1
);
};
},
{
export = 0;
glyphname = Omega;
layers = (
{
anchors = (
{
name = bottom;
position = "{665, 10}";
},
{
name = tonos;
position = "{150, 1454}";
}
);
layerId = "9EC1037D-1518-4D1A-8B06-2AA570753711";
paths = (
{
closed = 1;
nodes = (
"1120 732 LINE",
"1120 332 OFFCURVE",
"926 161 OFFCURVE",
"761 78 CURVE",
"761 19 LINE",
"948 106 OFFCURVE",
"1174 305 OFFCURVE",
"1174 732 CURVE",
"1174 849 LINE",
"1174 1227 OFFCURVE",
"962 1476 OFFCURVE",
"655 1476 CURVE SMOOTH",
"347 1476 OFFCURVE",
"138 1227 OFFCURVE",
"138 849 CURVE",
"138 732 LINE",
"138 304 OFFCURVE",
"366 104 OFFCURVE",
"557 19 CURVE",
"557 78 LINE",
"393 160 OFFCURVE",
"192 330 OFFCURVE",
"192 732 CURVE",
"192 851 LINE",
"192 1171 OFFCURVE",
"371 1422 OFFCURVE",
"655 1422 CURVE SMOOTH",
"939 1422 OFFCURVE",
"1120 1171 OFFCURVE",
"1120 851 CURVE"
);
},
{
closed = 1;
nodes = (
"761 0 LINE",
"1195 0 LINE",
"1195 54 LINE",
"761 54 LINE"
);
},
{
closed = 1;
nodes = (
"122 0 LINE",
"557 0 LINE",
"557 54 LINE",
"122 54 LINE"
);
}
);
width = 1321;
}
);
unicode = 03A9;
userData = {
com.typemytype.robofont.guides = (
{
angle = 0;
isGlobal = 0;
magnetic = 5;
x = 0;
y = 901;
},
{
angle = 0;
isGlobal = 0;
magnetic = 5;
x = 0;
y = 555;
}
);
com.typemytype.robofont.mark = (
0.6000,
0.6090,
1,
1
);
};
},
{
export = 0;
glyphname = alpha;
layers = (
{
anchors = (
{
name = bottom;
position = "{540, -10}";
},
{
name = top;
position = "{625, 1290}";
},
{
name = top0315;
position = "{1149, 1290}";
}
);
layerId = "9EC1037D-1518-4D1A-8B06-2AA570753711";
paths = (
{
closed = 1;
nodes = (
"122 521 LINE",
"122 191 OFFCURVE",
"272 -21 OFFCURVE",
"528 -21 CURVE SMOOTH",
"771 -21 OFFCURVE",
"908 160 OFFCURVE",
"942 364 CURVE",
"942 685 LINE",
"894 921 OFFCURVE",
"765 1102 OFFCURVE",
"530 1102 CURVE SMOOTH",
"273 1102 OFFCURVE",
"122 883 OFFCURVE",
"122 542 CURVE SMOOTH"
);
},
{
closed = 1;
nodes = (
"178 542 LINE",
"178 829 OFFCURVE",
"291 1048 OFFCURVE",
"529 1048 CURVE SMOOTH",
"774 1048 OFFCURVE",
"877 807 OFFCURVE",
"906 649 CURVE",
"906 389 LINE",
"870 193 OFFCURVE",
"754 33 OFFCURVE",
"527 33 CURVE SMOOTH",
"291 33 OFFCURVE",
"178 233 OFFCURVE",
"178 521 CURVE SMOOTH"
);
},
{
closed = 1;
nodes = (
"902 1082 LINE",
"896 854 LINE",
"896 255 LINE",
"896 56 OFFCURVE",
"954 -21 OFFCURVE",
"1076 -21 CURVE SMOOTH",
"1100 -21 OFFCURVE",
"1125 -19 OFFCURVE",
"1149 -7 CURVE",
"1138 42 LINE",
"1116 37 OFFCURVE",
"1098 32 OFFCURVE",
"1073 32 CURVE SMOOTH",
"1001 32 OFFCURVE",
"950 83 OFFCURVE",
"950 255 CURVE SMOOTH",
"950 1082 LINE"
);
}
);
width = 1149;
}
);
unicode = 03B1;
},
{
export = 0;
glyphname = beta;
layers = (
{
layerId = "9EC1037D-1518-4D1A-8B06-2AA570753711";
paths = (
{
closed = 1;
nodes = (
"476 784 LINE {\nname = hr00;\n}",
"476 735 LINE",
"619 735 LINE SMOOTH",
"882 735 OFFCURVE",
"1024 601 OFFCURVE",
"1024 381 CURVE SMOOTH",
"1024 164 OFFCURVE",
"890 33 OFFCURVE",
"634 33 CURVE SMOOTH",
"419 33 OFFCURVE",
"230 162 OFFCURVE",
"230 338 CURVE",
"193 318 LINE",
"193 87 OFFCURVE",
"446 -21 OFFCURVE",
"634 -21 CURVE SMOOTH",
"898 -21 OFFCURVE",
"1079 127 OFFCURVE",
"1079 385 CURVE SMOOTH",
"1079 608 OFFCURVE",
"932 784 OFFCURVE",
"623 784 CURVE SMOOTH"
);
},
{
closed = 1;
nodes = (
"583 1476 CURVE SMOOTH",
"372 1476 OFFCURVE",
"195 1301 OFFCURVE",
"195 1053 CURVE",
"195 -413 LINE",
"249 -413 LINE",
"249 1053 LINE SMOOTH",
"249 1268 OFFCURVE",
"397 1422 OFFCURVE",
"583 1422 CURVE SMOOTH",
"817 1422 OFFCURVE",
"920 1263 OFFCURVE",
"920 1107 CURVE SMOOTH",
"920 912 OFFCURVE",
"821 791 OFFCURVE",
"579 791 CURVE SMOOTH",
"476 791 LINE",
"476 738 LINE",
"583 738 LINE SMOOTH",
"836 738 OFFCURVE",
"974 902 OFFCURVE",
"974 1102 CURVE SMOOTH",
"974 1320 OFFCURVE",
"821 1476 OFFCURVE"
);
}
);
width = 1213;
}
);
unicode = 03B2;
},
{
export = 0;
glyphname = gamma;
layers = (
{
anchors = (
{
name = cross;
position = "{490, 31}";
}
);
layerId = "9EC1037D-1518-4D1A-8B06-2AA570753711";
paths = (
{
closed = 1;
nodes = (
"516 69 LINE",
"462 69 LINE",
"462 -415 LINE",
"516 -415 LINE"
);
},
{
closed = 1;
nodes = (
"544 229 LINE",
"463 0 LINE",
"514 0 LINE",
"935 1082 LINE",
"877 1082 LINE"
);
},
{
closed = 1;
nodes = (
"101 1082 LINE",
"43 1082 LINE",
"463 0 LINE",
"515 0 LINE",
"435 229 LINE"
);
}
);
width = 978;
}
);
unicode = 03B3;
},
{
export = 0;
glyphname = delta.alt;
layers = (
{
layerId = "9EC1037D-1518-4D1A-8B06-2AA570753711";
paths = (
{
closed = 1;
nodes = (
"265 1456 LINE",
"265 1402 LINE",
"347 1330 OFFCURVE",
"604 1186 OFFCURVE",
"760 1030 CURVE",
"701 1049 OFFCURVE",
"627 1047 OFFCURVE",
"606 1047 CURVE SMOOTH",
"302 1047 OFFCURVE",
"87 835 OFFCURVE",
"87 542 CURVE SMOOTH",
"87 500 LINE SMOOTH",
"87 195 OFFCURVE",
"280 -21 OFFCURVE",
"562 -21 CURVE SMOOTH",
"843 -21 OFFCURVE",
"1034 195 OFFCURVE",
"1034 500 CURVE SMOOTH",
"1034 542 LINE SMOOTH",
"1034 741 OFFCURVE",
"941 935 OFFCURVE",
"782 1085 CURVE SMOOTH",
"601 1256 OFFCURVE",
"460 1320 OFFCURVE",
"349 1403 CURVE",
"948 1403 LINE",
"948 1456 LINE"
);
},
{
closed = 1;
nodes = (
"141 542 LINE",
"141 775 OFFCURVE",
"317 993 OFFCURVE",
"606 993 CURVE SMOOTH",
"659 993 OFFCURVE",
"752 980 OFFCURVE",
"803 967 CURVE",
"859 918 OFFCURVE",
"980 764 OFFCURVE",
"980 542 CURVE SMOOTH",
"980 500 LINE SMOOTH",
"980 252 OFFCURVE",
"825 33 OFFCURVE",
"562 33 CURVE SMOOTH",
"296 33 OFFCURVE",
"141 252 OFFCURVE",
"141 500 CURVE SMOOTH"
);
}
);
width = 1121;
}
);
},
{
export = 0;
glyphname = epsilon;
layers = (
{
anchors = (
{
name = top;
position = "{551, 1289}";
},
{
name = top0315;
position = "{1122, 1289}";
}
);
layerId = "9EC1037D-1518-4D1A-8B06-2AA570753711";
paths = (
{
closed = 1;
nodes = (
"550 572 LINE",
"260 572 OFFCURVE",
"116 471 OFFCURVE",
"116 290 CURVE SMOOTH",
"116 96 OFFCURVE",
"298 -20 OFFCURVE",
"550 -20 CURVE SMOOTH",
"769 -20 OFFCURVE",
"997 83 OFFCURVE",
"997 301 CURVE",
"942 301 LINE",
"942 149 OFFCURVE",
"785 35 OFFCURVE",
"550 35 CURVE SMOOTH",
"307 35 OFFCURVE",
"170 132 OFFCURVE",
"170 287 CURVE SMOOTH",
"170 455 OFFCURVE",
"306 525 OFFCURVE",
"553 525 CURVE SMOOTH",
"718 525 LINE",
"718 572 LINE"
);
},
{
closed = 1;
nodes = (
"718 531 LINE",
"718 580 LINE",
"553 580 LINE SMOOTH",
"296 580 OFFCURVE",
"191 668 OFFCURVE",
"191 805 CURVE",
"191 942 OFFCURVE",
"299 1048 OFFCURVE",
"550 1048 CURVE SMOOTH",
"758 1048 OFFCURVE",
"925 950 OFFCURVE",
"925 799 CURVE",
"979 799 LINE",
"979 984 OFFCURVE",
"783 1102 OFFCURVE",
"550 1102 CURVE SMOOTH",
"298 1102 OFFCURVE",
"135 995 OFFCURVE",
"135 802 CURVE",
"135 653 OFFCURVE",
"283 531 OFFCURVE",
"550 531 CURVE"
);
}
);
width = 1122;
}
);
unicode = 03B5;
userData = {
com.typemytype.robofont.guides = (
{
angle = 0;
isGlobal = 0;
magnetic = 5;
x = 0;
y = 1326;
},
{
angle = 0;
isGlobal = 0;
magnetic = 5;
x = 0;
y = 444;
}
);
};
},
{
export = 0;
glyphname = zeta;
layers = (
{
layerId = "9EC1037D-1518-4D1A-8B06-2AA570753711";
paths = (
{
closed = 1;
nodes = (
"847 1456 LINE",
"408 879 LINE",
"220 638 OFFCURVE",
"173 478 OFFCURVE",
"173 341 CURVE SMOOTH",
"173 173 OFFCURVE",
"292 87 OFFCURVE",
"564 18 CURVE SMOOTH",
"654 -6 LINE SMOOTH",
"760 -33 OFFCURVE",
"818 -59 OFFCURVE",
"818 -135 CURVE SMOOTH",
"818 -243 OFFCURVE",
"732 -336 OFFCURVE",
"679 -361 CURVE",
"716 -392 LINE",
"777 -366 OFFCURVE",
"871 -263 OFFCURVE",
"871 -136 CURVE",
"871 -37 OFFCURVE",
"806 11 OFFCURVE",
"661 47 CURVE SMOOTH",
"572 71 LINE SMOOTH",
"334 131 OFFCURVE",
"226 201 OFFCURVE",
"226 341 CURVE",
"226 465 OFFCURVE",
"269 614 OFFCURVE",
"445 840 CURVE SMOOTH",
"887 1419 LINE",
"887 1456 LINE"
);
},
{
closed = 1;
nodes = (
"38 1456 LINE",
"38 1403 LINE",
"854 1403 LINE",
"854 1456 LINE"
);
}
);
width = 954;
}
);
unicode = 03B6;
},
{
export = 0;
glyphname = eta;
layers = (
{
anchors = (
{
name = bottom;
position = "{199, 10}";
},
{
name = top;
position = "{578, 1290}";
},
{
name = top0315;
position = "{1121, 1290}";
}
);
layerId = "9EC1037D-1518-4D1A-8B06-2AA570753711";
paths = (
{
closed = 1;
nodes = (
"226 851 LINE",
"226 1082 LINE",
"172 1082 LINE",
"172 0 LINE",
"226 0 LINE"
);
},
{
closed = 1;
nodes = (
"219 554 LINE",
"219 785 OFFCURVE",
"298 1048 OFFCURVE",
"601 1048 CURVE SMOOTH",
"768 1048 OFFCURVE",
"900 970 OFFCURVE",
"900 679 CURVE",
"900 -416 LINE",
"954 -416 LINE",
"954 677 LINE",
"954 978 OFFCURVE",
"832 1102 OFFCURVE",
"600 1102 CURVE SMOOTH",
"304 1102 OFFCURVE",
"174 875 OFFCURVE",
"174 554 CURVE"
);
}
);
width = 1121;
}
);
unicode = 03B7;
userData = {
com.typemytype.robofont.guides = (
{
angle = 0;
isGlobal = 0;
magnetic = 5;
x = 0;
y = 901;
},
{
angle = 0;
isGlobal = 0;
magnetic = 5;
x = 0;
y = 555;
}
);
};
},
{
export = 0;
glyphname = theta;
layers = (
{
layerId = "9EC1037D-1518-4D1A-8B06-2AA570753711";
paths = (
{
closed = 1;
nodes = (
"1013 749 LINE",
"185 749 LINE",
"185 695 LINE",
"1013 695 LINE"
);
},
{
closed = 1;
nodes = (
"1026 862 LINE",
"1026 1242 OFFCURVE",
"871 1477 OFFCURVE",
"590 1477 CURVE SMOOTH",
"310 1477 OFFCURVE",
"155 1242 OFFCURVE",
"155 862 CURVE",
"155 594 LINE",
"155 214 OFFCURVE",
"313 -20 OFFCURVE",
"592 -20 CURVE SMOOTH",
"874 -20 OFFCURVE",
"1026 214 OFFCURVE",
"1026 594 CURVE"
);
},
{
closed = 1;
nodes = (
"972 596 LINE",
"972 268 OFFCURVE",
"850 34 OFFCURVE",
"592 34 CURVE SMOOTH",
"335 34 OFFCURVE",
"209 268 OFFCURVE",
"209 596 CURVE SMOOTH",
"209 862 LINE SMOOTH",
"209 1196 OFFCURVE",
"333 1423 OFFCURVE",
"590 1423 CURVE SMOOTH",
"848 1423 OFFCURVE",
"972 1196 OFFCURVE",
"972 862 CURVE"
);
}
);
width = 1181;
}
);
unicode = 03B8;
},
{
export = 0;
glyphname = iota;
layers = (
{
anchors = (
{
name = top;
position = "{196, 1269}";
},
{
name = top0315;
position = "{565, 1269}";
}
);
layerId = "9EC1037D-1518-4D1A-8B06-2AA570753711";
paths = (
{
closed = 1;
nodes = (
"170 1082 LINE",
"170 271 LINE",
"170 54 OFFCURVE",
"253 -8 OFFCURVE",
"391 -8 CURVE SMOOTH",
"419 -8 OFFCURVE",
"475 -6 OFFCURVE",
"504 4 CURVE",
"495 55 LINE",
"458 50 OFFCURVE",
"429 46 OFFCURVE",
"388 46 CURVE SMOOTH",
"301 46 OFFCURVE",
"225 81 OFFCURVE",
"225 271 CURVE",
"225 1082 LINE"
);
}
);
width = 565;
}
);
unicode = 03B9;
userData = {
com.typemytype.robofont.guides = (
{
angle = 0;
isGlobal = 0;
magnetic = 5;
x = 0;
y = 659;
},
{
angle = 0;
isGlobal = 0;
magnetic = 5;
x = 0;
y = 1005;
}
);
};
},
{
export = 0;
glyphname = lambda;
layers = (
{
anchors = (
{
name = top0315;
position = "{949, 1612}";
}
);
layerId = "9EC1037D-1518-4D1A-8B06-2AA570753711";
paths = (
{
closed = 1;
nodes = (
"531 1003 LINE",
"558 1071 LINE",
"514 1102 LINE",
"62 0 LINE",
"121 0 LINE"
);
},
{
closed = 1;
nodes = (
"244 1518 CURVE",
"229 1518 OFFCURVE",
"200 1514 OFFCURVE",
"188 1508 CURVE",
"197 1458 LINE",
"208 1461 OFFCURVE",
"236 1464 OFFCURVE",
"245 1464 CURVE SMOOTH",
"357 1464 OFFCURVE",
"394 1373 OFFCURVE",
"438 1252 CURVE SMOOTH",
"539 978 LINE",
"816 211 LINE SMOOTH",
"848 124 OFFCURVE",
"887 -6 OFFCURVE",
"1030 -6 CURVE SMOOTH",
"1046 -6 OFFCURVE",
"1075 -2 OFFCURVE",
"1087 4 CURVE",
"1078 55 LINE",
"1067 51 OFFCURVE",
"1039 48 OFFCURVE",
"1030 48 CURVE SMOOTH",
"947 48 OFFCURVE",
"911 118 OFFCURVE",
"867 237 CURVE SMOOTH",
"493 1260 LINE SMOOTH",
"459 1352 OFFCURVE",
"414 1518 OFFCURVE"
);
}
);
width = 1121;
}
);
unicode = 03BB;
userData = {
com.typemytype.robofont.guides = (
{
angle = 0;
isGlobal = 0;
magnetic = 5;
x = 0;
y = 901;
},
{
angle = 0;
isGlobal = 0;
magnetic = 5;
x = 0;
y = 555;
}
);
};
},
{
export = 0;
glyphname = xi;
layers = (
{
layerId = "9EC1037D-1518-4D1A-8B06-2AA570753711";
paths = (
{
closed = 1;
nodes = (
"929 1427 LINE",
"847 1459 OFFCURVE",
"749 1476 OFFCURVE",
"654 1476 CURVE SMOOTH",
"390 1476 OFFCURVE",
"219 1364 OFFCURVE",
"219 1144 CURVE",
"219 976 OFFCURVE",
"379 838 OFFCURVE",
"673 838 CURVE",
"799 838 LINE",
"799 891 LINE",
"677 891 LINE SMOOTH",
"391 891 OFFCURVE",
"274 989 OFFCURVE",
"274 1148 CURVE",
"274 1305 OFFCURVE",
"389 1423 OFFCURVE",
"652 1423 CURVE SMOOTH",
"746 1423 OFFCURVE",
"839 1407 OFFCURVE",
"923 1377 CURVE"
);
},
{
closed = 1;
nodes = (
"673 884 LINE",
"364 884 OFFCURVE",
"137 731 OFFCURVE",
"137 449 CURVE SMOOTH",
"137 165 OFFCURVE",
"349 62 OFFCURVE",
"618 -10 CURVE SMOOTH",
"696 -31 LINE SMOOTH",
"813 -63 OFFCURVE",
"857 -94 OFFCURVE",
"857 -149 CURVE SMOOTH",
"857 -248 OFFCURVE",
"762 -315 OFFCURVE",
"725 -337 CURVE",
"758 -370 LINE",
"803 -347 OFFCURVE",
"910 -267 OFFCURVE",
"910 -150 CURVE",
"910 -60 OFFCURVE",
"853 -18 OFFCURVE",
"703 22 CURVE SMOOTH",
"625 43 LINE SMOOTH",
"362 114 OFFCURVE",
"192 203 OFFCURVE",
"192 445 CURVE SMOOTH",
"192 725 OFFCURVE",
"418 835 OFFCURVE",
"677 835 CURVE SMOOTH",
"799 835 LINE",
"799 884 LINE"
);
}
);
width = 1006;
}
);
unicode = 03BE;
userData = {
com.typemytype.robofont.guides = (
{
angle = 0;
isGlobal = 0;
magnetic = 5;
x = 0;
y = 1658;
},
{
angle = 0;
isGlobal = 0;
magnetic = 5;
x = 0;
y = 555;
}
);
};
},
{
export = 0;
glyphname = pi;
layers = (
{
layerId = "9EC1037D-1518-4D1A-8B06-2AA570753711";
paths = (
{
closed = 1;
nodes = (
"1130 1082 LINE",
"62 1082 LINE",
"62 1027 LINE",
"1130 1027 LINE"
);
},
{
closed = 1;
nodes = (
"311 1082 LINE",
"257 1082 LINE",
"257 0 LINE",
"311 0 LINE"
);
},
{
closed = 1;
nodes = (
"860 1082 LINE",
"860 271 LINE",
"860 54 OFFCURVE",
"943 -8 OFFCURVE",
"1081 -8 CURVE SMOOTH",
"1109 -8 OFFCURVE",
"1165 -6 OFFCURVE",
"1194 4 CURVE",
"1185 55 LINE",
"1148 50 OFFCURVE",
"1119 46 OFFCURVE",
"1078 46 CURVE SMOOTH",
"991 46 OFFCURVE",
"915 81 OFFCURVE",
"915 271 CURVE",
"915 1082 LINE"
);
}
);
width = 1219;
}
);
unicode = 03C0;
userData = {
com.typemytype.robofont.guides = (
{
angle = 0;
isGlobal = 0;
magnetic = 5;
x = 0;
y = 659;
},
{
angle = 0;
isGlobal = 0;
magnetic = 5;
x = 0;
y = 1005;
}
);
};
},
{
export = 0;
glyphname = rho;
layers = (
{
anchors = (
{
name = top;
position = "{578, 1290}";
},
{
name = top0315;
position = "{1121, 1290}";
}
);
layerId = "9EC1037D-1518-4D1A-8B06-2AA570753711";
paths = (
{
closed = 1;
nodes = (
"172 -416 LINE",
"226 -416 LINE",
"228 614 LINE SMOOTH",
"228 820 OFFCURVE",
"320 1048 OFFCURVE",
"592 1048 CURVE SMOOTH",
"830 1048 OFFCURVE",
"944 829 OFFCURVE",
"944 542 CURVE SMOOTH",
"944 521 LINE SMOOTH",
"944 233 OFFCURVE",
"830 34 OFFCURVE",
"594 34 CURVE SMOOTH",
"367 34 OFFCURVE",
"242 166 OFFCURVE",
"206 330 CURVE",
"206 330 OFFCURVE",
"177 306 OFFCURVE",
"177 305 CURVE",
"209 114 OFFCURVE",
"350 -20 OFFCURVE",
"593 -20 CURVE SMOOTH",
"849 -20 OFFCURVE",
"999 191 OFFCURVE",
"999 521 CURVE SMOOTH",
"999 542 LINE SMOOTH",
"999 883 OFFCURVE",
"848 1102 OFFCURVE",
"592 1102 CURVE SMOOTH",
"356 1102 OFFCURVE",
"172 942 OFFCURVE",
"172 636 CURVE SMOOTH"
);
}
);
width = 1121;
}
);
unicode = 03C1;
userData = {
com.typemytype.robofont.mark = (
0.9390,
1,
0.6000,
1
);
};
},
{
export = 0;
glyphname = sigma1;
layers = (
{
layerId = "9EC1037D-1518-4D1A-8B06-2AA570753711";
paths = (
{
closed = 1;
nodes = (
"573 1102 CURVE SMOOTH",
"295 1102 OFFCURVE",
"122 879 OFFCURVE",
"122 562 CURVE SMOOTH",
"122 520 LINE SMOOTH",
"122 202 OFFCURVE",
"323 46 OFFCURVE",
"603 -16 CURVE",
"742 -47 OFFCURVE",
"779 -73 OFFCURVE",
"779 -163 CURVE",
"779 -251 OFFCURVE",
"704 -326 OFFCURVE",
"659 -347 CURVE",
"694 -379 LINE",
"746 -357 OFFCURVE",
"833 -251 OFFCURVE",
"833 -163 CURVE",
"833 -53 OFFCURVE",
"788 -2 OFFCURVE",
"615 36 CURVE",
"351 96 OFFCURVE",
"178 248 OFFCURVE",
"178 520 CURVE SMOOTH",
"178 562 LINE SMOOTH",
"178 831 OFFCURVE",
"309 1048 OFFCURVE",
"573 1048 CURVE SMOOTH",
"751 1048 OFFCURVE",
"912 945 OFFCURVE",
"912 720 CURVE",
"966 720 LINE",
"966 977 OFFCURVE",
"781 1102 OFFCURVE"
);
}
);
width = 1089;
}
);
unicode = 03C2;
},
{
export = 0;
glyphname = sigma;
layers = (
{
layerId = "9EC1037D-1518-4D1A-8B06-2AA570753711";
paths = (
{
closed = 1;
nodes = (
"87 520 LINE",
"87 203 OFFCURVE",
"280 -20 OFFCURVE",
"562 -20 CURVE SMOOTH",
"843 -20 OFFCURVE",
"1034 203 OFFCURVE",
"1034 521 CURVE",
"1034 564 LINE",
"1034 810 OFFCURVE",
"904 994 OFFCURVE",
"695 1058 CURVE SMOOTH",
"654 1073 OFFCURVE",
"609 1082 OFFCURVE",
"560 1082 CURVE",
"280 1082 OFFCURVE",
"87 865 OFFCURVE",
"87 562 CURVE"
);
},
{
closed = 1;
nodes = (
"141 562 LINE",
"141 805 OFFCURVE",
"296 1027 OFFCURVE",
"560 1027 CURVE SMOOTH",
"825 1027 OFFCURVE",
"980 805 OFFCURVE",
"980 562 CURVE",
"980 520 LINE",
"980 261 OFFCURVE",
"825 34 OFFCURVE",
"562 34 CURVE SMOOTH",
"296 34 OFFCURVE",
"141 261 OFFCURVE",
"141 520 CURVE"
);
},
{
closed = 1;
nodes = (
"1117 1082 LINE",
"559 1082 LINE",
"559 1027 LINE",
"1117 1027 LINE"
);
}
);
width = 1117;
}
);
unicode = 03C3;
},
{
export = 0;
glyphname = tau;
layers = (
{
layerId = "9EC1037D-1518-4D1A-8B06-2AA570753711";
paths = (
{
closed = 1;
nodes = (
"954 1082 LINE",
"73 1082 LINE",
"73 1027 LINE",
"954 1027 LINE"
);
},
{
closed = 1;
nodes = (
"463 1082 LINE",
"463 279 LINE",
"463 62 OFFCURVE",
"542 -21 OFFCURVE",
"706 -21 CURVE SMOOTH",
"743 -21 OFFCURVE",
"784 -19 OFFCURVE",
"819 -8 CURVE",
"810 42 LINE",
"772 37 OFFCURVE",
"744 33 OFFCURVE",
"703 33 CURVE SMOOTH",
"594 33 OFFCURVE",
"518 89 OFFCURVE",
"518 279 CURVE",
"518 1082 LINE"
);
}
);
width = 1027;
}
);
unicode = 03C4;
},
{
export = 0;
glyphname = upsilon;
layers = (
{
anchors = (
{
name = top;
position = "{516, 1269}";
},
{
name = top0315;
position = "{1073, 1269}";
}
);
layerId = "9EC1037D-1518-4D1A-8B06-2AA570753711";
paths = (
{
closed = 1;
nodes = (
"168 1082 LINE",
"168 387 LINE",
"168 98 OFFCURVE",
"304 -20 OFFCURVE",
"504 -20 CURVE SMOOTH",
"781 -20 OFFCURVE",
"929 208 OFFCURVE",
"929 523 CURVE",
"929 794 OFFCURVE",
"878 945 OFFCURVE",
"830 1082 CURVE",
"764 1082 LINE",
"827 926 OFFCURVE",
"876 739 OFFCURVE",
"876 520 CURVE",
"876 273 OFFCURVE",
"767 34 OFFCURVE",
"502 34 CURVE SMOOTH",
"340 34 OFFCURVE",
"222 132 OFFCURVE",
"222 385 CURVE",
"222 1082 LINE"
);
}
);
width = 1073;
}
);
unicode = 03C5;
},
{
export = 0;
glyphname = phi;
layers = (
{
layerId = "9EC1037D-1518-4D1A-8B06-2AA570753711";
paths = (
{
closed = 1;
nodes = (
"653 -479 LINE",
"707 -479 LINE",
"707 893 LINE",
"707 976 OFFCURVE",
"763 1028 OFFCURVE",
"827 1028 CURVE SMOOTH",
"1036 1028 OFFCURVE",
"1180 801 OFFCURVE",
"1180 544 CURVE SMOOTH",
"1180 285 OFFCURVE",
"1019 33 OFFCURVE",
"689 33 CURVE SMOOTH",
"299 33 OFFCURVE",
"193 285 OFFCURVE",
"193 544 CURVE SMOOTH",
"193 753 OFFCURVE",
"287 953 OFFCURVE",
"428 1039 CURVE",
"403 1083 LINE",
"263 992 OFFCURVE",
"140 806 OFFCURVE",
"140 546 CURVE SMOOTH",
"140 216 OFFCURVE",
"298 -21 OFFCURVE",
"686 -21 CURVE SMOOTH",
"1048 -21 OFFCURVE",
"1233 247 OFFCURVE",
"1233 546 CURVE SMOOTH",
"1233 861 OFFCURVE",
"1061 1082 OFFCURVE",
"827 1082 CURVE SMOOTH",
"749 1082 OFFCURVE",
"653 1024 OFFCURVE",
"653 893 CURVE"
);
}
);
width = 1365;
}
);
unicode = 03C6;
},
{
export = 0;
glyphname = chi.alt;
layers = (
{
layerId = "9EC1037D-1518-4D1A-8B06-2AA570753711";
paths = (
{
closed = 1;
nodes = (
"979 1082 LINE",
"916 1082 LINE",
"96 -414 LINE",
"155 -414 LINE"
);
},
{
closed = 1;
nodes = (
"114 1090 CURVE",
"93 1090 OFFCURVE",
"54 1086 OFFCURVE",
"38 1080 CURVE",
"47 1028 LINE",
"63 1033 OFFCURVE",
"102 1036 OFFCURVE",
"115 1036 CURVE SMOOTH",
"227 1036 OFFCURVE",
"250 952 OFFCURVE",
"307 838 CURVE SMOOTH",
"756 -162 LINE",
"839 -332 OFFCURVE",
"877 -419 OFFCURVE",
"982 -419 CURVE SMOOTH",
"1005 -419 OFFCURVE",
"1044 -415 OFFCURVE",
"1060 -409 CURVE",
"1051 -359 LINE",
"1034 -363 OFFCURVE",
"996 -366 OFFCURVE",
"982 -366 CURVE SMOOTH",
"900 -366 OFFCURVE",
"862 -248 OFFCURVE",
"806 -136 CURVE",
"362 848 LINE SMOOTH",
"318 934 OFFCURVE",
"261 1090 OFFCURVE"
);
}
);
width = 1050;
}
);
userData = {
com.typemytype.robofont.guides = (
{
angle = 0;
isGlobal = 0;
magnetic = 5;
x = 0;
y = 901;
},
{
angle = 0;
isGlobal = 0;
magnetic = 5;
x = 0;
y = 555;
}
);
com.typemytype.robofont.mark = (
1,
0.7790,
0.6000,
1
);
};
},
{
export = 0;
glyphname = psi;
layers = (
{
anchors = (
{
name = top;
position = "{679, 1269}";
},
{
name = top0315;
position = "{1366, 1269}";
}
);
layerId = "9EC1037D-1518-4D1A-8B06-2AA570753711";
paths = (
{
closed = 1;
nodes = (
"148 1082 LINE",
"148 590 LINE SMOOTH",
"148 159 OFFCURVE",
"366 -20 OFFCURVE",
"686 -20 CURVE SMOOTH",
"1076 -20 OFFCURVE",
"1234 234 OFFCURVE",
"1234 590 CURVE SMOOTH",
"1234 828 OFFCURVE",
"1160 962 OFFCURVE",
"1095 1082 CURVE",
"1028 1082 LINE",
"1113 946 OFFCURVE",
"1180 779 OFFCURVE",
"1180 588 CURVE",
"1180 307 OFFCURVE",
"1075 34 OFFCURVE",
"685 34 CURVE SMOOTH",
"402 34 OFFCURVE",
"202 194 OFFCURVE",
"202 588 CURVE SMOOTH",
"202 1082 LINE"
);
},
{
closed = 1;
nodes = (
"653 1082 LINE",
"653 -415 LINE",
"707 -415 LINE",
"707 1082 LINE"
);
}
);
width = 1366;
}
);
unicode = 03C8;
},
{
export = 0;
glyphname = omega;
layers = (
{
anchors = (
{
name = bottom;
position = "{848, -10}";
},
{
name = top;
position = "{870, 1269}";
},
{
name = top0315;
position = "{1690, 1269}";
}
);
layerId = "9EC1037D-1518-4D1A-8B06-2AA570753711";
paths = (
{
closed = 1;
nodes = (
"1336 1082 LINE",
"1420 920 OFFCURVE",
"1488 727 OFFCURVE",
"1488 500 CURVE",
"1488 264 OFFCURVE",
"1394 34 OFFCURVE",
"1174 34 CURVE SMOOTH",
"1001 34 OFFCURVE",
"874 162 OFFCURVE",
"874 485 CURVE",
"874 770 LINE",
"819 770 LINE",
"819 487 LINE",
"819 127 OFFCURVE",
"964 -20 OFFCURVE",
"1175 -20 CURVE SMOOTH",
"1411 -20 OFFCURVE",
"1541 200 OFFCURVE",
"1541 503 CURVE",
"1541 784 OFFCURVE",
"1467 940 OFFCURVE",
"1402 1082 CURVE"
);
},
{
closed = 1;
nodes = (
"291 1082 LINE",
"225 940 OFFCURVE",
"152 784 OFFCURVE",
"152 503 CURVE",
"152 200 OFFCURVE",
"281 -20 OFFCURVE",
"517 -20 CURVE SMOOTH",
"729 -20 OFFCURVE",
"874 127 OFFCURVE",
"874 487 CURVE",
"874 770 LINE",
"819 770 LINE",
"819 485 LINE",
"819 162 OFFCURVE",
"691 34 OFFCURVE",
"519 34 CURVE SMOOTH",
"299 34 OFFCURVE",
"205 264 OFFCURVE",
"205 500 CURVE",
"205 727 OFFCURVE",
"272 920 OFFCURVE",
"357 1082 CURVE"
);
}
);
width = 1690;
}
);
unicode = 03C9;
},
{
export = 0;
glyphname = uni03D1;
layers = (
{
layerId = "9EC1037D-1518-4D1A-8B06-2AA570753711";
paths = (
{
closed = 1;
nodes = (
"1126 772 LINE",
"1085 757 OFFCURVE",
"1013 739 OFFCURVE",
"938 739 CURVE SMOOTH",
"552 739 OFFCURVE",
"428 934 OFFCURVE",
"428 1154 CURVE",
"428 1178 LINE SMOOTH",
"428 1359 OFFCURVE",
"531 1443 OFFCURVE",
"641 1443 CURVE",
"815 1443 OFFCURVE",
"896 1316 OFFCURVE",
"896 1078 CURVE",
"896 421 LINE SMOOTH",
"896 133 OFFCURVE",
"773 34 OFFCURVE",
"547 34 CURVE SMOOTH",
"338 34 OFFCURVE",
"200 153 OFFCURVE",
"200 421 CURVE SMOOTH",
"200 748 LINE",
"146 746 LINE",
"146 421 LINE SMOOTH",
"146 123 OFFCURVE",
"313 -20 OFFCURVE",
"547 -20 CURVE SMOOTH",
"795 -20 OFFCURVE",
"950 102 OFFCURVE",
"950 421 CURVE SMOOTH",
"950 1078 LINE",
"950 1338 OFFCURVE",
"842 1497 OFFCURVE",
"641 1497 CURVE",
"500 1497 OFFCURVE",
"374 1379 OFFCURVE",
"374 1178 CURVE SMOOTH",
"374 1156 LINE",
"374 892 OFFCURVE",
"544 685 OFFCURVE",
"938 685 CURVE SMOOTH",
"1010 685 OFFCURVE",
"1094 704 OFFCURVE",
"1137 720 CURVE"
);
}
);
width = 1165;
}
);
unicode = 03D1;
},
{
export = 0;
glyphname = uni03D2;
layers = (
{
anchors = (
{
name = tonos;
position = "{-152, 1454}";
},
{
name = top;
position = "{560, 1612}";
},
{
name = top0315;
position = "{1106, 1612}";
}
);
layerId = "9EC1037D-1518-4D1A-8B06-2AA570753711";
paths = (
{
closed = 1;
nodes = (
"590 665 LINE",
"535 665 LINE",
"535 0 LINE",
"590 0 LINE"
);
},
{
closed = 1;
nodes = (
"614 796 LINE",
"546 636 LINE",
"589 615 LINE",
"856 1215 LINE SMOOTH",
"938 1400 OFFCURVE",
"1006 1420 OFFCURVE",
"1071 1420 CURVE SMOOTH",
"1111 1420 OFFCURVE",
"1141 1406 OFFCURVE",
"1154 1398 CURVE",
"1177 1439 LINE",
"1156 1452 OFFCURVE",
"1118 1467 OFFCURVE",
"1075 1467 CURVE SMOOTH",
"955 1467 OFFCURVE",
"886 1403 OFFCURVE",
"812 1239 CURVE SMOOTH"
);
},
{
closed = 1;
nodes = (
"308 1239 LINE",
"234 1403 OFFCURVE",
"166 1467 OFFCURVE",
"46 1467 CURVE SMOOTH",
"3 1467 OFFCURVE",
"-35 1452 OFFCURVE",
"-57 1439 CURVE",
"-34 1398 LINE",
"-21 1406 OFFCURVE",
"10 1420 OFFCURVE",
"50 1420 CURVE SMOOTH",
"115 1420 OFFCURVE",
"179 1400 OFFCURVE",
"264 1215 CURVE SMOOTH",
"539 615 LINE",
"575 636 LINE",
"507 796 LINE"
);
}
);
width = 1106;
}
);
unicode = 03D2;
userData = {
com.typemytype.robofont.mark = (
0.6000,
0.6090,
1,
1
);
};
},
{
export = 0;
glyphname = uni03D6;
layers = (
{
anchors = (
{
name = top;
position = "{812, 1269}";
},
{
name = top0315;
position = "{1612, 1269}";
}
);
layerId = "9EC1037D-1518-4D1A-8B06-2AA570753711";
paths = (
{
closed = 1;
nodes = (
"1584 1083 LINE",
"39 1083 LINE",
"39 1028 LINE",
"1584 1028 LINE"
);
},
{
closed = 1;
nodes = (
"1295 1082 LINE",
"1380 920 OFFCURVE",
"1447 727 OFFCURVE",
"1447 500 CURVE",
"1447 264 OFFCURVE",
"1353 34 OFFCURVE",
"1133 34 CURVE SMOOTH",
"960 34 OFFCURVE",
"833 162 OFFCURVE",
"833 485 CURVE",
"833 772 LINE",
"778 772 LINE",
"778 487 LINE",
"778 127 OFFCURVE",
"923 -20 OFFCURVE",
"1135 -20 CURVE SMOOTH",
"1372 -20 OFFCURVE",
"1500 200 OFFCURVE",
"1500 503 CURVE",
"1500 784 OFFCURVE",
"1427 940 OFFCURVE",
"1362 1082 CURVE"
);
},
{
closed = 1;
nodes = (
"251 1082 LINE",
"186 940 OFFCURVE",
"112 784 OFFCURVE",
"112 503 CURVE",
"112 200 OFFCURVE",
"241 -20 OFFCURVE",
"477 -20 CURVE SMOOTH",
"689 -20 OFFCURVE",
"834 127 OFFCURVE",
"834 487 CURVE",
"834 772 LINE",
"778 772 LINE",
"778 485 LINE",
"778 162 OFFCURVE",
"653 34 OFFCURVE",
"479 34 CURVE SMOOTH",
"259 34 OFFCURVE",
"165 264 OFFCURVE",
"165 500 CURVE",
"165 727 OFFCURVE",
"233 920 OFFCURVE",
"317 1082 CURVE"
);
}
);
width = 1612;
}
);
unicode = 03D6;
},
{
export = 0;
glyphname = uni0402;
layers = (
{
layerId = "9EC1037D-1518-4D1A-8B06-2AA570753711";
paths = (
{
closed = 1;
nodes = (
"552 727 LINE",
"682 789 OFFCURVE",
"804 827 OFFCURVE",
"941 827 CURVE SMOOTH",
"1181 827 OFFCURVE",
"1367 711 OFFCURVE",
"1367 415 CURVE SMOOTH",
"1367 231 OFFCURVE",
"1230 40 OFFCURVE",
"961 40 CURVE",
"961 -11 LINE",
"1291 -11 OFFCURVE",
"1421 238 OFFCURVE",
"1421 415 CURVE",
"1421 758 OFFCURVE",
"1213 880 OFFCURVE",
"941 880 CURVE SMOOTH",
"820 880 OFFCURVE",
"662 838 OFFCURVE",
"552 780 CURVE"
);
},
{
closed = 1;
nodes = (
"570 1456 LINE",
"516 1456 LINE",
"516 0 LINE",
"570 0 LINE"
);
},
{
closed = 1;
nodes = (
"1180 1456 LINE",
"66 1456 LINE",
"66 1402 LINE",
"1180 1402 LINE"
);
}
);
width = 1513;
}
);
unicode = 0402;
userData = {
com.typemytype.robofont.mark = (
0.6000,
0.6090,
1,
1
);
};
},
{
export = 0;
glyphname = uni0404;
layers = (
{
anchors = (
{
name = top;
position = "{700, 1600}";
},
{
name = top0315;
position = "{1325, 1600}";
}
);
layerId = "9EC1037D-1518-4D1A-8B06-2AA570753711";
paths = (
{
closed = 1;
nodes = (
"842 766 LINE",
"182 766 LINE",
"182 712 LINE",
"842 712 LINE"
);
},
{
closed = 1;
nodes = (
"1136 446 LINE",
"1106 161 OFFCURVE",
"941 34 OFFCURVE",
"671 34 CURVE SMOOTH",
"388 34 OFFCURVE",
"198 266 OFFCURVE",
"198 619 CURVE SMOOTH",
"198 839 LINE SMOOTH",
"198 1190 OFFCURVE",
"388 1422 OFFCURVE",
"671 1422 CURVE SMOOTH",
"947 1422 OFFCURVE",
"1106 1279 OFFCURVE",
"1136 1012 CURVE",
"1190 1012 LINE",
"1160 1323 OFFCURVE",
"963 1476 OFFCURVE",
"671 1476 CURVE SMOOTH",
"351 1476 OFFCURVE",
"144 1217 OFFCURVE",
"144 837 CURVE",
"144 619 LINE",
"144 239 OFFCURVE",
"351 -20 OFFCURVE",
"671 -20 CURVE SMOOTH",
"963 -20 OFFCURVE",
"1160 131 OFFCURVE",
"1190 446 CURVE"
);
}
);
width = 1325;
}
);
unicode = 0404;
userData = {
com.typemytype.robofont.mark = (
0.6000,
0.6090,
1,
1
);
};
},
{
export = 0;
glyphname = uni0409;
layers = (
{
layerId = "9EC1037D-1518-4D1A-8B06-2AA570753711";
paths = (
{
closed = 1;
nodes = (
"440 1456 LINE",
"398 822 LINE SMOOTH",
"357 197 OFFCURVE",
"296 54 OFFCURVE",
"89 54 CURVE SMOOTH",
"54 54 LINE",
"54 0 LINE",
"86 0 LINE SMOOTH",
"364 0 OFFCURVE",
"412 226 OFFCURVE",
"452 822 CURVE SMOOTH",
"494 1456 LINE"
);
},
{
closed = 1;
nodes = (
"1122 1456 LINE",
"463 1456 LINE",
"463 1402 LINE",
"1122 1402 LINE"
);
},
{
closed = 1;
nodes = (
"1112 808 LINE",
"1112 754 LINE",
"1522 754 LINE SMOOTH",
"1818 754 OFFCURVE",
"1940 582 OFFCURVE",
"1940 406 CURVE SMOOTH",
"1940 222 OFFCURVE",
"1818 54 OFFCURVE",
"1522 54 CURVE SMOOTH",
"1153 54 LINE",
"1153 1456 LINE",
"1099 1456 LINE",
"1099 0 LINE",
"1522 0 LINE SMOOTH",
"1834 0 OFFCURVE",
"1994 172 OFFCURVE",
"1994 404 CURVE SMOOTH",
"1994 636 OFFCURVE",
"1835 808 OFFCURVE",
"1522 808 CURVE SMOOTH"
);
}
);
width = 2129;
}
);
unicode = 0409;
userData = {
com.typemytype.robofont.mark = (
0.9390,
1,
0.6000,
1
);
};
},
{
export = 0;
glyphname = uni040A;
layers = (
{
layerId = "9EC1037D-1518-4D1A-8B06-2AA570753711";
paths = (
{
closed = 1;
nodes = (
"1202 748 LINE",
"222 748 LINE",
"222 694 LINE",
"1202 694 LINE"
);
},
{
closed = 1;
nodes = (
"249 1456 LINE",
"195 1456 LINE",
"195 0 LINE",
"249 0 LINE"
);
},
{
closed = 1;
nodes = (
"1192 810 LINE",
"1192 756 LINE",
"1602 756 LINE",
"1898 756 OFFCURVE",
"2020 583 OFFCURVE",
"2020 407 CURVE",
"2020 222 OFFCURVE",
"1898 53 OFFCURVE",
"1602 53 CURVE",
"1233 53 LINE",
"1233 1456 LINE",
"1179 1456 LINE",
"1179 0 LINE",
"1602 0 LINE",
"1914 0 OFFCURVE",
"2074 173 OFFCURVE",
"2074 405 CURVE",
"2074 638 OFFCURVE",
"1915 810 OFFCURVE",
"1602 810 CURVE"
);
}
);
width = 2209;
}
);
unicode = 040A;
userData = {
com.typemytype.robofont.mark = (
0.6000,
0.6090,
1,
1
);
};
},
{
export = 0;
glyphname = uni040B;
layers = (
{
layerId = "9EC1037D-1518-4D1A-8B06-2AA570753711";
paths = (
{
closed = 1;
nodes = (
"1458 0 LINE",
"1458 371 LINE SMOOTH",
"1458 697 OFFCURVE",
"1286 818 OFFCURVE",
"979 818 CURVE SMOOTH",
"830 818 OFFCURVE",
"678 786 OFFCURVE",
"545 748 CURVE",
"545 694 LINE",
"690 739 OFFCURVE",
"833 764 OFFCURVE",
"979 764 CURVE SMOOTH",
"1254 764 OFFCURVE",
"1404 651 OFFCURVE",
"1404 371 CURVE SMOOTH",
"1404 0 LINE"
);
},
{
closed = 1;
nodes = (
"570 1456 LINE",
"516 1456 LINE",
"516 0 LINE",
"570 0 LINE"
);
},
{
closed = 1;
nodes = (
"1160 1456 LINE",
"46 1456 LINE",
"46 1402 LINE",
"1160 1402 LINE"
);
}
);
width = 1629;
}
);
unicode = 040B;
userData = {
com.typemytype.robofont.mark = (
0.6000,
0.6090,
1,
1
);
};
},
{
export = 0;
glyphname = uni040F;
layers = (
{
layerId = "9EC1037D-1518-4D1A-8B06-2AA570753711";
paths = (
{
closed = 1;
nodes = (
"195 0 LINE",
"1233 0 LINE",
"1233 1456 LINE",
"1179 1456 LINE",
"1179 54 LINE",
"249 54 LINE",
"249 1456 LINE",
"195 1456 LINE"
);
},
{
closed = 1;
nodes = (
"745 51 LINE",
"691 51 LINE",
"691 -349 LINE",
"745 -349 LINE"
);
}
);
width = 1428;
}
);
unicode = 040F;
userData = {
com.typemytype.robofont.mark = (
0.6000,
0.6090,
1,
1
);
};
},
{
export = 0;
glyphname = uni0414;
layers = (
{
layerId = "9EC1037D-1518-4D1A-8B06-2AA570753711";
paths = (
{
closed = 1;
nodes = (
"1309 54 LINE",
"123 54 LINE",
"123 0 LINE",
"1309 0 LINE"
);
},
{
closed = 1;
nodes = (
"146 54 LINE",
"92 54 LINE",
"92 -349 LINE",
"146 -349 LINE"
);
},
{
closed = 1;
nodes = (
"1352 54 LINE",
"1297 54 LINE",
"1297 -349 LINE",
"1352 -349 LINE"
);
},
{
closed = 1;
nodes = (
"1201 1456 LINE",
"515 1456 LINE",
"515 1402 LINE",
"1201 1402 LINE"
);
},
{
closed = 1;
nodes = (
"1232 1456 LINE",
"1178 1456 LINE",
"1178 0 LINE",
"1232 0 LINE"
);
},
{
closed = 1;
nodes = (
"492 1456 LINE",
"471 991 LINE SMOOTH",
"434 366 OFFCURVE",
"229 111 OFFCURVE",
"168 54 CURVE",
"103 54 LINE",
"103 0 LINE",
"166 0 LINE",
"274 33 OFFCURVE",
"490 395 OFFCURVE",
"525 991 CURVE SMOOTH",
"546 1456 LINE"
);
}
);
width = 1425;
}
);
unicode = 0414;
userData = {
com.typemytype.robofont.mark = (
0.9390,
1,
0.6000,
1
);
};
},
{
export = 0;
glyphname = uni0416;
layers = (
{
anchors = (
{
name = right;
position = "{1674, 0}";
},
{
name = top;
position = "{867, 1612}";
},
{
name = top0315;
position = "{1745, 1612}";
}
);
layerId = "9EC1037D-1518-4D1A-8B06-2AA570753711";
paths = (
{
closed = 1;
nodes = (
"625 720 LINE",
"860 720 LINE",
"854 774 LINE",
"654 774 LINE",
"125 1456 LINE",
"54 1456 LINE"
);
},
{
closed = 1;
nodes = (
"671 724 LINE",
"638 771 LINE",
"19 0 LINE",
"91 0 LINE"
);
},
{
closed = 1;
nodes = (
"895 1456 LINE",
"841 1456 LINE",
"841 0 LINE",
"895 0 LINE"
);
},
{
closed = 1;
nodes = (
"1680 1456 LINE",
"1610 1456 LINE",
"1081 774 LINE",
"881 774 LINE",
"874 720 LINE",
"1109 720 LINE"
);
},
{
closed = 1;
nodes = (
"1644 0 LINE",
"1716 0 LINE",
"1096 771 LINE",
"1063 724 LINE"
);
}
);
width = 1745;
}
);
unicode = 0416;
userData = {
com.typemytype.robofont.mark = (
0.6000,
0.6090,
1,
1
);
};
},
{
export = 0;
glyphname = uni0417;
layers = (
{
anchors = (
{
name = bottom;
position = "{626, -10}";
},
{
name = top;
position = "{626, 1633}";
},
{
name = top0315;
position = "{1221, 1633}";
}
);
layerId = "9EC1037D-1518-4D1A-8B06-2AA570753711";
paths = (
{
closed = 1;
nodes = (
"602 719 LINE",
"924 719 OFFCURVE",
"1096 883 OFFCURVE",
"1096 1083 CURVE",
"1096 1341 OFFCURVE",
"903 1476 OFFCURVE",
"603 1476 CURVE SMOOTH",
"346 1476 OFFCURVE",
"121 1323 OFFCURVE",
"121 1075 CURVE",
"175 1075 LINE",
"175 1291 OFFCURVE",
"370 1422 OFFCURVE",
"603 1422 CURVE SMOOTH",
"908 1422 OFFCURVE",
"1042 1282 OFFCURVE",
"1042 1087 CURVE",
"1042 893 OFFCURVE",
"913 771 OFFCURVE",
"598 771 CURVE SMOOTH",
"414 771 LINE",
"414 719 LINE"
);
},
{
closed = 1;
nodes = (
"414 764 LINE",
"414 715 LINE",
"598 715 LINE SMOOTH",
"901 715 OFFCURVE",
"1065 620 OFFCURVE",
"1065 382 CURVE SMOOTH",
"1065 165 OFFCURVE",
"898 33 OFFCURVE",
"603 33 CURVE SMOOTH",
"339 33 OFFCURVE",
"155 188 OFFCURVE",
"155 404 CURVE",
"100 404 LINE",
"100 112 OFFCURVE",
"362 -21 OFFCURVE",
"603 -21 CURVE SMOOTH",
"903 -21 OFFCURVE",
"1119 128 OFFCURVE",
"1119 386 CURVE SMOOTH",
"1119 629 OFFCURVE",
"954 764 OFFCURVE",
"602 764 CURVE SMOOTH"
);
}
);
width = 1221;
}
);
unicode = 0417;
userData = {
com.typemytype.robofont.guides = (
{
angle = 0;
isGlobal = 0;
magnetic = 5;
x = 0;
y = 1658;
},
{
angle = 0;
isGlobal = 0;
magnetic = 5;
x = 0;
y = 555;
}
);
com.typemytype.robofont.mark = (
0.6000,
0.6090,
1,
1
);
};
},
{
export = 0;
glyphname = uni0418;
layers = (
{
anchors = (
{
name = right;
position = "{1249, 0}";
},
{
name = top;
position = "{736, 1612}";
},
{
name = top0315;
position = "{1449, 1612}";
}
);
layerId = "9EC1037D-1518-4D1A-8B06-2AA570753711";
paths = (
{
closed = 1;
nodes = (
"254 95 LINE",
"254 1456 LINE",
"200 1456 LINE",
"200 0 LINE",
"254 0 LINE",
"1195 1364 LINE",
"1195 0 LINE",
"1249 0 LINE",
"1249 1456 LINE",
"1195 1456 LINE"
);
}
);
width = 1449;
}
);
unicode = 0418;
userData = {
com.typemytype.robofont.mark = (
0.6000,
0.6090,
1,
1
);
};
},
{
export = 0;
glyphname = uni041B;
layers = (
{
anchors = (
{
name = bottom;
position = "{734, 10}";
},
{
name = right;
position = "{1233, 0}";
}
);
layerId = "9EC1037D-1518-4D1A-8B06-2AA570753711";
paths = (
{
closed = 1;
nodes = (
"1202 1456 LINE",
"443 1456 LINE",
"443 1402 LINE",
"1202 1402 LINE"
);
},
{
closed = 1;
nodes = (
"1233 1456 LINE",
"1179 1456 LINE",
"1179 0 LINE",
"1233 0 LINE"
);
},
{
closed = 1;
nodes = (
"420 1456 LINE",
"378 822 LINE SMOOTH",
"337 197 OFFCURVE",
"276 54 OFFCURVE",
"69 54 CURVE SMOOTH",
"34 54 LINE",
"34 0 LINE",
"66 0 LINE SMOOTH",
"344 0 OFFCURVE",
"392 226 OFFCURVE",
"432 822 CURVE SMOOTH",
"474 1456 LINE"
);
}
);
width = 1428;
}
);
unicode = 041B;
userData = {
com.typemytype.robofont.mark = (
0.9390,
1,
0.6000,
1
);
};
},
{
export = 0;
glyphname = uni0423;
layers = (
{
anchors = (
{
name = top;
position = "{646, 1612}";
},
{
name = top0315;
position = "{1283, 1612}";
}
);
layerId = "9EC1037D-1518-4D1A-8B06-2AA570753711";
paths = (
{
closed = 1;
nodes = (
"691 496 LINE",
"573 266 LINE SMOOTH",
"511 143 OFFCURVE",
"431 33 OFFCURVE",
"284 33 CURVE SMOOTH",
"257 33 OFFCURVE",
"225 37 OFFCURVE",
"207 43 CURVE",
"192 -8 LINE",
"210 -16 OFFCURVE",
"254 -21 OFFCURVE",
"279 -21 CURVE SMOOTH",
"497 -21 OFFCURVE",
"585 165 OFFCURVE",
"632 257 CURVE SMOOTH",
"1231 1456 LINE",
"1165 1456 LINE"
);
},
{
closed = 1;
nodes = (
"100 1456 LINE",
"33 1456 LINE",
"651 371 LINE",
"700 401 LINE",
"673 442 LINE"
);
}
);
width = 1283;
}
);
unicode = 0423;
userData = {
com.typemytype.robofont.guides = (
{
angle = 0;
isGlobal = 0;
magnetic = 5;
x = 0;
y = 901;
},
{
angle = 0;
isGlobal = 0;
magnetic = 5;
x = 0;
y = 555;
}
);
com.typemytype.robofont.mark = (
0.6000,
0.6090,
1,
1
);
};
},
{
export = 0;
glyphname = uni0426;
layers = (
{
layerId = "9EC1037D-1518-4D1A-8B06-2AA570753711";
paths = (
{
closed = 1;
nodes = (
"1355 54 LINE",
"1157 54 LINE",
"1157 0 LINE",
"1301 0 LINE",
"1301 -351 LINE",
"1355 -351 LINE"
);
},
{
closed = 1;
nodes = (
"184 0 LINE",
"1222 0 LINE",
"1222 1456 LINE",
"1168 1456 LINE",
"1168 54 LINE",
"238 54 LINE",
"238 1456 LINE",
"184 1456 LINE"
);
}
);
width = 1426;
}
);
unicode = 0426;
userData = {
com.typemytype.robofont.mark = (
0.6000,
0.6090,
1,
1
);
};
},
{
export = 0;
glyphname = uni0427;
layers = (
{
anchors = (
{
name = left;
position = "{1075, 0}";
},
{
name = right;
position = "{1129, 0}";
},
{
name = top;
position = "{688, 1612}";
},
{
name = top0315;
position = "{1325, 1612}";
}
);
layerId = "9EC1037D-1518-4D1A-8B06-2AA570753711";
paths = (
{
closed = 1;
nodes = (
"195 1456 LINE",
"195 1105 LINE",
"195 779 OFFCURVE",
"367 658 OFFCURVE",
"674 658 CURVE SMOOTH",
"823 658 OFFCURVE",
"975 690 OFFCURVE",
"1108 728 CURVE",
"1108 782 LINE",
"963 737 OFFCURVE",
"820 712 OFFCURVE",
"674 712 CURVE SMOOTH",
"399 712 OFFCURVE",
"249 825 OFFCURVE",
"249 1105 CURVE SMOOTH",
"249 1456 LINE"
);
},
{
closed = 1;
nodes = (
"1076 1456 LINE",
"1076 0 LINE",
"1130 0 LINE",
"1130 1456 LINE"
);
}
);
width = 1325;
}
);
unicode = 0427;
userData = {
com.typemytype.robofont.mark = (
0.6000,
0.6090,
1,
1
);
};
},
{
export = 0;
glyphname = uni0428;
layers = (
{
layerId = "9EC1037D-1518-4D1A-8B06-2AA570753711";
paths = (
{
closed = 1;
nodes = (
"188 1456 LINE",
"188 0 LINE",
"1678 0 LINE",
"1678 1456 LINE",
"1624 1456 LINE",
"1624 54 LINE",
"961 54 LINE",
"961 1456 LINE",
"906 1456 LINE",
"906 54 LINE",
"243 54 LINE",
"243 1456 LINE"
);
}
);
width = 1866;
}
);
unicode = 0428;
userData = {
com.typemytype.robofont.mark = (
0.6000,
0.6090,
1,
1
);
};
},
{
export = 0;
glyphname = uni0429;
layers = (
{
components = (
{
name = uni0428;
}
);
layerId = "9EC1037D-1518-4D1A-8B06-2AA570753711";
paths = (
{
closed = 1;
nodes = (
"1807 54 LINE",
"1638 54 LINE",
"1638 0 LINE",
"1753 0 LINE",
"1753 -351 LINE",
"1807 -351 LINE"
);
}
);
width = 1877;
}
);
unicode = 0429;
},
{
export = 0;
glyphname = uni042A;
layers = (
{
components = (
{
name = uni042C;
transform = "{1, 0, 0, 1, 337, 0}";
}
);
layerId = "9EC1037D-1518-4D1A-8B06-2AA570753711";
paths = (
{
closed = 1;
nodes = (
"-37 1402 LINE",
"564 1402 LINE",
"564 1456 LINE",
"-37 1456 LINE"
);
}
);
width = 1617;
}
);
unicode = 042A;
},
{
export = 0;
glyphname = uni042C;
layers = (
{
anchors = (
{
name = cross;
position = "{337, 1176}";
}
);
layerId = "9EC1037D-1518-4D1A-8B06-2AA570753711";
paths = (
{
closed = 1;
nodes = (
"206 788 LINE",
"206 734 LINE",
"616 734 LINE",
"912 734 OFFCURVE",
"1032 572 OFFCURVE",
"1032 396 CURVE",
"1032 212 OFFCURVE",
"912 54 OFFCURVE",
"616 54 CURVE",
"247 54 LINE",
"247 1456 LINE",
"193 1456 LINE",
"193 0 LINE",
"616 0 LINE",
"927 0 OFFCURVE",
"1087 162 OFFCURVE",
"1087 394 CURVE",
"1087 626 OFFCURVE",
"928 788 OFFCURVE",
"616 788 CURVE"
);
}
);
width = 1223;
}
);
unicode = 042C;
userData = {
com.typemytype.robofont.mark = (
0.6000,
0.6090,
1,
1
);
};
},
{
export = 0;
glyphname = uni042D;
layers = (
{
anchors = (
{
name = top;
position = "{692, 1634}";
},
{
name = top0315;
position = "{1325, 1634}";
}
);
layerId = "9EC1037D-1518-4D1A-8B06-2AA570753711";
paths = (
{
closed = 1;
nodes = (
"1134 764 LINE",
"485 764 LINE",
"485 710 LINE",
"1134 710 LINE"
);
},
{
closed = 1;
nodes = (
"135 446 LINE",
"165 131 OFFCURVE",
"362 -20 OFFCURVE",
"654 -20 CURVE SMOOTH",
"974 -20 OFFCURVE",
"1181 239 OFFCURVE",
"1181 619 CURVE SMOOTH",
"1181 837 LINE SMOOTH",
"1181 1217 OFFCURVE",
"974 1476 OFFCURVE",
"654 1476 CURVE SMOOTH",
"362 1476 OFFCURVE",
"165 1323 OFFCURVE",
"135 1012 CURVE",
"189 1012 LINE",
"219 1279 OFFCURVE",
"378 1422 OFFCURVE",
"654 1422 CURVE SMOOTH",
"937 1422 OFFCURVE",
"1127 1190 OFFCURVE",
"1127 839 CURVE SMOOTH",
"1127 619 LINE SMOOTH",
"1127 266 OFFCURVE",
"937 34 OFFCURVE",
"654 34 CURVE SMOOTH",
"384 34 OFFCURVE",
"219 161 OFFCURVE",
"189 446 CURVE"
);
}
);
width = 1325;
}
);
unicode = 042D;
userData = {
com.typemytype.robofont.mark = (
0.6000,
0.6090,
1,
1
);
};
},
{
export = 0;
glyphname = uni042F;
layers = (
{
anchors = (
{
name = top;
position = "{650, 1612}";
},
{
name = top0315;
position = "{1200, 1612}";
}
);
layerId = "9EC1037D-1518-4D1A-8B06-2AA570753711";
paths = (
{
closed = 1;
nodes = (
"1034 619 LINE",
"1036 674 LINE",
"560 674 LINE",
"337 674 OFFCURVE",
"202 816 OFFCURVE",
"202 1020 CURVE",
"202 1260 OFFCURVE",
"345 1402 OFFCURVE",
"622 1402 CURVE",
"993 1402 LINE",
"993 0 LINE",
"1048 0 LINE",
"1048 1456 LINE",
"622 1456 LINE",
"329 1456 OFFCURVE",
"148 1299 OFFCURVE",
"148 1018 CURVE",
"148 834 OFFCURVE",
"250 693 OFFCURVE",
"437 637 CURVE",
"455 619 LINE"
);
},
{
closed = 1;
nodes = (
"518 669 LINE",
"462 669 LINE",
"95 0 LINE",
"157 0 LINE"
);
}
);
width = 1200;
}
);
unicode = 042F;
userData = {
com.typemytype.robofont.mark = (
0.6000,
0.6090,
1,
1
);
};
},
{
export = 0;
glyphname = uni0431;
layers = (
{
layerId = "9EC1037D-1518-4D1A-8B06-2AA570753711";
paths = (
{
closed = 1;
nodes = (
"883 1553 LINE",
"883 1464 OFFCURVE",
"828 1394 OFFCURVE",
"581 1360 CURVE SMOOTH",
"284 1319 OFFCURVE",
"97 1036 OFFCURVE",
"97 592 CURVE SMOOTH",
"97 497 LINE",
"151 497 LINE",
"151 592 LINE",
"152 1002 OFFCURVE",
"322 1278 OFFCURVE",
"590 1306 CURVE SMOOTH",
"814 1329 OFFCURVE",
"937 1412 OFFCURVE",
"937 1553 CURVE"
);
},
{
closed = 1;
nodes = (
"570 1002 CURVE SMOOTH",
"355 1002 OFFCURVE",
"192 887 OFFCURVE",
"127 705 CURVE SMOOTH",
"107 650 OFFCURVE",
"97 588 OFFCURVE",
"97 522 CURVE",
"97 480 LINE SMOOTH",
"97 187 OFFCURVE",
"291 -20 OFFCURVE",
"572 -20 CURVE SMOOTH",
"853 -20 OFFCURVE",
"1045 187 OFFCURVE",
"1045 480 CURVE",
"1045 522 LINE",
"1045 803 OFFCURVE",
"853 1002 OFFCURVE"
);
},
{
closed = 1;
nodes = (
"570 948 CURVE SMOOTH",
"835 948 OFFCURVE",
"990 747 OFFCURVE",
"990 522 CURVE",
"990 480 LINE",
"990 243 OFFCURVE",
"835 34 OFFCURVE",
"572 34 CURVE SMOOTH",
"306 34 OFFCURVE",
"151 243 OFFCURVE",
"151 480 CURVE",
"151 522 LINE SMOOTH",
"151 745 OFFCURVE",
"306 948 OFFCURVE"
);
}
);
width = 1122;
}
);
unicode = 0431;
},
{
export = 0;
glyphname = uni0432;
layers = (
{
anchors = (
{
name = top;
position = "{541, 1269}";
},
{
name = top0315;
position = "{1121, 1269}";
}
);
layerId = "9EC1037D-1518-4D1A-8B06-2AA570753711";
paths = (
{
closed = 1;
nodes = (
"622 521 LINE",
"694 548 LINE",
"864 562 OFFCURVE",
"959 669 OFFCURVE",
"959 802 CURVE",
"959 994 OFFCURVE",
"804 1082 OFFCURVE",
"553 1082 CURVE",
"181 1082 LINE",
"181 0 LINE",
"235 0 LINE",
"235 1027 LINE",
"553 1027 LINE",
"783 1027 OFFCURVE",
"905 960 OFFCURVE",
"905 805 CURVE",
"905 654 OFFCURVE",
"790 575 OFFCURVE",
"573 575 CURVE",
"215 575 LINE",
"217 521 LINE"
);
},
{
closed = 1;
nodes = (
"622 0 LINE",
"849 0 OFFCURVE",
"1006 99 OFFCURVE",
"1006 293 CURVE SMOOTH",
"1006 426 OFFCURVE",
"895 539 OFFCURVE",
"746 555 CURVE",
"712 575 LINE",
"352 575 LINE",
"350 521 LINE",
"622 521 LINE SMOOTH",
"826 521 OFFCURVE",
"953 428 OFFCURVE",
"953 292 CURVE SMOOTH",
"953 137 OFFCURVE",
"826 54 OFFCURVE",
"622 54 CURVE SMOOTH",
"209 54 LINE",
"209 0 LINE"
);
}
);
width = 1121;
}
);
unicode = 0432;
userData = {
com.typemytype.robofont.guides = (
{
angle = 0;
isGlobal = 0;
magnetic = 5;
x = 0;
y = 721;
},
{
angle = 0;
isGlobal = 0;
magnetic = 5;
x = 0;
y = 444;
}
);
};
},
{
export = 0;
glyphname = uni0433;
layers = (
{
anchors = (
{
name = cross;
position = "{303, 551}";
},
{
name = right;
position = "{225, 0}";
},
{
name = top;
position = "{422, 1269}";
},
{
name = top0315;
position = "{867, 1269}";
}
);
layerId = "9EC1037D-1518-4D1A-8B06-2AA570753711";
paths = (
{
closed = 1;
nodes = (
"822 1082 LINE",
"172 1082 LINE",
"172 0 LINE",
"226 0 LINE",
"226 1027 LINE",
"822 1027 LINE"
);
}
);
width = 867;
}
);
unicode = 0433;
},
{
export = 0;
glyphname = uni0434;
layers = (
{
anchors = (
{
name = top;
position = "{644, 1266}";
},
{
name = top0315;
position = "{1112, 1266}";
}
);
layerId = "9EC1037D-1518-4D1A-8B06-2AA570753711";
paths = (
{
closed = 1;
nodes = (
"361 1082 LINE",
"341 706 LINE SMOOTH",
"318 282 OFFCURVE",
"194 139 OFFCURVE",
"131 54 CURVE",
"108 54 LINE",
"108 0 LINE",
"148 0 LINE",
"248 98 OFFCURVE",
"373 286 OFFCURVE",
"395 706 CURVE SMOOTH",
"415 1082 LINE"
);
},
{
closed = 1;
nodes = (
"393 1082 LINE",
"393 1028 LINE",
"888 1028 LINE",
"888 0 LINE",
"942 0 LINE",
"942 1082 LINE"
);
},
{
closed = 1;
nodes = (
"59 54 LINE",
"59 -318 LINE",
"103 -318 LINE",
"103 0 LINE",
"974 0 LINE",
"974 -318 LINE",
"1028 -318 LINE",
"1028 54 LINE"
);
}
);
width = 1112;
}
);
unicode = 0434;
},
{
export = 0;
glyphname = uni0436;
layers = (
{
anchors = (
{
name = right;
position = "{1476, 0}";
},
{
name = top;
position = "{775, 1269}";
},
{
name = top0315;
position = "{1574, 1269}";
}
);
layerId = "9EC1037D-1518-4D1A-8B06-2AA570753711";
paths = (
{
closed = 1;
nodes = (
"559 528 LINE",
"776 528 LINE",
"773 582 LINE",
"587 582 LINE",
"157 1082 LINE",
"90 1082 LINE"
);
},
{
closed = 1;
nodes = (
"601 533 LINE",
"568 584 LINE",
"27 0 LINE",
"98 0 LINE"
);
},
{
closed = 1;
nodes = (
"805 1082 LINE",
"751 1082 LINE",
"751 0 LINE",
"805 0 LINE"
);
},
{
closed = 1;
nodes = (
"1470 1082 LINE",
"1401 1082 LINE",
"972 582 LINE",
"786 582 LINE",
"784 528 LINE",
"999 528 LINE"
);
},
{
closed = 1;
nodes = (
"1461 0 LINE",
"1532 0 LINE",
"990 584 LINE",
"957 533 LINE"
);
}
);
width = 1574;
}
);
unicode = 0436;
userData = {
com.typemytype.robofont.mark = (
0.7980,
1,
0.6000,
1
);
};
},
{
export = 0;
glyphname = uni0437;
layers = (
{
anchors = (
{
name = bottom;
position = "{504, -9}";
},
{
name = top;
position = "{504, 1289}";
},
{
name = top0315;
position = "{1035, 1289}";
}
);
layerId = "9EC1037D-1518-4D1A-8B06-2AA570753711";
paths = (
{
closed = 1;
nodes = (
"517 531 LINE",
"770 531 OFFCURVE",
"901 653 OFFCURVE",
"901 802 CURVE",
"901 995 OFFCURVE",
"755 1102 OFFCURVE",
"515 1102 CURVE SMOOTH",
"313 1102 OFFCURVE",
"127 984 OFFCURVE",
"127 799 CURVE",
"182 799 LINE",
"182 950 OFFCURVE",
"340 1048 OFFCURVE",
"515 1048 CURVE SMOOTH",
"752 1048 OFFCURVE",
"846 942 OFFCURVE",
"846 805 CURVE",
"846 668 OFFCURVE",
"756 580 OFFCURVE",
"513 580 CURVE SMOOTH",
"368 580 LINE",
"368 531 LINE"
);
},
{
closed = 1;
nodes = (
"368 572 LINE",
"368 525 LINE",
"513 525 LINE SMOOTH",
"748 525 OFFCURVE",
"865 455 OFFCURVE",
"865 287 CURVE SMOOTH",
"865 132 OFFCURVE",
"746 36 OFFCURVE",
"516 36 CURVE SMOOTH",
"316 36 OFFCURVE",
"164 149 OFFCURVE",
"164 301 CURVE",
"109 301 LINE",
"109 83 OFFCURVE",
"326 -19 OFFCURVE",
"516 -19 CURVE SMOOTH",
"756 -19 OFFCURVE",
"920 96 OFFCURVE",
"920 290 CURVE SMOOTH",
"920 471 OFFCURVE",
"793 572 OFFCURVE",
"517 572 CURVE SMOOTH"
);
}
);
width = 1035;
}
);
unicode = 0437;
userData = {
com.typemytype.robofont.guides = (
{
angle = 0;
isGlobal = 0;
magnetic = 5;
x = 0;
y = 1326;
},
{
angle = 0;
isGlobal = 0;
magnetic = 5;
x = 0;
y = 444;
}
);
};
},
{
export = 0;
glyphname = uni0438;
layers = (
{
anchors = (
{
name = right;
position = "{949, 0}";
},
{
name = top;
position = "{555, 1269}";
},
{
name = top0315;
position = "{1121, 1269}";
}
);
layerId = "9EC1037D-1518-4D1A-8B06-2AA570753711";
paths = (
{
closed = 1;
nodes = (
"226 96 LINE",
"226 1082 LINE",
"172 1082 LINE",
"172 0 LINE",
"226 0 LINE",
"895 986 LINE",
"895 0 LINE",
"950 0 LINE",
"950 1082 LINE",
"895 1082 LINE"
);
}
);
width = 1121;
}
);
unicode = 0438;
},
{
export = 0;
glyphname = uni043A;
layers = (
{
anchors = (
{
name = right;
position = "{947, 0}";
},
{
name = top;
position = "{539, 1268}";
},
{
name = top0315;
position = "{1016, 1268}";
}
);
layerId = "9EC1037D-1518-4D1A-8B06-2AA570753711";
paths = (
{
closed = 1;
nodes = (
"226 1082 LINE",
"171 1082 LINE",
"171 0 LINE",
"226 0 LINE"
);
},
{
closed = 1;
nodes = (
"941 1082 LINE",
"863 1082 LINE",
"434 582 LINE",
"207 582 LINE",
"204 529 LINE",
"461 529 LINE"
);
},
{
closed = 1;
nodes = (
"923 0 LINE",
"1004 0 LINE",
"452 584 LINE",
"420 533 LINE"
);
}
);
width = 1016;
}
);
unicode = 043A;
},
{
export = 0;
glyphname = uni043B;
layers = (
{
anchors = (
{
name = bottom;
position = "{544, 10}";
},
{
name = right;
position = "{949, 0}";
},
{
name = top;
position = "{634, 1269}";
},
{
name = top0315;
position = "{1122, 1269}";
}
);
layerId = "9EC1037D-1518-4D1A-8B06-2AA570753711";
paths = (
{
closed = 1;
nodes = (
"917 1082 LINE",
"345 1082 LINE",
"345 1027 LINE",
"917 1027 LINE"
);
},
{
closed = 1;
nodes = (
"950 1082 LINE",
"895 1082 LINE",
"895 0 LINE",
"950 0 LINE"
);
},
{
closed = 1;
nodes = (
"325 1082 LINE",
"305 590 LINE SMOOTH",
"288 166 OFFCURVE",
"222 53 OFFCURVE",
"79 53 CURVE SMOOTH",
"44 53 LINE",
"44 0 LINE",
"76 0 LINE SMOOTH",
"281 0 OFFCURVE",
"342 169 OFFCURVE",
"359 590 CURVE SMOOTH",
"379 1082 LINE"
);
}
);
width = 1122;
}
);
unicode = 043B;
userData = {
com.typemytype.robofont.mark = (
0.9390,
1,
0.6000,
1
);
};
},
{
export = 0;
glyphname = uni043C;
layers = (
{
anchors = (
{
name = right;
position = "{1305, 0}";
},
{
name = top;
position = "{738, 1269}";
},
{
name = top0315;
position = "{1476, 1269}";
}
);
layerId = "9EC1037D-1518-4D1A-8B06-2AA570753711";
paths = (
{
closed = 1;
nodes = (
"747 82 LINE",
"255 1082 LINE",
"196 1082 LINE",
"726 0 LINE",
"768 0 LINE",
"1300 1082 LINE",
"1239 1082 LINE"
);
},
{
closed = 1;
nodes = (
"235 1082 LINE",
"181 1082 LINE",
"181 0 LINE",
"235 0 LINE"
);
},
{
closed = 1;
nodes = (
"1249 0 LINE",
"1304 0 LINE",
"1304 1082 LINE",
"1249 1082 LINE"
);
}
);
width = 1476;
}
);
unicode = 043C;
},
{
export = 0;
glyphname = uni043D;
layers = (
{
anchors = (
{
name = right;
position = "{948, 0}";
},
{
name = top;
position = "{567, 1269}";
},
{
name = top0315;
position = "{1121, 1269}";
}
);
layerId = "9EC1037D-1518-4D1A-8B06-2AA570753711";
paths = (
{
closed = 1;
nodes = (
"914 583 LINE",
"204 583 LINE",
"204 529 LINE",
"914 529 LINE"
);
},
{
closed = 1;
nodes = (
"226 1082 LINE",
"172 1082 LINE",
"172 0 LINE",
"226 0 LINE"
);
},
{
closed = 1;
nodes = (
"950 1082 LINE",
"895 1082 LINE",
"895 0 LINE",
"950 0 LINE"
);
}
);
width = 1121;
}
);
unicode = 043D;
},
{
export = 0;
glyphname = uni043F;
layers = (
{
anchors = (
{
name = right;
position = "{949, 0}";
},
{
name = top;
position = "{561, 1269}";
},
{
name = top0315;
position = "{1121, 1269}";
}
);
layerId = "9EC1037D-1518-4D1A-8B06-2AA570753711";
paths = (
{
closed = 1;
nodes = (
"917 1082 LINE",
"200 1082 LINE",
"200 1027 LINE",
"917 1027 LINE"
);
},
{
closed = 1;
nodes = (
"226 1082 LINE",
"172 1082 LINE",
"172 0 LINE",
"226 0 LINE"
);
},
{
closed = 1;
nodes = (
"950 1082 LINE",
"895 1082 LINE",
"895 0 LINE",
"950 0 LINE"
);
}
);
width = 1121;
}
);
unicode = 043F;
},
{
export = 0;
glyphname = uni0442;
layers = (
{
anchors = (
{
name = right;
position = "{499, 0}";
},
{
name = top;
position = "{470, 1269}";
},
{
name = top0315;
position = "{962, 1269}";
}
);
layerId = "9EC1037D-1518-4D1A-8B06-2AA570753711";
paths = (
{
closed = 1;
nodes = (
"497 1082 LINE",
"443 1082 LINE",
"443 0 LINE",
"497 0 LINE"
);
},
{
closed = 1;
nodes = (
"922 1082 LINE",
"40 1082 LINE",
"40 1027 LINE",
"922 1027 LINE"
);
}
);
width = 962;
}
);
unicode = 0442;
},
{
export = 0;
glyphname = uni0444;
layers = (
{
anchors = (
{
name = top;
position = "{745, 1740}";
},
{
name = top0315;
position = "{1484, 1740}";
}
);
layerId = "9EC1037D-1518-4D1A-8B06-2AA570753711";
paths = (
{
closed = 1;
nodes = (
"1362 542 LINE",
"1362 883 OFFCURVE",
"1218 1102 OFFCURVE",
"974 1102 CURVE SMOOTH",
"828 1102 OFFCURVE",
"755 1032 OFFCURVE",
"725 985 CURVE",
"725 85 LINE",
"744 57 OFFCURVE",
"826 -21 OFFCURVE",
"976 -21 CURVE SMOOTH",
"1219 -21 OFFCURVE",
"1362 191 OFFCURVE",
"1362 521 CURVE SMOOTH"
);
},
{
closed = 1;
nodes = (
"1308 521 LINE",
"1308 233 OFFCURVE",
"1200 33 OFFCURVE",
"977 33 CURVE SMOOTH",
"846 33 OFFCURVE",
"779 94 OFFCURVE",
"760 110 CURVE",
"760 949 LINE",
"776 975 OFFCURVE",
"817 1048 OFFCURVE",
"975 1048 CURVE SMOOTH",
"1200 1048 OFFCURVE",
"1308 829 OFFCURVE",
"1308 542 CURVE SMOOTH"
);
},
{
closed = 1;
nodes = (
"122 521 LINE",
"122 191 OFFCURVE",
"265 -21 OFFCURVE",
"508 -21 CURVE SMOOTH",
"659 -21 OFFCURVE",
"742 56 OFFCURVE",
"761 84 CURVE",
"761 985 LINE",
"730 1032 OFFCURVE",
"656 1102 OFFCURVE",
"510 1102 CURVE SMOOTH",
"266 1102 OFFCURVE",
"122 883 OFFCURVE",
"122 542 CURVE SMOOTH"
);
},
{
closed = 1;
nodes = (
"178 542 LINE",
"178 829 OFFCURVE",
"285 1048 OFFCURVE",
"509 1048 CURVE SMOOTH",
"668 1048 OFFCURVE",
"709 975 OFFCURVE",
"725 949 CURVE",
"725 109 LINE",
"705 94 OFFCURVE",
"638 33 OFFCURVE",
"507 33 CURVE SMOOTH",
"285 33 OFFCURVE",
"178 233 OFFCURVE",
"178 521 CURVE SMOOTH"
);
},
{
closed = 1;
nodes = (
"716 -416 LINE",
"770 -416 LINE",
"770 1536 LINE",
"716 1536 LINE"
);
}
);
width = 1484;
}
);
unicode = 0444;
},
{
export = 0;
glyphname = uni0446;
layers = (
{
anchors = (
{
name = top;
position = "{579, 1269}";
},
{
name = top0315;
position = "{1120, 1269}";
}
);
layerId = "9EC1037D-1518-4D1A-8B06-2AA570753711";
paths = (
{
closed = 1;
nodes = (
"172 0 LINE",
"950 0 LINE",
"950 1082 LINE",
"895 1082 LINE",
"895 54 LINE",
"226 54 LINE",
"226 1082 LINE",
"172 1082 LINE"
);
},
{
closed = 1;
nodes = (
"1041 54 LINE",
"872 54 LINE",
"872 0 LINE",
"987 0 LINE",
"987 -321 LINE",
"1041 -321 LINE"
);
}
);
width = 1120;
}
);
unicode = 0446;
},
{
export = 0;
glyphname = uni0447;
layers = (
{
anchors = (
{
name = left;
position = "{842, 0}";
},
{
name = right;
position = "{894, 0}";
},
{
name = top;
position = "{497, 1269}";
},
{
name = top0315;
position = "{1067, 1269}";
}
);
layerId = "9EC1037D-1518-4D1A-8B06-2AA570753711";
paths = (
{
closed = 1;
nodes = (
"895 1082 LINE",
"841 1082 LINE",
"841 0 LINE",
"895 0 LINE"
);
},
{
closed = 1;
nodes = (
"876 596 LINE",
"829 554 OFFCURVE",
"660 502 OFFCURVE",
"526 496 CURVE",
"277 496 OFFCURVE",
"171 566 OFFCURVE",
"171 848 CURVE SMOOTH",
"171 1082 LINE",
"117 1082 LINE",
"117 848 LINE SMOOTH",
"117 521 OFFCURVE",
"245 442 OFFCURVE",
"526 442 CURVE SMOOTH",
"639 442 OFFCURVE",
"804 496 OFFCURVE",
"876 542 CURVE"
);
}
);
width = 1067;
}
);
unicode = 0447;
},
{
export = 0;
glyphname = uni0448;
layers = (
{
anchors = (
{
name = top;
position = "{827, 1269}";
},
{
name = top0315;
position = "{1594, 1269}";
}
);
layerId = "9EC1037D-1518-4D1A-8B06-2AA570753711";
paths = (
{
closed = 1;
nodes = (
"172 1082 LINE",
"172 0 LINE",
"1460 0 LINE",
"1460 1082 LINE",
"1406 1082 LINE",
"1406 54 LINE",
"848 54 LINE",
"848 1082 LINE",
"793 1082 LINE",
"793 54 LINE",
"226 54 LINE",
"226 1082 LINE"
);
}
);
width = 1594;
}
);
unicode = 0448;
},
{
export = 0;
glyphname = uni0449;
layers = (
{
anchors = (
{
name = top;
position = "{812, 1269}";
},
{
name = top0315;
position = "{1592, 1269}";
}
);
components = (
{
name = uni0448;
}
);
layerId = "9EC1037D-1518-4D1A-8B06-2AA570753711";
paths = (
{
closed = 1;
nodes = (
"1568 54 LINE",
"1399 54 LINE",
"1399 0 LINE",
"1514 0 LINE",
"1514 -321 LINE",
"1568 -321 LINE"
);
}
);
width = 1592;
}
);
unicode = 0449;
},
{
export = 0;
glyphname = uni044A;
layers = (
{
components = (
{
name = uni044C;
transform = "{1, 0, 0, 1, 228, 0}";
}
);
layerId = "9EC1037D-1518-4D1A-8B06-2AA570753711";
paths = (
{
closed = 1;
nodes = (
"442 1082 LINE",
"40 1082 LINE",
"40 1028 LINE",
"442 1028 LINE"
);
}
);
width = 1309;
}
);
unicode = 044A;
},
{
export = 0;
glyphname = uni044C;
layers = (
{
anchors = (
{
name = cross;
position = "{290, 889}";
}
);
layerId = "9EC1037D-1518-4D1A-8B06-2AA570753711";
paths = (
{
closed = 1;
nodes = (
"200 670 LINE",
"200 616 LINE",
"580 616 LINE",
"816 616 OFFCURVE",
"913 479 OFFCURVE",
"913 337 CURVE",
"913 189 OFFCURVE",
"816 54 OFFCURVE",
"580 54 CURVE",
"235 54 LINE",
"235 1082 LINE",
"181 1082 LINE",
"181 0 LINE",
"580 0 LINE",
"830 0 OFFCURVE",
"967 141 OFFCURVE",
"967 335 CURVE",
"967 527 OFFCURVE",
"830 670 OFFCURVE",
"580 670 CURVE"
);
}
);
width = 1080;
}
);
unicode = 044C;
},
{
export = 0;
glyphname = uni044D;
layers = (
{
anchors = (
{
name = top;
position = "{547, 1290}";
},
{
name = top0315;
position = "{1089, 1290}";
}
);
layerId = "9EC1037D-1518-4D1A-8B06-2AA570753711";
paths = (
{
closed = 1;
nodes = (
"514 1048 CURVE SMOOTH",
"780 1048 OFFCURVE",
"912 833 OFFCURVE",
"912 562 CURVE SMOOTH",
"912 520 LINE SMOOTH",
"912 251 OFFCURVE",
"780 34 OFFCURVE",
"516 34 CURVE",
"338 34 OFFCURVE",
"178 136 OFFCURVE",
"178 362 CURVE",
"122 362 LINE",
"122 104 OFFCURVE",
"308 -20 OFFCURVE",
"516 -20 CURVE SMOOTH",
"795 -20 OFFCURVE",
"966 203 OFFCURVE",
"966 520 CURVE SMOOTH",
"966 562 LINE SMOOTH",
"966 879 OFFCURVE",
"795 1102 OFFCURVE",
"514 1102 CURVE",
"317 1102 OFFCURVE",
"122 979 OFFCURVE",
"122 749 CURVE",
"178 749 LINE",
"178 966 OFFCURVE",
"354 1048 OFFCURVE"
);
},
{
closed = 1;
nodes = (
"929 570 LINE",
"340 570 LINE",
"340 516 LINE",
"929 516 LINE"
);
}
);
width = 1089;
}
);
unicode = 044D;
},
{
export = 0;
glyphname = uni044E;
layers = (
{
anchors = (
{
name = top;
position = "{827, 1269}";
},
{
name = top0315;
position = "{1659, 1269}";
}
);
components = (
{
name = idotless;
},
{
name = o;
transform = "{1, 0, 0, 1, 503, 0}";
}
);
layerId = "9EC1037D-1518-4D1A-8B06-2AA570753711";
paths = (
{
closed = 1;
nodes = (
"628 557 LINE",
"189 557 LINE",
"189 503 LINE",
"628 503 LINE"
);
}
);
width = 1659;
}
);
unicode = 044E;
},
{
export = 0;
glyphname = uni044F;
layers = (
{
anchors = (
{
name = top;
position = "{525, 1269}";
},
{
name = top0315;
position = "{1101, 1269}";
}
);
layerId = "9EC1037D-1518-4D1A-8B06-2AA570753711";
paths = (
{
closed = 1;
nodes = (
"425 476 LINE",
"139 0 LINE",
"203 0 LINE",
"490 476 LINE"
);
},
{
closed = 1;
nodes = (
"524 1082 LINE",
"288 1082 OFFCURVE",
"159 947 OFFCURVE",
"159 766 CURVE",
"159 584 OFFCURVE",
"273 450 OFFCURVE",
"482 450 CURVE",
"905 450 LINE",
"905 505 LINE",
"482 505 LINE",
"291 505 OFFCURVE",
"213 632 OFFCURVE",
"213 764 CURVE",
"213 904 OFFCURVE",
"303 1027 OFFCURVE",
"524 1027 CURVE",
"870 1027 LINE",
"870 0 LINE",
"924 0 LINE",
"924 1082 LINE"
);
}
);
width = 1101;
}
);
unicode = 044F;
},
{
export = 0;
glyphname = uni0452;
layers = (
{
components = (
{
name = h;
},
{
name = crossbar;
transform = "{1, 0, 0, 1, -137, 540}";
}
);
layerId = "9EC1037D-1518-4D1A-8B06-2AA570753711";
paths = (
{
closed = 1;
nodes = (
"900 414 LINE",
"900 -89 LINE SMOOTH",
"900 -277 OFFCURVE",
"816 -383 OFFCURVE",
"668 -383 CURVE SMOOTH",
"624 -383 OFFCURVE",
"573 -373 OFFCURVE",
"549 -365 CURVE",
"536 -417 LINE",
"581 -430 OFFCURVE",
"620 -437 OFFCURVE",
"668 -437 CURVE SMOOTH",
"847 -437 OFFCURVE",
"954 -314 OFFCURVE",
"954 -89 CURVE SMOOTH",
"954 414 LINE"
);
}
);
width = 1121;
}
);
unicode = 0452;
},
{
export = 0;
glyphname = uni0454;
layers = (
{
anchors = (
{
name = top;
position = "{566, 1269}";
},
{
name = top0315;
position = "{1089, 1269}";
}
);
components = (
{
name = c;
transform = "{1, 0, 0, 1, 15, 0}";
}
);
layerId = "9EC1037D-1518-4D1A-8B06-2AA570753711";
paths = (
{
closed = 1;
nodes = (
"747 570 LINE",
"157 570 LINE",
"157 516 LINE",
"747 516 LINE"
);
}
);
width = 1089;
}
);
unicode = 0454;
},
{
export = 0;
glyphname = uni0459;
layers = (
{
layerId = "9EC1037D-1518-4D1A-8B06-2AA570753711";
paths = (
{
closed = 1;
nodes = (
"315 1082 LINE",
"295 590 LINE SMOOTH",
"278 166 OFFCURVE",
"212 53 OFFCURVE",
"69 53 CURVE SMOOTH",
"34 53 LINE",
"34 0 LINE",
"66 0 LINE SMOOTH",
"271 0 OFFCURVE",
"332 169 OFFCURVE",
"349 590 CURVE SMOOTH",
"369 1082 LINE"
);
},
{
closed = 1;
nodes = (
"917 1082 LINE",
"335 1082 LINE",
"335 1027 LINE",
"917 1027 LINE"
);
},
{
closed = 1;
nodes = (
"915 630 LINE",
"915 576 LINE",
"1295 576 LINE SMOOTH",
"1531 576 OFFCURVE",
"1628 449 OFFCURVE",
"1628 317 CURVE SMOOTH",
"1628 179 OFFCURVE",
"1531 54 OFFCURVE",
"1295 54 CURVE SMOOTH",
"950 54 LINE",
"950 1082 LINE",
"895 1082 LINE",
"895 0 LINE",
"1295 0 LINE SMOOTH",
"1545 0 OFFCURVE",
"1682 133 OFFCURVE",
"1682 315 CURVE SMOOTH",
"1682 496 OFFCURVE",
"1545 630 OFFCURVE",
"1295 630 CURVE SMOOTH"
);
}
);
width = 1764;
}
);
unicode = 0459;
userData = {
com.typemytype.robofont.mark = (
0.9390,
1,
0.6000,
1
);
};
},
{
export = 0;
glyphname = uni045A;
layers = (
{
layerId = "9EC1037D-1518-4D1A-8B06-2AA570753711";
paths = (
{
closed = 1;
nodes = (
"914 632 LINE",
"204 632 LINE",
"204 578 LINE",
"914 578 LINE"
);
},
{
closed = 1;
nodes = (
"226 1082 LINE",
"172 1082 LINE",
"172 0 LINE",
"226 0 LINE"
);
},
{
closed = 1;
nodes = (
"915 630 LINE",
"915 576 LINE",
"1295 576 LINE",
"1531 576 OFFCURVE",
"1628 449 OFFCURVE",
"1628 317 CURVE",
"1628 179 OFFCURVE",
"1531 54 OFFCURVE",
"1295 54 CURVE",
"950 54 LINE",
"950 1082 LINE",
"895 1082 LINE",
"895 0 LINE",
"1295 0 LINE",
"1545 0 OFFCURVE",
"1682 133 OFFCURVE",
"1682 315 CURVE",
"1682 496 OFFCURVE",
"1545 630 OFFCURVE",
"1295 630 CURVE"
);
}
);
width = 1764;
}
);
unicode = 045A;
},
{
export = 0;
glyphname = uni045F;
layers = (
{
layerId = "9EC1037D-1518-4D1A-8B06-2AA570753711";
paths = (
{
closed = 1;
nodes = (
"538 54 LINE",
"538 -350 LINE",
"592 -350 LINE",
"592 54 LINE"
);
},
{
closed = 1;
nodes = (
"172 1082 LINE",
"172 0 LINE",
"950 0 LINE",
"950 1082 LINE",
"895 1082 LINE",
"895 54 LINE",
"226 54 LINE",
"226 1082 LINE"
);
}
);
width = 1121;
}
);
unicode = 045F;
},
